<svg id="Group_9273" data-name="Group 9273" xmlns="http://www.w3.org/2000/svg" xmlns:xlink="http://www.w3.org/1999/xlink" width="376.147" height="265.439" viewBox="0 0 376.147 265.439">
  <defs>
    <clipPath id="clip-path">
      <rect id="Rectangle_3757" data-name="Rectangle 3757" width="376.147" height="265.439" fill="none"/>
    </clipPath>
    <clipPath id="clip-path-3">
      <rect id="Rectangle_3745" data-name="Rectangle 3745" width="90.652" height="158" transform="translate(263.07 27.391)" fill="none"/>
    </clipPath>
    <clipPath id="clip-path-4">
      <rect id="Rectangle_3746" data-name="Rectangle 3746" width="88.433" height="85.486" transform="translate(265.986 119.617)" fill="none"/>
    </clipPath>
    <clipPath id="clip-path-5">
      <rect id="Rectangle_3747" data-name="Rectangle 3747" width="180.991" height="73.364" transform="translate(101.315 180.948)" fill="none"/>
    </clipPath>
    <clipPath id="clip-path-6">
      <rect id="Rectangle_3748" data-name="Rectangle 3748" width="168.371" height="114.799" transform="translate(107.79 134.708)" fill="none"/>
    </clipPath>
  </defs>
  <g id="Group_9272" data-name="Group 9272" clip-path="url(#clip-path)">
    <g id="Group_9271" data-name="Group 9271">
      <g id="Group_9270" data-name="Group 9270" clip-path="url(#clip-path)">
        <path id="Path_8225" data-name="Path 8225" d="M256.369,190.379c-2.76-7.436-29.373-82.524,13.1-134.582,17.784-21.8,47.193-41.8,76.063-43.635,41.291-2.618,34.479,50.905,16.418,72.311-19.6,23.223-51.792,28.481-68.207,54.623-8.65,13.777-13.364,29.672-15.582,45.7l-21.792,5.588" fill="#f2f0f9"/>
        <g id="Group_9260" data-name="Group 9260" opacity="0.05">
          <g id="Group_9259" data-name="Group 9259">
            <g id="Group_9258" data-name="Group 9258" clip-path="url(#clip-path-3)">
              <path id="Path_8226" data-name="Path 8226" d="M264.686,183.891S257.7,68.9,352.222,30.506" fill="none" stroke="#130041" stroke-linecap="round" stroke-miterlimit="10" stroke-width="3"/>
              <path id="Path_8227" data-name="Path 8227" d="M327.431,28.891s-4.184,9.3-3.861,17.542c0,0,9.607,4.744,19.522,3.22" fill="none" stroke="#130041" stroke-linecap="round" stroke-miterlimit="10" stroke-width="3"/>
              <path id="Path_8228" data-name="Path 8228" d="M298.313,45.18s-1.9,12.961.921,24.78a44.135,44.135,0,0,0,23.089.4" fill="none" stroke="#130041" stroke-linecap="round" stroke-miterlimit="10" stroke-width="3"/>
              <path id="Path_8229" data-name="Path 8229" d="M273.606,75.249s2.449,13.309,9.258,20.917c0,0,8.816-.818,22.457-7.188" fill="none" stroke="#130041" stroke-linecap="round" stroke-miterlimit="10" stroke-width="3"/>
            </g>
          </g>
        </g>
        <path id="Path_8230" data-name="Path 8230" d="M260.448,205.783c-.172-5.207-1.126-57.53,36.171-81.125,15.617-9.88,38.1-16.225,56.473-11.357,26.271,6.962,10.888,38.892-4.82,48.47-17.042,10.391-38.2,6.966-53.865,19.838-8.257,6.784-14.5,15.706-19.218,25.228l-14.741-1.054" fill="#dbd3ee"/>
        <g id="Group_9263" data-name="Group 9263" opacity="0.05">
          <g id="Group_9262" data-name="Group 9262">
            <g id="Group_9261" data-name="Group 9261" clip-path="url(#clip-path-4)">
              <path id="Path_8231" data-name="Path 8231" d="M266.972,204.118s19.581-73.1,86.462-77.349" fill="none" stroke="#130041" stroke-linecap="round" stroke-miterlimit="10" stroke-width="1.971"/>
              <path id="Path_8232" data-name="Path 8232" d="M338.323,120.6s-4.543,4.925-6.056,10.126c0,0,5,4.955,11.493,6.069" fill="none" stroke="#130041" stroke-linecap="round" stroke-miterlimit="10" stroke-width="1.971"/>
              <path id="Path_8233" data-name="Path 8233" d="M316.791,124.691a49.673,49.673,0,0,0-4.583,15.631,28.987,28.987,0,0,0,14.3,5.052" fill="none" stroke="#130041" stroke-linecap="round" stroke-miterlimit="10" stroke-width="1.971"/>
              <path id="Path_8234" data-name="Path 8234" d="M295.14,138.284s-1.244,8.8,1.415,14.959c0,0,5.663,1.325,15.488.2" fill="none" stroke="#130041" stroke-linecap="round" stroke-miterlimit="10" stroke-width="1.971"/>
            </g>
          </g>
        </g>
        <path id="Path_8235" data-name="Path 8235" d="M89.648,123.305c8,43.666,38.4,82.544,78.846,100.836l.82-1.815c-39.829-18-69.846-56.384-77.707-99.379Z" fill="#dbd3ee"/>
        <path id="Path_8236" data-name="Path 8236" d="M92.633,132.194a25.968,25.968,0,0,1-5.214-17.313,5.215,5.215,0,0,1,1.661-4.049,1.7,1.7,0,0,1,1.161-.359,2.165,2.165,0,0,1,1.447,1.275c1.706,3.1,1.686,6.854,1.295,10.374s-.216,6.209-.349,10.072" fill="#dbd3ee"/>
        <path id="Path_8237" data-name="Path 8237" d="M96.513,144.1a25.975,25.975,0,0,1,2.08-17.961,5.218,5.218,0,0,1,3.131-3.058,1.687,1.687,0,0,1,1.208.131,2.165,2.165,0,0,1,.821,1.745c.334,3.525-1.171,6.959-2.925,10.036s-2.661,5.614-4.315,9.107" fill="#dbd3ee"/>
        <path id="Path_8238" data-name="Path 8238" d="M102.8,159.1a25.985,25.985,0,0,1-.132-18.081A5.22,5.22,0,0,1,105.4,137.6a1.691,1.691,0,0,1,1.215-.017,2.171,2.171,0,0,1,1.03,1.632c.762,3.458-.312,7.051-1.676,10.319s-1.954,5.9-3.17,9.566" fill="#dbd3ee"/>
        <path id="Path_8239" data-name="Path 8239" d="M110.826,172.823a25.974,25.974,0,0,1-.132-18.081,5.22,5.22,0,0,1,2.734-3.419,1.691,1.691,0,0,1,1.215-.017,2.169,2.169,0,0,1,1.03,1.632c.762,3.458-.312,7.051-1.676,10.319s-1.954,5.9-3.17,9.566" fill="#dbd3ee"/>
        <path id="Path_8240" data-name="Path 8240" d="M98.6,149.438a28.147,28.147,0,0,1-17.338-7.627,5.77,5.77,0,0,1-2.251-4.035,1.657,1.657,0,0,1,.428-1.151,2.157,2.157,0,0,1,1.943-.267c3.59.765,6.627,3.315,9.245,6s4.912,4.365,7.967,7.082" fill="#dbd3ee"/>
        <path id="Path_8241" data-name="Path 8241" d="M103.832,160.9a28.144,28.144,0,0,1-18.657-3.267,5.777,5.777,0,0,1-3.146-3.381,1.663,1.663,0,0,1,.143-1.221A2.156,2.156,0,0,1,84,152.3c3.669-.114,7.227,1.637,10.41,3.619s5.811,3.066,9.427,4.975" fill="#dbd3ee"/>
        <path id="Path_8242" data-name="Path 8242" d="M112.374,174.816a28.142,28.142,0,0,1-18.935.532,5.775,5.775,0,0,1-3.763-2.684,1.66,1.66,0,0,1-.1-1.226,2.15,2.15,0,0,1,1.64-1.074c3.574-.846,7.408.157,10.922,1.464s6.308,1.841,10.233,2.988" fill="#dbd3ee"/>
        <path id="Path_8243" data-name="Path 8243" d="M124.961,191.515a28.145,28.145,0,0,1-18.586-3.681,5.777,5.777,0,0,1-3.074-3.45,1.665,1.665,0,0,1,.176-1.218,2.157,2.157,0,0,1,1.839-.684c3.671-.033,7.188,1.8,10.326,3.85s5.742,3.2,9.315,5.183" fill="#dbd3ee"/>
        <path id="Path_8244" data-name="Path 8244" d="M135.847,201.926A28.142,28.142,0,0,1,117.6,207a5.777,5.777,0,0,1-4.3-1.7,1.661,1.661,0,0,1-.392-1.167c.08-.663.715-1.121,1.334-1.438,3.264-1.681,7.228-1.631,10.954-1.211s6.566.267,10.651.429" fill="#c3ecfe"/>
        <path id="Path_8245" data-name="Path 8245" d="M12.536,184.625q2.9-.132,5.81-.132c41.733,0,83.176,20.3,108.485,53.531l1.584-1.207C102.7,203.075,60.722,182.507,18.346,182.5q-2.951,0-5.9.133Z" fill="#dbd3ee"/>
        <path id="Path_8246" data-name="Path 8246" d="M21.778,183.55a25.98,25.98,0,0,0-18.043-1.192,5.222,5.222,0,0,0-3.574,2.527A1.69,1.69,0,0,0,.073,186.1a2.166,2.166,0,0,0,1.572,1.122c3.409.965,7.057.1,10.4-1.068s6-1.6,9.736-2.6" fill="#dbd3ee"/>
        <path id="Path_8247" data-name="Path 8247" d="M34.257,184.652a25.98,25.98,0,0,0-17.035,6.062,5.216,5.216,0,0,0-2.278,3.738,1.684,1.684,0,0,0,.4,1.144,2.164,2.164,0,0,0,1.884.409c3.511-.466,6.521-2.7,9.123-5.105s4.874-3.86,7.906-6.251" fill="#dbd3ee"/>
        <path id="Path_8248" data-name="Path 8248" d="M50.285,187.409a25.981,25.981,0,0,0-17.649,3.927,5.217,5.217,0,0,0-2.717,3.432,1.691,1.691,0,0,0,.256,1.189,2.169,2.169,0,0,0,1.822.635c3.541-.033,6.8-1.886,9.679-3.95s5.306-3.23,8.609-5.239" fill="#dbd3ee"/>
        <path id="Path_8249" data-name="Path 8249" d="M65.456,192.149a25.986,25.986,0,0,0-17.648,3.933,5.213,5.213,0,0,0-2.716,3.431,1.686,1.686,0,0,0,.256,1.188,2.163,2.163,0,0,0,1.82.638c3.542-.036,6.8-1.888,9.679-3.953s5.306-3.23,8.609-5.237" fill="#dbd3ee"/>
        <path id="Path_8250" data-name="Path 8250" d="M84.6,200.989a25.976,25.976,0,0,0-17.961,2.084,5.22,5.22,0,0,0-3.058,3.131,1.69,1.69,0,0,0,.133,1.209,2.169,2.169,0,0,0,1.744.822c3.526.333,6.96-1.173,10.036-2.928s5.613-2.662,9.106-4.318" fill="#dbd3ee"/>
        <path id="Path_8251" data-name="Path 8251" d="M97.853,208.758a27.724,27.724,0,0,0-17.607.849,5.867,5.867,0,0,0-3.477,2.612,1.4,1.4,0,0,0-.082,1.081c.225.531.906.735,1.534.826,3.328.494,6.886-.651,10.15-2.04s5.849-2.051,9.489-3.328" fill="#dbd3ee"/>
        <path id="Path_8252" data-name="Path 8252" d="M39.921,185.49a28.147,28.147,0,0,0-11.327-15.182,5.766,5.766,0,0,0-4.432-1.286,1.655,1.655,0,0,0-1.024.683,2.154,2.154,0,0,0,.176,1.953c1.552,3.327,4.718,5.719,7.923,7.66s5.357,3.8,8.69,6.173" fill="#dbd3ee"/>
        <path id="Path_8253" data-name="Path 8253" d="M52.262,188.012a28.142,28.142,0,0,0-7.376-17.442,5.768,5.768,0,0,0-4-2.31,1.658,1.658,0,0,0-1.156.418,2.157,2.157,0,0,0-.3,1.939c.714,3.6,3.218,6.674,5.861,9.33s4.289,4.975,6.966,8.069" fill="#dbd3ee"/>
        <path id="Path_8254" data-name="Path 8254" d="M67.747,193.21a28.14,28.14,0,0,0-3.737-18.57,5.77,5.77,0,0,0-3.459-3.065,1.657,1.657,0,0,0-1.218.18,2.152,2.152,0,0,0-.677,1.84c-.022,3.671,1.818,7.183,3.88,10.315s3.211,5.733,5.21,9.293" fill="#dbd3ee"/>
        <path id="Path_8255" data-name="Path 8255" d="M86.843,201.728a28.149,28.149,0,0,0-7.76-17.279,5.772,5.772,0,0,0-4.053-2.22,1.665,1.665,0,0,0-1.144.444,2.152,2.152,0,0,0-.253,1.945c.793,3.585,3.367,6.6,6.072,9.2s4.4,4.878,7.148,7.913" fill="#dbd3ee"/>
        <path id="Path_8256" data-name="Path 8256" d="M99.434,209.992a28.146,28.146,0,0,0,.848-18.922,5.774,5.774,0,0,0-2.619-3.807,1.657,1.657,0,0,0-1.226-.12,2.152,2.152,0,0,0-1.1,1.623c-.907,3.558.034,7.41,1.286,10.945s1.736,6.338,2.817,10.281" fill="#dbd3ee"/>
        <path id="Path_8257" data-name="Path 8257" d="M151.557,202.247a31.133,31.133,0,0,0-24.06-8.123c-5.88.594-12.295,3.735-13.582,9.5-.616,2.746-.4,6.39-3,7.468-2.544,1.057-5-1.565-7.613-2.44-4.348-1.458-9.311,3.513-7.844,7.863.668,1.976,2.339,3.7,2.2,5.777-.189,2.834-3.692,4.312-6.5,3.872s-5.283-2.077-8.035-2.779-6.316,0-7.282,2.672c-.867,2.393.629,5.61-1.251,7.325a5.128,5.128,0,0,1-3.057.99c-23.829,2.261-50.073,6.536-47.407,10.769.729,1.159,2.592.79,3.959.768,50.721-.793,96.789-1.551,147.494,0" fill="#dbd3ee"/>
        <path id="Path_8258" data-name="Path 8258" d="M269.237,254.312H114.385a13.069,13.069,0,0,1-13.069-13.069V13.07A13.069,13.069,0,0,1,114.385,0H269.237A13.069,13.069,0,0,1,282.306,13.07V241.243a13.069,13.069,0,0,1-13.069,13.069" fill="#4a25a9"/>
        <g id="Group_9266" data-name="Group 9266" opacity="0.1">
          <g id="Group_9265" data-name="Group 9265">
            <g id="Group_9264" data-name="Group 9264" clip-path="url(#clip-path-5)">
              <path id="Path_8259" data-name="Path 8259" d="M282.306,180.948v60.295a13.069,13.069,0,0,1-13.069,13.069H114.385a13.069,13.069,0,0,1-13.069-13.069V180.948"/>
            </g>
          </g>
        </g>
        <path id="Path_8260" data-name="Path 8260" d="M268.213,249.507H115.737a7.947,7.947,0,0,1-7.947-7.948V13a7.947,7.947,0,0,1,7.947-7.948H268.213A7.948,7.948,0,0,1,276.161,13V241.559a7.948,7.948,0,0,1-7.948,7.948" fill="#fff"/>
        <g id="Group_9269" data-name="Group 9269" opacity="0.02">
          <g id="Group_9268" data-name="Group 9268">
            <g id="Group_9267" data-name="Group 9267" clip-path="url(#clip-path-6)">
              <path id="Path_8261" data-name="Path 8261" d="M276.161,134.708v101.73a13.069,13.069,0,0,1-13.069,13.069H120.859a13.069,13.069,0,0,1-13.069-13.069V134.708"/>
            </g>
          </g>
        </g>
        <path id="Path_8262" data-name="Path 8262" d="M124.243,15.767A4.763,4.763,0,1,1,119.48,11a4.763,4.763,0,0,1,4.763,4.763" fill="#e5e6e7"/>
        <path id="Path_8263" data-name="Path 8263" d="M138.008,15.767A4.763,4.763,0,1,1,133.245,11a4.763,4.763,0,0,1,4.763,4.763" fill="#e5e6e7"/>
        <path id="Path_8264" data-name="Path 8264" d="M151.6,15.767A4.763,4.763,0,1,1,146.834,11a4.763,4.763,0,0,1,4.763,4.763" fill="#e5e6e7"/>
        <path id="Path_8265" data-name="Path 8265" d="M149.41,55.007a16.253,16.253,0,1,1-16.253-16.253A16.253,16.253,0,0,1,149.41,55.007" fill="#e5e6e7"/>
        <rect id="Rectangle_3749" data-name="Rectangle 3749" width="39.783" height="25.294" transform="translate(124.449 148.833)" fill="#fff"/>
        <path id="Path_8266" data-name="Path 8266" d="M124.449,174.447,135.6,163.294l6.221,6.221,4.973-4.973,9.8,9.8" fill="#dbd3ee"/>
        <path id="Path_8267" data-name="Path 8267" d="M158.9,157.714a3.192,3.192,0,1,1-3.192-3.192,3.192,3.192,0,0,1,3.192,3.192" fill="#ffb432"/>
        <rect id="Rectangle_3750" data-name="Rectangle 3750" width="39.783" height="25.294" transform="translate(173.167 148.833)" fill="#fff"/>
        <path id="Path_8268" data-name="Path 8268" d="M173.166,174.447l11.153-11.153,6.222,6.221,4.972-4.973,9.8,9.8" fill="#dbd3ee"/>
        <path id="Path_8269" data-name="Path 8269" d="M207.623,157.714a3.192,3.192,0,1,1-3.192-3.192,3.192,3.192,0,0,1,3.192,3.192" fill="#ffb432"/>
        <rect id="Rectangle_3751" data-name="Rectangle 3751" width="39.783" height="25.294" transform="translate(222.457 148.833)" fill="#fff"/>
        <path id="Path_8270" data-name="Path 8270" d="M222.457,174.447l11.153-11.153,6.222,6.221,4.972-4.973,9.8,9.8" fill="#dbd3ee"/>
        <path id="Path_8271" data-name="Path 8271" d="M256.914,157.714a3.192,3.192,0,1,1-3.192-3.192,3.192,3.192,0,0,1,3.192,3.192" fill="#ffb432"/>
        <path id="Path_8272" data-name="Path 8272" d="M225.186,47.914H161.5a2.093,2.093,0,1,1,0-4.186h63.684a2.093,2.093,0,1,1,0,4.186" fill="#d0d2d3"/>
        <path id="Path_8273" data-name="Path 8273" d="M225.186,57.1H161.5a2.094,2.094,0,0,1,0-4.187h63.684a2.094,2.094,0,0,1,0,4.187" fill="#d0d2d3"/>
        <path id="Path_8274" data-name="Path 8274" d="M225.186,66.285H161.5a2.093,2.093,0,1,1,0-4.186h63.684a2.093,2.093,0,0,1,0,4.186" fill="#d0d2d3"/>
        <path id="Path_8275" data-name="Path 8275" d="M240.747,189.828H127.063a2.093,2.093,0,1,1,0-4.186H240.747a2.093,2.093,0,1,1,0,4.186" fill="#d0d2d3"/>
        <path id="Path_8276" data-name="Path 8276" d="M220.747,199.014H127.063a2.093,2.093,0,0,1,0-4.186h93.684a2.093,2.093,0,0,1,0,4.186" fill="#d0d2d3"/>
        <path id="Path_8277" data-name="Path 8277" d="M200.747,208.2H127.063a2.093,2.093,0,1,1,0-4.186h73.684a2.093,2.093,0,1,1,0,4.186" fill="#d0d2d3"/>
        <path id="Path_8278" data-name="Path 8278" d="M245.148,137.636H123.924a7.021,7.021,0,0,1-7.021-7.021V88.29a7.022,7.022,0,0,1,7.021-7.021H245.148a7.021,7.021,0,0,1,7.021,7.021v42.325a7.02,7.02,0,0,1-7.021,7.021" fill="#dbd3ee"/>
        <path id="Path_8279" data-name="Path 8279" d="M236.205,102.518H178.226a2.093,2.093,0,1,1,0-4.186h57.979a2.093,2.093,0,1,1,0,4.186" fill="#f0f1f1"/>
        <path id="Path_8280" data-name="Path 8280" d="M236.205,111.7H178.226a2.093,2.093,0,1,1,0-4.186h57.979a2.093,2.093,0,1,1,0,4.186" fill="#f0f1f1"/>
        <path id="Path_8281" data-name="Path 8281" d="M236.205,120.574H178.226a2.093,2.093,0,1,1,0-4.186h57.979a2.093,2.093,0,1,1,0,4.186" fill="#f0f1f1"/>
        <path id="Path_8282" data-name="Path 8282" d="M156.972,126.047H133.178a4.7,4.7,0,0,1-4.7-4.7V97.556a4.7,4.7,0,0,1,4.7-4.7h23.794a4.7,4.7,0,0,1,4.7,4.7v23.795a4.7,4.7,0,0,1-4.7,4.7" fill="#fff"/>
        <path id="Path_8283" data-name="Path 8283" d="M292.619,241.279l-29.206-.1a4.6,4.6,0,0,1-4.585-4.615l.015-4.467a4.6,4.6,0,0,1,4.615-4.585l29.2.1a4.6,4.6,0,0,1,4.585,4.615l-.014,4.467a4.6,4.6,0,0,1-4.615,4.585" fill="#b6b6cf"/>
        <path id="Path_8284" data-name="Path 8284" d="M288.572,221.618l-20.984-.068a2.991,2.991,0,0,1,.019-5.982l20.984.069a2.991,2.991,0,0,1-.019,5.981" fill="#46249b"/>
        <path id="Path_8285" data-name="Path 8285" d="M288.553,227.6l-20.984-.068a2.991,2.991,0,0,1,.019-5.982l20.984.069a2.991,2.991,0,1,1-.019,5.981" fill="#46249b"/>
        <path id="Path_8286" data-name="Path 8286" d="M256.186,204.831a6.432,6.432,0,1,1-.219-1.343,6.429,6.429,0,0,1,.219,1.343" fill="#e9a530"/>
        <path id="Path_8287" data-name="Path 8287" d="M255.967,203.488a6.429,6.429,0,0,1-12.55.691,6.429,6.429,0,0,1,12.55-.691" fill="#ffb432"/>
        <path id="Path_8288" data-name="Path 8288" d="M226.547,229.383a29.268,29.268,0,0,1,16.972-25.727s5.415.513,2.041,6.392a22.611,22.611,0,0,0-12.355,18.984c-3.7,5.266-6.658.351-6.658.351" fill="#a6a5bc"/>
        <path id="Path_8289" data-name="Path 8289" d="M241.2,238.873c.017.3.02.6.012.9l-5.619.309a4.966,4.966,0,0,0,.029-.9,5.214,5.214,0,0,0-10.413.574,4.937,4.937,0,0,0,.128.889l-5.616.309q-.062-.439-.087-.891a10.8,10.8,0,1,1,21.566-1.188" fill="#3a2372"/>
        <path id="Path_8290" data-name="Path 8290" d="M305.886,208.235a6.43,6.43,0,1,1-8.8-9.372,6.358,6.358,0,0,1,1.085-.821,6.429,6.429,0,0,1,8.607,9.161,6.329,6.329,0,0,1-.887,1.032" fill="#e9a530"/>
        <path id="Path_8291" data-name="Path 8291" d="M306.773,207.2a6.429,6.429,0,1,1-.606-8.057,6.429,6.429,0,0,1,.606,8.057" fill="#ffb432"/>
        <path id="Path_8292" data-name="Path 8292" d="M330.331,200.849a22.615,22.615,0,0,1-22.482,2.763c-6.671,1.2-3.578,5.675-3.578,5.675a29.265,29.265,0,0,0,30.613-3.569s1.859-5.427-4.553-4.869" fill="#a6a5bc"/>
        <path id="Path_8293" data-name="Path 8293" d="M332.719,188.4c.22-.206.446-.4.678-.585l3.853,4.1a5.021,5.021,0,0,0-.706.555,5.215,5.215,0,0,0,7.141,7.6,5.037,5.037,0,0,0,.6-.67l3.851,4.1q-.3.33-.627.64A10.8,10.8,0,1,1,332.719,188.4" fill="#3a2372"/>
        <path id="Path_8294" data-name="Path 8294" d="M299.084,132.452a10.794,10.794,0,0,0-12.01,9.422l-6.419-.776a17.259,17.259,0,0,1,19.2-15.065Z" fill="#a6a5bc"/>
        <path id="Path_8295" data-name="Path 8295" d="M320.521,127.946l1.072-8.879-8.882-1.073-.818.645-2.519,1.979L307.4,118.1l-.642-.821-8.882-1.073-1.072,8.879.641.821,1.979,2.523L296.9,130.4l-.821.641-1.072,8.882L303.886,141l3.343-2.623,1.98,2.523.641.821,1.032.124,5.352.65,2.494.3,1.073-8.885-.641-.818-1.977-2.519,2.52-1.979Z" fill="#c7c7e3"/>
        <path id="Path_8296" data-name="Path 8296" d="M307.772,122.646,307.126,128l-5.353-.647-2.355-3,.646-5.353,5.353.647Z" fill="#4a25a9"/>
        <path id="Path_8297" data-name="Path 8297" d="M318.8,121.26l-.646,5.353-3,2.355-5.353-.647.647-5.352,3-2.355Z" fill="#ffb432"/>
        <path id="Path_8298" data-name="Path 8298" d="M317.182,134.641,316.535,140l-5.349-.649-2.355-3,.647-5.352,5.352.646Z" fill="#4a25a9"/>
        <path id="Path_8299" data-name="Path 8299" d="M306.8,130.673l-.646,5.35-3,2.354-5.353-.646.646-5.353,3-2.351Z" fill="#4a25a9"/>
        <path id="Path_8300" data-name="Path 8300" d="M298.106,216.386l-38.85,2.139a4.6,4.6,0,0,1-4.846-4.34L253.8,203.16a4.6,4.6,0,0,1,4.34-4.846l38.85-2.139a4.6,4.6,0,0,1,4.846,4.34l.607,11.025a4.6,4.6,0,0,1-4.34,4.846" fill="#b6b6cf"/>
        <path id="Path_8301" data-name="Path 8301" d="M302.134,205.863l.313,5.676a4.6,4.6,0,0,1-4.34,4.846l-38.851,2.14a4.6,4.6,0,0,1-4.846-4.34l-.312-5.677Z" fill="#9594a8"/>
        <path id="Path_8302" data-name="Path 8302" d="M264.759,208.085a3.491,3.491,0,1,1-3.677-3.294,3.492,3.492,0,0,1,3.677,3.294" fill="#8fcc21"/>
        <path id="Path_8303" data-name="Path 8303" d="M274.866,207.529a3.491,3.491,0,1,1-3.677-3.294,3.492,3.492,0,0,1,3.677,3.294" fill="#ea1c24"/>
        <path id="Path_8304" data-name="Path 8304" d="M297.028,207.882l-16.54.911a1.571,1.571,0,1,1-.173-3.137l16.54-.911a1.571,1.571,0,0,1,.173,3.137" fill="#fff"/>
        <rect id="Rectangle_3752" data-name="Rectangle 3752" width="25.159" height="15.402" transform="translate(261.887 261.739) rotate(-89.813)" fill="#ffb432"/>
        <line id="Line_325" data-name="Line 325" x2="15.402" y2="0.05" transform="translate(261.956 240.423)" fill="none" stroke="#e9a530" stroke-miterlimit="10" stroke-width="0.087"/>
        <line id="Line_326" data-name="Line 326" x2="15.402" y2="0.05" transform="translate(261.942 244.65)" fill="none" stroke="#e9a530" stroke-miterlimit="10" stroke-width="0.087"/>
        <line id="Line_327" data-name="Line 327" x2="15.402" y2="0.05" transform="translate(261.929 248.877)" fill="none" stroke="#e9a530" stroke-miterlimit="10" stroke-width="0.087"/>
        <line id="Line_328" data-name="Line 328" x2="15.402" y2="0.05" transform="translate(261.915 253.104)" fill="none" stroke="#e9a530" stroke-miterlimit="10" stroke-width="0.087"/>
        <line id="Line_329" data-name="Line 329" x2="15.402" y2="0.05" transform="translate(261.901 257.331)" fill="none" stroke="#e9a530" stroke-miterlimit="10" stroke-width="0.087"/>
        <path id="Path_8305" data-name="Path 8305" d="M277.406,261.159l-.014,4.2-23.507-.076.013-4.2a11.754,11.754,0,0,1,23.508.077" fill="#9594a8"/>
        <rect id="Rectangle_3753" data-name="Rectangle 3753" width="3.541" height="23.508" transform="translate(253.883 265.281) rotate(-89.812)" fill="#3a2372"/>
        <path id="Path_8306" data-name="Path 8306" d="M274.7,253.617c-.243,3.243-4.318,5.811-9.3,5.795-4.692-.015-8.566-2.317-9.19-5.293a11.757,11.757,0,0,1,18.491-.5" fill="#b6b6cf"/>
        <path id="Path_8307" data-name="Path 8307" d="M286.817,190.416a9.5,9.5,0,0,1-.008,1.17,9.61,9.61,0,0,1-19.048,1.049,9.431,9.431,0,0,1-.136-1.162,9.611,9.611,0,1,1,19.192-1.057" fill="#e9a530"/>
        <path id="Path_8308" data-name="Path 8308" d="M286.817,190.416a9.5,9.5,0,0,1-.008,1.17,10.811,10.811,0,0,1-19.048,1.049,9.431,9.431,0,0,1-.136-1.162,9.611,9.611,0,1,1,19.192-1.057" fill="#ffb432"/>
        <rect id="Rectangle_3754" data-name="Rectangle 3754" width="25.159" height="15.402" transform="translate(278.609 261.793) rotate(-89.813)" fill="#ffb432"/>
        <line id="Line_330" data-name="Line 330" x2="15.402" y2="0.05" transform="translate(278.679 240.477)" fill="none" stroke="#e9a530" stroke-miterlimit="10" stroke-width="0.087"/>
        <line id="Line_331" data-name="Line 331" x2="15.402" y2="0.05" transform="translate(278.665 244.704)" fill="none" stroke="#e9a530" stroke-miterlimit="10" stroke-width="0.087"/>
        <line id="Line_332" data-name="Line 332" x2="15.402" y2="0.05" transform="translate(278.651 248.931)" fill="none" stroke="#e9a530" stroke-miterlimit="10" stroke-width="0.087"/>
        <line id="Line_333" data-name="Line 333" x2="15.402" y2="0.05" transform="translate(278.638 253.158)" fill="none" stroke="#e9a530" stroke-miterlimit="10" stroke-width="0.087"/>
        <line id="Line_334" data-name="Line 334" x2="15.402" y2="0.05" transform="translate(278.624 257.385)" fill="none" stroke="#e9a530" stroke-miterlimit="10" stroke-width="0.087"/>
        <path id="Path_8309" data-name="Path 8309" d="M302.12,261.24l-.014,4.2-23.507-.076.013-4.2a11.754,11.754,0,1,1,23.508.077" fill="#9594a8"/>
        <rect id="Rectangle_3755" data-name="Rectangle 3755" width="3.541" height="23.508" transform="translate(278.598 265.362) rotate(-89.812)" fill="#3a2372"/>
        <path id="Path_8310" data-name="Path 8310" d="M299.663,254.006c-.472,3.1-4.449,5.5-9.272,5.487-4.849-.016-8.819-2.472-9.236-5.591a11.756,11.756,0,0,1,18.508.1" fill="#b6b6cf"/>
        <path id="Path_8311" data-name="Path 8311" d="M302.6,194.311l-50.022-6.041a11.314,11.314,0,0,1-9.876-12.59l3.3-27.369a11.314,11.314,0,0,1,12.59-9.876l50.021,6.04a11.316,11.316,0,0,1,9.877,12.59l-3.3,27.369a11.315,11.315,0,0,1-12.59,9.877" fill="#c7c7e3"/>
        <path id="Path_8312" data-name="Path 8312" d="M316.616,172.654l-1.423,11.781a11.315,11.315,0,0,1-12.59,9.877l-50.021-6.041a11.315,11.315,0,0,1-9.877-12.59l1.423-11.781Z" fill="#b6b6cf"/>
        <path id="Path_8313" data-name="Path 8313" d="M301.669,186.05l-46.213-5.581a4.6,4.6,0,0,1-4.015-5.118l2.976-24.639a4.6,4.6,0,0,1,5.118-4.016l46.213,5.581a4.6,4.6,0,0,1,4.015,5.118l-2.976,24.64a4.6,4.6,0,0,1-5.118,4.015" fill="#4a25a9"/>
        <path id="Path_8314" data-name="Path 8314" d="M274.133,162.317a5.652,5.652,0,1,1-4.934-6.289,5.652,5.652,0,0,1,4.934,6.289" fill="#ffcd32"/>
        <path id="Path_8315" data-name="Path 8315" d="M299.073,165.329a5.652,5.652,0,1,1-4.934-6.289,5.652,5.652,0,0,1,4.934,6.289" fill="#ffcd32"/>
        <path id="Path_8316" data-name="Path 8316" d="M279.236,177.685a6.445,6.445,0,0,1-5.619-7.163.785.785,0,0,1,1.559.188,4.867,4.867,0,1,0,9.664,1.167.785.785,0,1,1,1.559.189,6.445,6.445,0,0,1-7.163,5.619" fill="#ffcd32"/>
        <path id="Path_8317" data-name="Path 8317" d="M254.417,150.712a4.6,4.6,0,0,1,5.118-4.015l46.212,5.581a4.6,4.6,0,0,1,4.016,5.118Z" fill="#42248e"/>
        <path id="Path_8318" data-name="Path 8318" d="M291.573,218.637h0a2.991,2.991,0,0,1-3,2.981l-20.985-.068a2.992,2.992,0,0,1-2.981-3Z" fill="#42248e"/>
        <path id="Path_8319" data-name="Path 8319" d="M291.553,224.618h0a2.991,2.991,0,0,1-3,2.981l-20.985-.068a2.992,2.992,0,0,1-2.981-3Z" fill="#42248e"/>
        <path id="Path_8320" data-name="Path 8320" d="M297.234,236.7a4.6,4.6,0,0,1-4.615,4.585l-29.206-.1a4.6,4.6,0,0,1-4.584-4.615Z" fill="#9594a8"/>
      </g>
    </g>
  </g>
</svg>
