<svg id="Group_8657" data-name="Group 8657" xmlns="http://www.w3.org/2000/svg" width="14.112" height="14.112" viewBox="0 0 14.112 14.112">
  <path id="Path_5933" data-name="Path 5933" d="M-532,214.19v7.4a.808.808,0,0,0,.808.808h12.5a.808.808,0,0,0,.808-.808v-7.4Zm4.338,6.766a.337.337,0,0,1-.337.337h-1.574a.337.337,0,0,1-.336-.337v-1.574a.337.337,0,0,1,.336-.337H-528a.337.337,0,0,1,.337.337Zm0-3.626a.336.336,0,0,1-.337.337h-1.574a.336.336,0,0,1-.336-.337v-1.574a.337.337,0,0,1,.336-.337H-528a.337.337,0,0,1,.337.337Zm3.842,3.626a.336.336,0,0,1-.337.337h-1.574a.337.337,0,0,1-.337-.337v-1.574a.337.337,0,0,1,.337-.337h1.574a.336.336,0,0,1,.337.337Zm0-3.626a.336.336,0,0,1-.337.337h-1.574a.336.336,0,0,1-.337-.337v-1.574a.337.337,0,0,1,.337-.337h1.574a.336.336,0,0,1,.337.337Zm3.825,3.626a.337.337,0,0,1-.336.337h-1.574a.337.337,0,0,1-.337-.337v-1.574a.337.337,0,0,1,.337-.337h1.574a.337.337,0,0,1,.336.337Zm0-3.626a.336.336,0,0,1-.336.337h-1.574a.336.336,0,0,1-.337-.337v-1.574a.337.337,0,0,1,.337-.337h1.574a.337.337,0,0,1,.336.337Z" transform="translate(532 -208.286)"/>
  <path id="Path_5934" data-name="Path 5934" d="M-517.888,2.572V4.78H-532V2.572a.808.808,0,0,1,.808-.808h1.52V.3a.3.3,0,0,1,.3-.3h1.217a.3.3,0,0,1,.3.3V1.764h5.832V.3a.3.3,0,0,1,.3-.3h1.217a.3.3,0,0,1,.3.3V1.764h1.52A.808.808,0,0,1-517.888,2.572Z" transform="translate(532)" fill="#ffb432"/>
</svg>
