<svg xmlns="http://www.w3.org/2000/svg" width="24" height="24" viewBox="0 0 24 24">
  <g id="call_blue_icn" transform="translate(-538 -433)">
    <rect id="Rectangle_3411" data-name="Rectangle 3411" width="24" height="24" rx="12" transform="translate(538 433)" fill="#ece8f6"/>
    <path id="Icon_feather-phone" data-name="Icon feather-phone" d="M15.144,11.984v1.806a1.2,1.2,0,0,1-1.313,1.2,11.917,11.917,0,0,1-5.2-1.849A11.742,11.742,0,0,1,5.021,9.533,11.917,11.917,0,0,1,3.173,4.313,1.2,1.2,0,0,1,4.371,3H6.177a1.2,1.2,0,0,1,1.2,1.036A7.732,7.732,0,0,0,7.8,5.728,1.2,1.2,0,0,1,7.532,7l-.765.765a9.635,9.635,0,0,0,3.613,3.613l.765-.765a1.2,1.2,0,0,1,1.271-.271,7.732,7.732,0,0,0,1.692.422A1.2,1.2,0,0,1,15.144,11.984Z" transform="translate(540.832 436)" fill="#4a25a9"/>
  </g>
</svg>
