<svg xmlns="http://www.w3.org/2000/svg" width="32" height="32" viewBox="0 0 32 32">
  <g id="Group_16" data-name="Group 16" transform="translate(-1455 -443)">
    <rect id="Rectangle_13" data-name="Rectangle 13" width="32" height="32" transform="translate(1455 443)" fill="none"/>
    <path id="Icon_ionic-md-eye-off" data-name="Icon ionic-md-eye-off" d="M14.253,8.828a5.44,5.44,0,0,1,5.458,5.415,5.209,5.209,0,0,1-.391,1.982l3.187,3.16a12.8,12.8,0,0,0,3.744-5.142A12.925,12.925,0,0,0,9.9,6.878l2.357,2.341A5.4,5.4,0,0,1,14.253,8.828ZM3.343,5.876,5.833,8.346l.5.5a12.743,12.743,0,0,0-4.087,5.4,12.944,12.944,0,0,0,16.78,7.209l.461.455,3.2,3.16,1.387-1.376L4.724,4.5Zm6.031,5.983,1.692,1.676a3.068,3.068,0,0,0-.086.7,3.256,3.256,0,0,0,3.272,3.246,3.078,3.078,0,0,0,.707-.086l1.692,1.676a5.429,5.429,0,0,1-7.857-4.842A5.35,5.35,0,0,1,9.373,11.859Zm4.7-.841,3.439,3.412.021-.171a3.256,3.256,0,0,0-3.272-3.246Z" transform="translate(1456.75 444.217)" fill="#c7c7c7"/>
  </g>
</svg>
