<svg xmlns="http://www.w3.org/2000/svg" width="24" height="24" viewBox="0 0 24 24">
  <g id="company_blue_icn" transform="translate(-538 -512)">
    <rect id="Rectangle_3411" data-name="Rectangle 3411" width="24" height="24" rx="12" transform="translate(538 512)" fill="#ece8f6"/>
    <path id="Icon_metro-suitcase" data-name="Icon metro-suitcase" d="M16.5,17.784H5.459a.96.96,0,0,1-.96-.96v-5.76A24.442,24.442,0,0,0,9.3,12.88v.584a.48.48,0,0,0,.48.48h2.4a.48.48,0,0,0,.48-.48V12.88a24.456,24.456,0,0,0,4.8-1.816v5.76A.96.96,0,0,1,16.5,17.784Zm-3.84-5.76a.48.48,0,0,0-.48-.48h-2.4a.48.48,0,0,0-.48.48v.43a24.043,24.043,0,0,1-4.8-1.87V8.664a.96.96,0,0,1,.96-.96h2.88v-.96a.96.96,0,0,1,.96-.96h3.36a.96.96,0,0,1,.96.96V7.7H16.5a.96.96,0,0,1,.96.96v1.92a24.057,24.057,0,0,1-4.8,1.87Zm0-4.8a.48.48,0,0,0-.48-.48h-2.4a.48.48,0,0,0-.48.48V7.7h3.36Z" transform="translate(539.501 512.216)" fill="#4a25a9"/>
  </g>
</svg>
