<svg xmlns="http://www.w3.org/2000/svg" width="30" height="30" viewBox="0 0 30 30">
  <g id="Group_8580" data-name="Group 8580" transform="translate(-841 -204)">
    <circle id="Ellipse_8" data-name="Ellipse 8" cx="15" cy="15" r="15" transform="translate(841 204)" fill="#8fcc21" opacity="0.2"/>
    <path id="Icon_awesome-check-double" data-name="Icon awesome-check-double" d="M17.75,6.144,16.358,4.752a.84.84,0,0,0-1.192,0L6.747,13.17,2.831,9.251a.84.84,0,0,0-1.192,0l-1.4,1.4a.844.844,0,0,0,0,1.2L6.15,17.75a.84.84,0,0,0,1.192,0l10.4-10.412A.848.848,0,0,0,17.75,6.144ZM6.35,9.87a.558.558,0,0,0,.794,0l7.311-7.318a.564.564,0,0,0,0-.794L12.867.164a.558.558,0,0,0-.794,0L6.747,5.49,4.8,3.539a.558.558,0,0,0-.794,0L2.413,5.131a.564.564,0,0,0,0,.794Z" transform="translate(847.003 210.002)" fill="#6c9a19"/>
  </g>
</svg>
