<svg xmlns="http://www.w3.org/2000/svg" width="24" height="24" viewBox="0 0 24 24">
  <g id="Group_8317" data-name="Group 8317" transform="translate(-1350 -30)">
    <rect id="Rectangle_269" data-name="Rectangle 269" width="24" height="24" rx="12" transform="translate(1350 30)" fill="#ece8f6"/>
    <path id="Icon_awesome-credit-card" data-name="Icon awesome-credit-card" d="M0,12a1.17,1.17,0,0,0,1.17,1.17h11.7A1.17,1.17,0,0,0,14.036,12V7.708H0ZM4.679,10.34a.293.293,0,0,1,.292-.292H8.285a.293.293,0,0,1,.292.292v.975a.293.293,0,0,1-.292.292H4.971a.293.293,0,0,1-.292-.292Zm-3.119,0a.293.293,0,0,1,.292-.292H3.606a.293.293,0,0,1,.292.292v.975a.293.293,0,0,1-.292.292H1.852a.293.293,0,0,1-.292-.292ZM14.036,3.42v1.17H0V3.42A1.17,1.17,0,0,1,1.17,2.25h11.7A1.17,1.17,0,0,1,14.036,3.42Z" transform="translate(1355 34.75)" fill="#4a25a9"/>
  </g>
</svg>
