<svg xmlns="http://www.w3.org/2000/svg" width="32" height="32" viewBox="0 0 32 32">
  <g id="eye" transform="translate(-1455 -443)">
    <rect id="Rectangle_13" data-name="Rectangle 13" width="32" height="32" transform="translate(1455 443)" fill="none"/>
    <path id="Icon_ionic-md-eye" data-name="Icon ionic-md-eye" d="M14.25,7.383a12.9,12.9,0,0,0-12,8.089,12.945,12.945,0,0,0,24,0A12.9,12.9,0,0,0,14.25,7.383Zm0,13.484A5.395,5.395,0,1,1,19.7,15.472,5.439,5.439,0,0,1,14.25,20.867Zm0-8.63a3.236,3.236,0,1,0,3.273,3.236A3.265,3.265,0,0,0,14.25,12.236Z" transform="translate(1456.75 443.255)" fill="#c7c7c7"/>
  </g>
</svg>
