<svg xmlns="http://www.w3.org/2000/svg" width="42" height="42" viewBox="0 0 42 42">
  <g id="Group_10580" data-name="Group 10580" transform="translate(-140 -347)">
    <circle id="Ellipse_16" data-name="Ellipse 16" cx="21" cy="21" r="21" transform="translate(140 347)" fill="#e9f5d2"/>
    <path id="Icon_awesome-users" data-name="Icon awesome-users" d="M4.2,10.65a2.8,2.8,0,1,0-2.8-2.8A2.8,2.8,0,0,0,4.2,10.65Zm19.6,0A2.8,2.8,0,1,0,21,7.85,2.8,2.8,0,0,0,23.8,10.65Zm1.4,1.4H22.4a2.792,2.792,0,0,0-1.973.814,6.4,6.4,0,0,1,3.286,4.786H26.6a1.4,1.4,0,0,0,1.4-1.4v-1.4A2.8,2.8,0,0,0,25.2,12.05Zm-11.2,0a4.9,4.9,0,1,0-4.9-4.9A4.9,4.9,0,0,0,14,12.05Zm3.36,1.4H17a6.765,6.765,0,0,1-5.994,0H10.64A5.041,5.041,0,0,0,5.6,18.49v1.26a2.1,2.1,0,0,0,2.1,2.1H20.3a2.1,2.1,0,0,0,2.1-2.1V18.49A5.041,5.041,0,0,0,17.36,13.45Zm-9.787-.586A2.792,2.792,0,0,0,5.6,12.05H2.8A2.8,2.8,0,0,0,0,14.85v1.4a1.4,1.4,0,0,0,1.4,1.4H4.283A6.416,6.416,0,0,1,7.573,12.864Z" transform="translate(147 355.949)" fill="#699718"/>
  </g>
</svg>
