<svg xmlns="http://www.w3.org/2000/svg" width="32" height="32" viewBox="0 0 32 32">
  <g id="icon_phone" transform="translate(-1113 -435)">
    <rect id="Rectangle_11" data-name="Rectangle 11" width="32" height="32" transform="translate(1113 435)" fill="none"/>
    <path id="Icon_awesome-phone-alt" data-name="Icon awesome-phone-alt" d="M23.315,16.96l-5.25-2.25a1.125,1.125,0,0,0-1.313.323l-2.325,2.841A17.375,17.375,0,0,1,6.122,9.568L8.963,7.243A1.122,1.122,0,0,0,9.286,5.93L7.036.68A1.133,1.133,0,0,0,5.747.029L.872,1.154A1.125,1.125,0,0,0,0,2.25,21.748,21.748,0,0,0,21.75,24a1.125,1.125,0,0,0,1.1-.872l1.125-4.875a1.139,1.139,0,0,0-.657-1.294Z" transform="translate(1117 439)" fill="#eee"/>
    <path id="Icon_awesome-phone-alt-2" data-name="Icon awesome-phone-alt" d="M23.315,16.96l-5.25-2.25a1.125,1.125,0,0,0-1.313.323l-2.325,2.841A17.375,17.375,0,0,1,6.122,9.568L8.963,7.243A1.122,1.122,0,0,0,9.286,5.93L7.036.68A1.133,1.133,0,0,0,5.747.029L.872,1.154A1.125,1.125,0,0,0,0,2.25,21.748,21.748,0,0,0,21.75,24a1.125,1.125,0,0,0,1.1-.872l1.125-4.875a1.139,1.139,0,0,0-.657-1.294Z" transform="translate(1117 439)" fill="none" stroke="#c6c6c6" stroke-width="2"/>
  </g>
</svg>
