<svg xmlns="http://www.w3.org/2000/svg" width="30" height="30" viewBox="0 0 30 30">
  <g id="Group_8713" data-name="Group 8713" transform="translate(-1070 -203)">
    <g id="Group_8711" data-name="Group 8711" transform="translate(271 -1)">
      <circle id="Ellipse_8" data-name="Ellipse 8" cx="15" cy="15" r="15" transform="translate(799 204)" fill="#09f"/>
    </g>
    <path id="Icon_awesome-book" data-name="Icon awesome-book" d="M13.028,10.469V.7a.7.7,0,0,0-.7-.7H2.792A2.792,2.792,0,0,0,0,2.792V12.1a2.792,2.792,0,0,0,2.792,2.792H12.33a.7.7,0,0,0,.7-.7v-.465a.7.7,0,0,0-.259-.544,6.485,6.485,0,0,1,0-2.172A.693.693,0,0,0,13.028,10.469ZM3.722,3.9A.175.175,0,0,1,3.9,3.722h6.165a.175.175,0,0,1,.174.174v.582a.175.175,0,0,1-.174.174H3.9a.175.175,0,0,1-.174-.174Zm0,1.861A.175.175,0,0,1,3.9,5.583h6.165a.175.175,0,0,1,.174.174v.582a.175.175,0,0,1-.174.174H3.9a.175.175,0,0,1-.174-.174Zm7.369,7.27h-8.3a.931.931,0,0,1,0-1.861h8.3A10.469,10.469,0,0,0,11.091,13.028Z" transform="translate(1078.486 210.556)" fill="#fff"/>
  </g>
</svg>
