<svg id="Group_9228" data-name="Group 9228" xmlns="http://www.w3.org/2000/svg" xmlns:xlink="http://www.w3.org/1999/xlink" width="302.549" height="306.893" viewBox="0 0 302.549 306.893">
  <defs>
    <clipPath id="clip-path">
      <rect id="Rectangle_3691" data-name="Rectangle 3691" width="302.549" height="306.893" fill="none"/>
    </clipPath>
  </defs>
  <g id="Group_9227" data-name="Group 9227" clip-path="url(#clip-path)">
    <path id="Path_7930" data-name="Path 7930" d="M134.415,26.906l-.071.069c-26.806,25.675-55.194,49.8-80,77.485-19.439,21.69-38.511,44.828-39.784,75.309C11.2,260.235,126.43,317.92,193.174,280.12c34.762-19.686,59.05-66.241,50.944-103.773-7.064-32.7-33.093-32.487-47.169-71.7-17.821-49.641,9.113-91.172-6.61-100.946-20.422-12.7-42.463,10.3-55.924,23.2" transform="translate(6.202 0)" fill="#f8f6fc"/>
    <path id="Path_7931" data-name="Path 7931" d="M157.782,217.5c2.144,1.121,4.316,2.192,6.524,3.191l.8-1.77c-3.081-1.392-6.1-2.923-9.05-4.559l-8.264-15.022a30.363,30.363,0,0,0-16.266-7.735c.121-1.144.271-2.3.5-3.558.61-3.393.918-7.03-.279-10.084-.22-.578-.558-1.177-1.115-1.275a1.365,1.365,0,0,0-1.01.314,5.716,5.716,0,0,0-1.718,3.876,27.033,27.033,0,0,0,.528,10.442c-.868-.036-1.741-.041-2.618,0q-2.547-2.59-4.959-5.316c.673-3.218,1.008-5.674,1.918-8.7.994-3.3,1.674-6.9.584-10.177a2.11,2.11,0,0,0-1.163-1.477,1.65,1.65,0,0,0-1.177.139,5.09,5.09,0,0,0-2.3,3.593,25.323,25.323,0,0,0,.953,15.249A137.6,137.6,0,0,1,108.41,169.6c.968-3.051,1.558-5.421,2.755-8.289,1.33-3.186,2.377-6.69,1.634-10.062a2.113,2.113,0,0,0-1-1.591,1.655,1.655,0,0,0-1.185.016,5.088,5.088,0,0,0-2.665,3.333,25.306,25.306,0,0,0-.783,14.61c-2.354-3.776-4.532-7.658-6.5-11.643.924-2.935,1.511-5.249,2.676-8.041,1.33-3.186,2.377-6.69,1.634-10.063a2.121,2.121,0,0,0-1-1.591,1.655,1.655,0,0,0-1.185.017,5.088,5.088,0,0,0-2.665,3.333,25.321,25.321,0,0,0-1.167,12.747q-2.419-5.283-4.36-10.761c1.327-2.9,2.2-5.17,3.733-7.861,1.711-3,3.179-6.35,2.854-9.787a2.111,2.111,0,0,0-.8-1.7,1.652,1.652,0,0,0-1.178-.129,5.085,5.085,0,0,0-3.052,2.982,25.314,25.314,0,0,0-2.7,13.1q-1.774-5.467-3.045-11.081a55.21,55.21,0,0,1,.276-5.944c.381-3.432.4-7.088-1.263-10.116A2.116,2.116,0,0,0,88,109.843a1.654,1.654,0,0,0-1.133.351,5.082,5.082,0,0,0-1.62,3.948,25.311,25.311,0,0,0,3.506,14.5,130.6,130.6,0,0,0,5.464,17.537,77.823,77.823,0,0,1-5.843-5.236c-2.552-2.622-5.513-5.11-9.015-5.856a2.1,2.1,0,0,0-1.894.26,1.615,1.615,0,0,0-.418,1.123,5.623,5.623,0,0,0,2.2,3.935,27.42,27.42,0,0,0,15.584,7.285q2.159,5.336,4.769,10.474c-2.719-1.374-4.943-2.384-7.539-4-3.1-1.932-6.573-3.64-10.15-3.529a2.106,2.106,0,0,0-1.778.707,1.615,1.615,0,0,0-.139,1.191,5.626,5.626,0,0,0,3.066,3.3,27.433,27.433,0,0,0,17.051,3.332,138.168,138.168,0,0,0,7.6,12.9c-2.9-.79-5.267-1.333-8.106-2.388-3.426-1.275-7.165-2.254-10.65-1.428a2.1,2.1,0,0,0-1.6,1.047,1.618,1.618,0,0,0,.1,1.2,5.637,5.637,0,0,0,3.669,2.616,27.436,27.436,0,0,0,17.227-.1,139.51,139.51,0,0,0,11.511,14.782c-2.525-1.338-4.643-2.377-7.087-3.973-3.059-2-6.49-3.786-10.07-3.755a2.1,2.1,0,0,0-1.792.667,1.617,1.617,0,0,0-.171,1.187,5.632,5.632,0,0,0,3,3.365,27.432,27.432,0,0,0,17.191,3.688q1.189,1.3,2.414,2.574c-5.14.77-10.434,3.512-12.007,8.278a2.022,2.022,0,0,0-1.228,1.361,1.622,1.622,0,0,0,.381,1.137c.087.089.193.151.284.233-.324,2.259-.634,4.594-2.611,5.414-2.479,1.03-4.879-1.527-7.424-2.379a5.132,5.132,0,0,0-3.321.054,27.436,27.436,0,0,0,.377-17.2,5.63,5.63,0,0,0-2.554-3.713,1.623,1.623,0,0,0-1.2-.117,2.1,2.1,0,0,0-1.073,1.582c-.884,3.471.033,7.227,1.254,10.674,1.073,3.026,1.568,5.5,2.385,8.666a137.907,137.907,0,0,0-12.038-7.649,27.432,27.432,0,0,0-7.451-15.9,5.632,5.632,0,0,0-3.953-2.165,1.627,1.627,0,0,0-1.115.434,2.1,2.1,0,0,0-.246,1.9c.773,3.5,3.283,6.437,5.92,8.969,2.107,2.021,3.593,3.853,5.467,6.013A139.629,139.629,0,0,0,66.2,189.222a27.422,27.422,0,0,0-3.778-16.806,5.626,5.626,0,0,0-3.372-2.989,1.621,1.621,0,0,0-1.188.176A2.1,2.1,0,0,0,57.2,171.4c-.02,3.581,1.774,7,3.785,10.059,1.667,2.534,2.728,4.716,4.15,7.365a137.938,137.938,0,0,0-14.283-4.509,27.424,27.424,0,0,0-7.078-15.864,5.627,5.627,0,0,0-3.9-2.254,1.622,1.622,0,0,0-1.128.408,2.1,2.1,0,0,0-.288,1.891c.7,3.513,3.138,6.508,5.716,9.1,2.154,2.165,3.635,4.1,5.584,6.443q-5.583-1.386-11.267-2.292a27.425,27.425,0,0,0-10.6-13.549,5.628,5.628,0,0,0-4.322-1.255,1.621,1.621,0,0,0-1,.667,2.1,2.1,0,0,0,.171,1.9c1.514,3.245,4.6,5.577,7.727,7.471a76.467,76.467,0,0,1,6.4,4.506,130.827,130.827,0,0,0-18.338-1.392,25.32,25.32,0,0,0-14.88-.15,5.089,5.089,0,0,0-3.485,2.465,1.652,1.652,0,0,0-.087,1.183,2.117,2.117,0,0,0,1.534,1.094c3.323.941,6.881.1,10.14-1.041a55.428,55.428,0,0,1,5.754-1.61c.13,0,.261-.009.391-.009q5.549,0,11.077.488a25.321,25.321,0,0,0-12.174,5.579,5.091,5.091,0,0,0-2.221,3.645,1.66,1.66,0,0,0,.388,1.115,2.108,2.108,0,0,0,1.838.4c3.425-.454,6.358-2.635,8.9-4.977,2.274-2.1,4.29-3.463,6.81-5.4q5.761.662,11.448,1.829A25.331,25.331,0,0,0,31.824,188.7a5.083,5.083,0,0,0-2.648,3.346,1.643,1.643,0,0,0,.249,1.16,2.116,2.116,0,0,0,1.777.62c3.453-.033,6.633-1.84,9.439-3.852,2.454-1.761,4.573-2.851,7.22-4.406,4.329,1.024,8.6,2.272,12.815,3.716a25.33,25.33,0,0,0-14.055,4.045,5.092,5.092,0,0,0-2.648,3.346,1.64,1.64,0,0,0,.249,1.158,2.115,2.115,0,0,0,1.775.621c3.455-.034,6.633-1.841,9.439-3.855,2.524-1.811,4.7-2.916,7.455-4.544a137.421,137.421,0,0,1,17.194,7.6,25.318,25.318,0,0,0-15.1,2.492A5.092,5.092,0,0,0,62,203.2a1.653,1.653,0,0,0,.13,1.178,2.117,2.117,0,0,0,1.7.8c3.438.324,6.787-1.144,9.787-2.856,2.744-1.565,5.056-2.445,8.036-3.819q5.57,3.027,10.844,6.553a27.025,27.025,0,0,0-14.245,1.461,5.72,5.72,0,0,0-3.391,2.546,1.367,1.367,0,0,0-.08,1.054c.22.517.884.717,1.5.806,3.246.481,6.715-.636,9.9-1.989,2.771-1.178,5.04-1.821,7.922-2.789q.555.386,1.107.777a6.018,6.018,0,0,0-2.119,6.335c.651,1.927,2.281,3.6,2.145,5.633-.184,2.764-3.6,4.2-6.335,3.776s-5.15-2.027-7.835-2.711-6.158,0-7.1,2.605c-.845,2.334.613,5.471-1.22,7.144a5,5,0,0,1-2.981.965c-23.237,2.205-48.829,6.374-46.229,10.5.711,1.13,2.528.77,3.86.748,49.46-.773,94.384-1.512,143.829,0Z" transform="translate(0 47.033)" fill="#dbd3ee"/>
    <path id="Path_7932" data-name="Path 7932" d="M106.1,231.5l163.037,2.221c1.824.024,7.572-1.755-2.334-8.141-8.391-5.411-34.906-.543-34.906-.543s6.173-2.474,6.144-5.668a8.66,8.66,0,0,0-5.356-7.327,19.875,19.875,0,0,0-9.4-1.243,59.92,59.92,0,0,0-18.944,4.239,5.494,5.494,0,1,0-6.371-8.921c4.072-5.516,10.37-29.959-8.982-40.735-24.256-13.5-42.673-2.391-46.608,5.736-2-7.978-11.147-14.018-17.177-15.516-13.749-3.413-22.7-2.4-35.538,3.592-4.542,2.122-10.621,9.363-13.639,13.364-4.727,6.265-5.8,14.592-5.724,22.44.214,22.554,17.625,25.075,17.767,30.968" transform="translate(30.098 65.794)" fill="#f1ebff"/>
    <path id="Path_7933" data-name="Path 7933" d="M149.779,60.924l88.669,28.414a8.733,8.733,0,0,1,5.65,10.98l-13.952,43.541a8.733,8.733,0,0,1-10.98,5.65L130.5,121.095a8.733,8.733,0,0,1-5.65-10.98L138.8,66.573a8.731,8.731,0,0,1,10.979-5.65" transform="translate(53.28 25.908)" fill="#dbd3ee"/>
    <rect id="Rectangle_3686" data-name="Rectangle 3686" width="13.51" height="110.574" transform="translate(186.73 109.174) rotate(-72.232)" fill="#4a25a9"/>
    <path id="Path_7934" data-name="Path 7934" d="M147.565,110.546l-15.659-5.017a5.52,5.52,0,0,1-3.572-6.94l2.525-7.879a5.518,5.518,0,0,1,6.94-3.57l15.659,5.017a5.52,5.52,0,0,1,3.572,6.94l-2.525,7.878a5.519,5.519,0,0,1-6.94,3.572" transform="translate(54.839 37.199)" fill="#fff"/>
    <rect id="Rectangle_3687" data-name="Rectangle 3687" width="25.502" height="41.656" transform="translate(114.013 259.329)" fill="#ffb432"/>
    <line id="Line_281" data-name="Line 281" x2="25.502" transform="translate(114.012 265.69)" fill="none" stroke="#e9a530" stroke-miterlimit="10" stroke-width="0.101"/>
    <line id="Line_282" data-name="Line 282" x2="25.502" transform="translate(114.012 272.689)" fill="none" stroke="#e9a530" stroke-miterlimit="10" stroke-width="0.378"/>
    <line id="Line_283" data-name="Line 283" x2="25.502" transform="translate(114.012 279.688)" fill="none" stroke="#e9a530" stroke-miterlimit="10" stroke-width="0.378"/>
    <line id="Line_284" data-name="Line 284" x2="25.502" transform="translate(114.012 286.687)" fill="none" stroke="#e9a530" stroke-miterlimit="10" stroke-width="0.378"/>
    <line id="Line_285" data-name="Line 285" x2="25.502" transform="translate(114.012 293.685)" fill="none" stroke="#e9a530" stroke-miterlimit="10" stroke-width="0.378"/>
    <path id="Path_7935" data-name="Path 7935" d="M109.489,215.849V222.8H70.566v-6.951a19.461,19.461,0,1,1,38.923,0" transform="translate(30.216 84.092)" fill="#9594a8"/>
    <rect id="Rectangle_3688" data-name="Rectangle 3688" width="38.923" height="5.863" transform="translate(100.779 301.031)" fill="#3a2372"/>
    <path id="Path_7936" data-name="Path 7936" d="M103.83,203.375c-.384,5.371-7.118,9.645-15.369,9.645-7.768,0-14.195-3.79-15.245-8.713a19.467,19.467,0,0,1,30.613-.931" transform="translate(31.351 84.092)" fill="#b6b6cf"/>
    <rect id="Rectangle_3689" data-name="Rectangle 3689" width="25.502" height="41.657" transform="matrix(0.869, -0.495, 0.495, 0.869, 139.885, 263.402)" fill="#ffb432"/>
    <line id="Line_286" data-name="Line 286" y1="12.612" x2="22.164" transform="translate(143.032 256.32)" fill="none" stroke="#e9a530" stroke-miterlimit="10" stroke-width="0.378"/>
    <line id="Line_287" data-name="Line 287" y1="12.612" x2="22.164" transform="translate(146.493 262.403)" fill="none" stroke="#e9a530" stroke-miterlimit="10" stroke-width="0.378"/>
    <line id="Line_288" data-name="Line 288" y1="12.612" x2="22.164" transform="translate(149.954 268.486)" fill="none" stroke="#e9a530" stroke-miterlimit="10" stroke-width="0.378"/>
    <line id="Line_289" data-name="Line 289" y1="12.612" x2="22.164" transform="translate(153.416 274.569)" fill="none" stroke="#e9a530" stroke-miterlimit="10" stroke-width="0.378"/>
    <line id="Line_290" data-name="Line 290" y1="12.612" x2="22.164" transform="translate(156.877 280.652)" fill="none" stroke="#e9a530" stroke-miterlimit="10" stroke-width="0.378"/>
    <path id="Path_7937" data-name="Path 7937" d="M146.6,198.617l3.438,6.041-33.828,19.251-3.439-6.043a19.461,19.461,0,1,1,33.83-19.249" transform="translate(47.198 80.833)" fill="#9594a8"/>
    <rect id="Rectangle_3690" data-name="Rectangle 3690" width="38.922" height="5.863" transform="translate(160.51 299.647) rotate(-29.641)" fill="#3a2372"/>
    <path id="Path_7938" data-name="Path 7938" d="M137.05,190.251c1.871,4.834-1.858,11.568-8.8,15.517-6.978,3.97-14.7,3.713-17.871-.424a19.463,19.463,0,0,1,26.67-15.093" transform="translate(47.264 80.833)" fill="#b6b6cf"/>
    <path id="Path_7939" data-name="Path 7939" d="M132.161,193.694H83.8a7.616,7.616,0,0,1-7.615-7.617v-7.4a7.615,7.615,0,0,1,7.615-7.615h48.357a7.616,7.616,0,0,1,7.617,7.615v7.4a7.617,7.617,0,0,1-7.617,7.617" transform="translate(32.624 73.249)" fill="#b6b6cf"/>
    <path id="Path_7940" data-name="Path 7940" d="M122.516,167.1H87.773a4.952,4.952,0,1,1,0-9.9h34.744a4.952,4.952,0,1,1,0,9.9" transform="translate(35.463 67.311)" fill="#46249b"/>
    <path id="Path_7941" data-name="Path 7941" d="M122.516,174.034H87.773a4.952,4.952,0,1,1,0-9.9h34.744a4.952,4.952,0,1,1,0,9.9" transform="translate(35.463 70.28)" fill="#46249b"/>
    <path id="Path_7942" data-name="Path 7942" d="M127.468,160.664h0a4.951,4.951,0,0,1-4.952,4.952H87.773a4.952,4.952,0,0,1-4.953-4.952Z" transform="translate(35.463 68.795)" fill="#42248e"/>
    <path id="Path_7943" data-name="Path 7943" d="M127.468,167.6h0a4.951,4.951,0,0,1-4.952,4.952H87.773A4.952,4.952,0,0,1,82.82,167.6Z" transform="translate(35.463 71.765)" fill="#42248e"/>
    <path id="Path_7944" data-name="Path 7944" d="M139.778,181.577a7.617,7.617,0,0,1-7.617,7.617H83.806a7.617,7.617,0,0,1-7.617-7.617Z" transform="translate(32.624 77.75)" fill="#9594a8"/>
    <path id="Path_7945" data-name="Path 7945" d="M77.192,145.823a10.644,10.644,0,1,1-1.464-1.714,10.645,10.645,0,0,1,1.464,1.714" transform="translate(24.736 60.459)" fill="#e9a530"/>
    <path id="Path_7946" data-name="Path 7946" d="M75.728,144.11a10.646,10.646,0,0,1-17.168,11.765A10.645,10.645,0,0,1,75.728,144.11" transform="translate(24.736 60.459)" fill="#ffb432"/>
    <path id="Path_7947" data-name="Path 7947" d="M58.672,202.088a48.459,48.459,0,0,1,1.91-51s8.1-3.928,8.381,7.292a37.444,37.444,0,0,0-1.17,37.484c-.711,10.633-9.12,6.218-9.12,6.218" transform="translate(22.409 64.412)" fill="#a6a5bc"/>
    <path id="Path_7948" data-name="Path 7948" d="M86.784,189.518q.424.617.786,1.258l-7.685,5.266a8.246,8.246,0,0,0-.73-1.3,8.634,8.634,0,0,0-14.245,9.76,8.2,8.2,0,0,0,.945,1.148l-7.682,5.264q-.465-.57-.888-1.187a17.88,17.88,0,1,1,29.5-20.215" transform="translate(23.187 77.822)" fill="#3a2372"/>
    <path id="Path_7949" data-name="Path 7949" d="M135.876,145.162a10.643,10.643,0,1,1,.516-2.194,10.648,10.648,0,0,1-.516,2.194" transform="translate(49.319 56.092)" fill="#e9a530"/>
    <path id="Path_7950" data-name="Path 7950" d="M135.945,142.968a10.646,10.646,0,0,1-19.643-6.88,10.646,10.646,0,0,1,19.643,6.88" transform="translate(49.764 56.092)" fill="#ffb432"/>
    <path id="Path_7951" data-name="Path 7951" d="M161.472,120.771a37.443,37.443,0,0,1-30.91,21.237c-8.881,6.862-.92,11.07-.92,11.07a48.453,48.453,0,0,0,42.239-28.634s-1.417-9.392-10.409-3.673" transform="translate(54.107 50.923)" fill="#a6a5bc"/>
    <path id="Path_7952" data-name="Path 7952" d="M147.041,106.548q.248-.707.548-1.378l8.793,3.079a8.317,8.317,0,0,0-.613,1.357,8.634,8.634,0,0,0,16.3,5.707,8.159,8.159,0,0,0,.367-1.442l8.789,3.078q-.184.713-.431,1.42a17.88,17.88,0,1,1-33.751-11.82" transform="translate(62.53 45.033)" fill="#3a2372"/>
    <path id="Path_7953" data-name="Path 7953" d="M106.387,61.17A17.871,17.871,0,0,0,91.64,81.7L81.076,83.427A28.578,28.578,0,0,1,104.656,50.6Z" transform="translate(34.553 21.668)" fill="#a6a5bc"/>
    <path id="Path_7954" data-name="Path 7954" d="M133.517,50.436l-2.4-14.613-14.618,2.4-1,1.4-3.092,4.312-4.312-3.1-1.4-1.01-14.619,2.4,2.4,14.612,1.4,1.01,4.312,3.1-3.093,4.3-1.01,1.4,2.4,14.619,14.612-2.4,4.106-5.714,4.312,3.1,1.4,1.01,1.7-.279,8.811-1.438,4.1-.673-2.4-14.623-1.4-1-4.306-3.093,3.093-4.31Z" transform="translate(39.428 15.339)" fill="#c7c7e3"/>
    <path id="Path_7955" data-name="Path 7955" d="M109.365,45.38l1.444,8.809L102,55.633,96.87,51.948l-1.444-8.811,8.809-1.442Z" transform="translate(40.861 17.854)" fill="#4a25a9"/>
    <path id="Path_7956" data-name="Path 7956" d="M120.758,39.168l1.444,8.809-3.68,5.13-8.811,1.442-1.442-8.809,3.68-5.129Z" transform="translate(46.36 16.772)" fill="#ffb432"/>
    <path id="Path_7957" data-name="Path 7957" d="M123.718,55.693l1.444,8.815-8.8,1.438-5.13-3.686-1.444-8.809,8.811-1.444Z" transform="translate(47.009 22.269)" fill="#4a25a9"/>
    <path id="Path_7958" data-name="Path 7958" d="M110.448,53.526l1.442,8.8-3.685,5.13L99.4,68.9l-1.442-8.809,3.685-5.124Z" transform="translate(41.943 22.92)" fill="#4a25a9"/>
    <path id="Path_7959" data-name="Path 7959" d="M143.612,167.132,80.037,177.549a7.617,7.617,0,0,1-8.748-6.284l-2.956-18.042a7.617,7.617,0,0,1,6.284-8.748l63.575-10.417a7.616,7.616,0,0,1,8.748,6.284l2.956,18.042a7.616,7.616,0,0,1-6.284,8.748" transform="translate(29.217 57.359)" fill="#b6b6cf"/>
    <path id="Path_7960" data-name="Path 7960" d="M147.914,144.556l1.522,9.289a7.617,7.617,0,0,1-6.284,8.748L79.578,173.01a7.616,7.616,0,0,1-8.748-6.284l-1.522-9.289Z" transform="translate(29.677 61.898)" fill="#9594a8"/>
    <path id="Path_7961" data-name="Path 7961" d="M84.987,153.215a5.78,5.78,0,1,1-6.638-4.769,5.78,5.78,0,0,1,6.638,4.769" transform="translate(31.474 63.531)" fill="#8fcc21"/>
    <path id="Path_7962" data-name="Path 7962" d="M96.567,151.318a5.78,5.78,0,1,1-6.638-4.769,5.78,5.78,0,0,1,6.638,4.769" transform="translate(36.432 62.718)" fill="#ea1c24"/>
    <path id="Path_7963" data-name="Path 7963" d="M127.734,149.066,100.668,153.5a2.6,2.6,0,1,1-.841-5.132l27.066-4.436a2.6,2.6,0,0,1,.841,5.133" transform="translate(41.811 61.617)" fill="#fff"/>
    <path id="Path_7964" data-name="Path 7964" d="M114.253,132.656a15.912,15.912,0,1,1-18.274-13.134,15.917,15.917,0,0,1,18.274,13.134" transform="translate(35.384 51.088)" fill="#e9a530"/>
    <path id="Path_7965" data-name="Path 7965" d="M114.253,132.656a15.917,15.917,0,0,1,.194,1.928,17.9,17.9,0,0,1-31.17,5.107,15.912,15.912,0,1,1,30.976-7.035" transform="translate(35.384 51.088)" fill="#ffb432"/>
    <path id="Path_7966" data-name="Path 7966" d="M156.02,150.4,73.695,163.888A18.734,18.734,0,0,1,52.178,148.43L44.8,103.387A18.734,18.734,0,0,1,60.256,81.869l82.325-13.491A18.736,18.736,0,0,1,164.1,83.837l7.381,45.044A18.735,18.735,0,0,1,156.02,150.4" transform="translate(19.075 29.173)" fill="#c7c7e3"/>
    <path id="Path_7967" data-name="Path 7967" d="M166.966,97.091l3.178,19.389A18.736,18.736,0,0,1,154.685,138L72.36,151.487a18.733,18.733,0,0,1-21.517-15.459L47.665,116.64Z" transform="translate(20.41 41.574)" fill="#b6b6cf"/>
    <path id="Path_7968" data-name="Path 7968" d="M146.336,133.533,70.279,146a7.616,7.616,0,0,1-8.746-6.284L54.887,99.159a7.618,7.618,0,0,1,6.284-8.748l76.057-12.462a7.618,7.618,0,0,1,8.748,6.285l6.644,40.551a7.616,7.616,0,0,1-6.284,8.748" transform="translate(23.459 33.334)" fill="#4a25a9"/>
    <path id="Path_7969" data-name="Path 7969" d="M86.134,101.67a9.359,9.359,0,1,1-10.749-7.722,9.359,9.359,0,0,1,10.749,7.722" transform="translate(28.92 40.174)" fill="#ffcd32"/>
    <path id="Path_7970" data-name="Path 7970" d="M114.875,96.961a9.359,9.359,0,1,1-10.749-7.722,9.359,9.359,0,0,1,10.749,7.722" transform="translate(41.226 38.158)" fill="#ffcd32"/>
    <path id="Path_7971" data-name="Path 7971" d="M94.885,118.774a10.672,10.672,0,0,1-12.242-8.795,1.3,1.3,0,0,1,2.566-.42,8.059,8.059,0,1,0,15.906-2.606,1.3,1.3,0,1,1,2.565-.421,10.671,10.671,0,0,1-8.795,12.242" transform="translate(35.38 45.15)" fill="#ffcd32"/>
    <path id="Path_7972" data-name="Path 7972" d="M54.887,99.159a7.617,7.617,0,0,1,6.284-8.748l76.057-12.462a7.618,7.618,0,0,1,8.748,6.284Z" transform="translate(23.459 33.334)" fill="#42248e"/>
  </g>
</svg>
