<svg id="Group_9201" data-name="Group 9201" xmlns="http://www.w3.org/2000/svg" xmlns:xlink="http://www.w3.org/1999/xlink" width="501.744" height="440.003" viewBox="0 0 501.744 440.003">
  <defs>
    <clipPath id="clip-path">
      <rect id="Rectangle_3663" data-name="Rectangle 3663" width="501.744" height="440.003" fill="none"/>
    </clipPath>
    <clipPath id="clip-path-3">
      <rect id="Rectangle_3647" data-name="Rectangle 3647" width="158.759" height="156.811" fill="none"/>
    </clipPath>
    <clipPath id="clip-path-4">
      <rect id="Rectangle_3648" data-name="Rectangle 3648" width="128.67" height="74.449" fill="none"/>
    </clipPath>
    <clipPath id="clip-path-5">
      <rect id="Rectangle_3649" data-name="Rectangle 3649" width="215.836" height="87.488" fill="none"/>
    </clipPath>
    <clipPath id="clip-path-6">
      <rect id="Rectangle_3650" data-name="Rectangle 3650" width="200.787" height="136.901" fill="none"/>
    </clipPath>
    <clipPath id="clip-path-7">
      <rect id="Rectangle_3652" data-name="Rectangle 3652" width="139.361" height="91.661" fill="none"/>
    </clipPath>
    <clipPath id="clip-path-8">
      <rect id="Rectangle_3654" data-name="Rectangle 3654" width="141.589" height="81.032" fill="none"/>
    </clipPath>
    <clipPath id="clip-path-9">
      <rect id="Rectangle_3659" data-name="Rectangle 3659" width="56.413" height="100.924" fill="none"/>
    </clipPath>
  </defs>
  <g id="Group_9200" data-name="Group 9200" clip-path="url(#clip-path)">
    <g id="Group_9199" data-name="Group 9199">
      <g id="Group_9198" data-name="Group 9198" clip-path="url(#clip-path)">
        <path id="Path_7660" data-name="Path 7660" d="M248.291,59.957c23.16,17.027,43.251,38.568,60.539,61.156a460.9,460.9,0,0,1,34.493,52.4c10.028,17.636,19.478,39.117,10.727,57.421-5.982,12.513-18.9,19.835-30.022,28.123a143.968,143.968,0,0,0-53.279,80.349c-3.507,14.289-5.718,30.667-17.554,39.406-13.441,9.925-32.365,4.919-47.847-1.364-36.047-14.63-69.976-34.041-102.677-55.113-9.149-5.9-18.336-12.033-25.462-20.263S65.155,283.147,66.051,272.3c1.64-19.87,21-33.087,29.943-50.906a52.587,52.587,0,0,0-2.461-50.628c-6.9-10.951-17.678-18.956-25.069-29.583C52.733,118.568,55.3,86.2,71.018,63.579c29.869-43.007,85.9-46.091,131.092-29.071a192.923,192.923,0,0,1,46.181,25.45" transform="translate(11.142 4.788)" fill="#f2f0f9"/>
        <path id="Path_7661" data-name="Path 7661" d="M259.6,347.63c-.432-9.448-3.361-104.406,63.8-148.091,28.123-18.292,68.8-30.324,102.253-21.908,47.849,12.037,20.655,70.35-7.642,88.1-30.7,19.252-69.177,13.52-97.323,37.244-14.834,12.5-25.966,28.84-34.309,46.233L259.6,347.63" transform="translate(49.954 33.672)" fill="#f2f0f9"/>
        <g id="Group_9179" data-name="Group 9179" transform="translate(319.57 221.936)" opacity="0.05">
          <g id="Group_9178" data-name="Group 9178">
            <g id="Group_9177" data-name="Group 9177" clip-path="url(#clip-path-3)">
              <path id="Path_7662" data-name="Path 7662" d="M269.477,339.088S303.35,205.941,424.658,196.7" transform="translate(-267.688 -184.065)" fill="none" stroke="#130041" stroke-linecap="round" stroke-miterlimit="10" stroke-width="3"/>
              <path id="Path_7663" data-name="Path 7663" d="M378.224,187.6s-8.133,9.043-10.763,18.52c0,0,9.187,8.881,21,10.754" transform="translate(-248.823 -185.816)" fill="none" stroke="#130041" stroke-linecap="round" stroke-miterlimit="10" stroke-width="3"/>
              <path id="Path_7664" data-name="Path 7664" d="M345.075,194.241s-6.867,14.031-7.963,28.479a52.626,52.626,0,0,0,26.081,8.845" transform="translate(-254.666 -184.539)" fill="none" stroke="#130041" stroke-linecap="round" stroke-miterlimit="10" stroke-width="3"/>
              <path id="Path_7665" data-name="Path 7665" d="M311.159,215.348s-2.057,16.007,2.91,27.122c0,0,10.311,2.277,28.12,0" transform="translate(-259.744 -180.475)" fill="none" stroke="#130041" stroke-linecap="round" stroke-miterlimit="10" stroke-width="3"/>
            </g>
          </g>
        </g>
        <path id="Path_7666" data-name="Path 7666" d="M258.767,347.614c1.7-5.977,19.635-65.75,70.574-78.99,21.33-5.544,49.176-4.576,68.269,7.631,27.307,17.459-1.772,48.13-23.1,53.3-23.133,5.606-45.915-5.975-68.389,2.949-11.844,4.7-22.181,12.566-31,21.666l-16.359-6.555" transform="translate(49.82 51.094)" fill="#dbd3ee"/>
        <g id="Group_9182" data-name="Group 9182" transform="translate(315.426 325.915)" opacity="0.05">
          <g id="Group_9181" data-name="Group 9181">
            <g id="Group_9180" data-name="Group 9180" clip-path="url(#clip-path-4)">
              <path id="Path_7667" data-name="Path 7667" d="M265.487,344.367s48.815-75.908,126.32-56.419" transform="translate(-264.312 -271.093)" fill="none" stroke="#130041" stroke-linecap="round" stroke-miterlimit="10" stroke-width="1.971"/>
              <path id="Path_7668" data-name="Path 7668" d="M360.607,276.953s-6.95,3.941-10.56,9.3c0,0,3.876,7.445,10.847,11.071" transform="translate(-248.032 -272.594)" fill="none" stroke="#130041" stroke-linecap="round" stroke-miterlimit="10" stroke-width="1.971"/>
              <path id="Path_7669" data-name="Path 7669" d="M338.907,274.283s-7.2,7.314-10.888,16.087a34.576,34.576,0,0,0,14.408,10.938" transform="translate(-252.273 -273.108)" fill="none" stroke="#130041" stroke-linecap="round" stroke-miterlimit="10" stroke-width="1.971"/>
              <path id="Path_7670" data-name="Path 7670" d="M313.017,280.628s-4.613,9.545-3.832,17.5c0,0,5.951,3.564,17.521,5.853" transform="translate(-255.916 -271.886)" fill="none" stroke="#130041" stroke-linecap="round" stroke-miterlimit="10" stroke-width="1.971"/>
            </g>
          </g>
        </g>
        <path id="Path_7671" data-name="Path 7671" d="M89.648,186.8c9.537,52.073,45.791,98.436,94.026,120.25l.978-2.164c-47.5-21.462-83.293-67.24-92.668-118.512Z" transform="translate(17.26 35.883)" fill="#dbd3ee"/>
        <path id="Path_7672" data-name="Path 7672" d="M93.647,199.808a30.968,30.968,0,0,1-6.218-20.646,6.219,6.219,0,0,1,1.981-4.829,2.023,2.023,0,0,1,1.385-.428,2.582,2.582,0,0,1,1.726,1.52c2.034,3.7,2.011,8.174,1.544,12.371s-.258,7.4-.416,12.011" transform="translate(16.821 33.481)" fill="#dbd3ee"/>
        <path id="Path_7673" data-name="Path 7673" d="M96.657,211.594a30.976,30.976,0,0,1,2.48-21.419,6.222,6.222,0,0,1,3.734-3.647,2.012,2.012,0,0,1,1.441.156,2.581,2.581,0,0,1,.979,2.081c.4,4.2-1.4,8.3-3.488,11.968s-3.173,6.695-5.146,10.86" transform="translate(18.438 35.899)" fill="#dbd3ee"/>
        <path id="Path_7674" data-name="Path 7674" d="M103.123,226.7a30.988,30.988,0,0,1-.157-21.562,6.225,6.225,0,0,1,3.26-4.077,2.017,2.017,0,0,1,1.449-.02,2.589,2.589,0,0,1,1.228,1.946c.909,4.124-.372,8.409-2,12.306s-2.33,7.032-3.78,11.408" transform="translate(19.466 38.682)" fill="#dbd3ee"/>
        <path id="Path_7675" data-name="Path 7675" d="M111.152,240.417a30.975,30.975,0,0,1-.157-21.562,6.225,6.225,0,0,1,3.26-4.077,2.017,2.017,0,0,1,1.449-.02,2.586,2.586,0,0,1,1.228,1.946c.909,4.124-.372,8.409-2,12.306s-2.33,7.032-3.78,11.408" transform="translate(21.012 41.323)" fill="#dbd3ee"/>
        <path id="Path_7676" data-name="Path 7676" d="M102.373,215.409A33.565,33.565,0,0,1,81.7,206.315a6.884,6.884,0,0,1-2.684-4.813,1.978,1.978,0,0,1,.51-1.373,2.576,2.576,0,0,1,2.317-.318c4.281.912,7.9,3.954,11.025,7.162s5.858,5.2,9.5,8.443" transform="translate(15.212 38.442)" fill="#dbd3ee"/>
        <path id="Path_7677" data-name="Path 7677" d="M108.041,225.983a33.562,33.562,0,0,1-22.249-3.895,6.889,6.889,0,0,1-3.752-4.032,1.987,1.987,0,0,1,.171-1.457,2.573,2.573,0,0,1,2.174-.863C88.76,215.6,93,217.687,96.8,220.05s6.93,3.657,11.242,5.933" transform="translate(15.782 41.533)" fill="#dbd3ee"/>
        <path id="Path_7678" data-name="Path 7678" d="M116.777,239.164A33.56,33.56,0,0,1,94.2,239.8a6.886,6.886,0,0,1-4.487-3.2,1.979,1.979,0,0,1-.117-1.462,2.564,2.564,0,0,1,1.956-1.281c4.262-1.009,8.834.187,13.025,1.746s7.522,2.2,12.2,3.563" transform="translate(17.232 44.952)" fill="#dbd3ee"/>
        <path id="Path_7679" data-name="Path 7679" d="M129.14,256.688a33.563,33.563,0,0,1-22.164-4.39,6.89,6.89,0,0,1-3.666-4.114,1.985,1.985,0,0,1,.21-1.453,2.572,2.572,0,0,1,2.193-.816c4.378-.039,8.572,2.145,12.314,4.591s6.848,3.811,11.108,6.181" transform="translate(19.88 47.343)" fill="#dbd3ee"/>
        <path id="Path_7680" data-name="Path 7680" d="M140.264,265.487a33.56,33.56,0,0,1-21.761,6.055,6.89,6.89,0,0,1-5.127-2.024,1.981,1.981,0,0,1-.467-1.392c.1-.791.853-1.337,1.591-1.715,3.892-2,8.62-1.945,13.063-1.444s7.83.318,12.7.512" transform="translate(21.738 50.957)" fill="#c3ecfe"/>
        <path id="Path_7681" data-name="Path 7681" d="M12.554,248.465q3.463-.157,6.929-.157c49.768-.006,99.19,24.212,129.372,63.836l1.889-1.438c-30.667-40.238-80.726-64.766-131.26-64.772q-3.519,0-7.037.159Z" transform="translate(2.396 47.349)" fill="#dbd3ee"/>
        <path id="Path_7682" data-name="Path 7682" d="M25.971,247.419A30.982,30.982,0,0,0,4.454,246a6.227,6.227,0,0,0-4.262,3.014,2.016,2.016,0,0,0-.1,1.447A2.583,2.583,0,0,0,1.962,251.8c4.065,1.151,8.416.123,12.4-1.274s7.16-1.913,11.61-3.1" transform="translate(0 47.113)" fill="#dbd3ee"/>
        <path id="Path_7683" data-name="Path 7683" d="M37.975,248.084a30.982,30.982,0,0,0-20.315,7.229,6.22,6.22,0,0,0-2.717,4.458,2.009,2.009,0,0,0,.477,1.364,2.581,2.581,0,0,0,2.247.488c4.187-.556,7.776-3.223,10.879-6.088s5.812-4.6,9.428-7.454" transform="translate(2.877 47.763)" fill="#dbd3ee"/>
        <path id="Path_7684" data-name="Path 7684" d="M54.21,250.885a30.983,30.983,0,0,0-21.047,4.683,6.221,6.221,0,0,0-3.24,4.093,2.017,2.017,0,0,0,.305,1.418,2.586,2.586,0,0,0,2.173.757c4.223-.039,8.11-2.249,11.542-4.711s6.328-3.852,10.266-6.248" transform="translate(5.756 48.247)" fill="#dbd3ee"/>
        <path id="Path_7685" data-name="Path 7685" d="M69.381,255.626a30.983,30.983,0,0,0-21.046,4.69,6.217,6.217,0,0,0-3.239,4.092,2.012,2.012,0,0,0,.305,1.417,2.582,2.582,0,0,0,2.17.76c4.224-.042,8.11-2.251,11.542-4.713s6.328-3.852,10.266-6.245" transform="translate(8.678 49.16)" fill="#dbd3ee"/>
        <path id="Path_7686" data-name="Path 7686" d="M88.655,264.563a30.977,30.977,0,0,0-21.419,2.485,6.225,6.225,0,0,0-3.647,3.734,2.016,2.016,0,0,0,.159,1.442,2.587,2.587,0,0,0,2.08.98c4.2.4,8.3-1.4,11.968-3.492s6.694-3.175,10.859-5.149" transform="translate(12.23 50.765)" fill="#dbd3ee"/>
        <path id="Path_7687" data-name="Path 7687" d="M101.942,272.39a33.062,33.062,0,0,0-21,1.012,7,7,0,0,0-4.146,3.115,1.671,1.671,0,0,0-.1,1.289c.268.633,1.08.877,1.829.985,3.969.589,8.212-.776,12.1-2.433s6.975-2.446,11.316-3.969" transform="translate(14.751 52.203)" fill="#dbd3ee"/>
        <path id="Path_7688" data-name="Path 7688" d="M43.182,252.1A33.566,33.566,0,0,0,29.674,234a6.876,6.876,0,0,0-5.285-1.534,1.974,1.974,0,0,0-1.221.814,2.569,2.569,0,0,0,.21,2.329c1.851,3.968,5.626,6.82,9.448,9.135s6.388,4.536,10.363,7.361" transform="translate(4.425 44.745)" fill="#dbd3ee"/>
        <path id="Path_7689" data-name="Path 7689" d="M54.754,255.246a33.56,33.56,0,0,0-8.8-20.8,6.878,6.878,0,0,0-4.774-2.755,1.977,1.977,0,0,0-1.379.5,2.572,2.572,0,0,0-.353,2.312c.851,4.3,3.838,7.959,6.989,11.126s5.115,5.933,8.307,9.623" transform="translate(7.57 44.607)" fill="#dbd3ee"/>
        <path id="Path_7690" data-name="Path 7690" d="M69.5,260.815a33.557,33.557,0,0,0-4.456-22.145,6.881,6.881,0,0,0-4.125-3.655,1.975,1.975,0,0,0-1.452.215,2.567,2.567,0,0,0-.807,2.194c-.026,4.378,2.168,8.566,4.627,12.3s3.829,6.837,6.213,11.082" transform="translate(11.29 45.237)" fill="#dbd3ee"/>
        <path id="Path_7691" data-name="Path 7691" d="M89.411,268.913a33.568,33.568,0,0,0-9.254-20.606,6.883,6.883,0,0,0-4.833-2.647,1.985,1.985,0,0,0-1.364.529,2.567,2.567,0,0,0-.3,2.319c.946,4.275,4.015,7.871,7.241,10.968s5.251,5.817,8.524,9.436" transform="translate(14.152 47.297)" fill="#dbd3ee"/>
        <path id="Path_7692" data-name="Path 7692" d="M100.292,277.835A33.565,33.565,0,0,0,101.3,255.27a6.885,6.885,0,0,0-3.123-4.54,1.976,1.976,0,0,0-1.462-.143,2.567,2.567,0,0,0-1.312,1.935c-1.082,4.243.041,8.837,1.534,13.052s2.07,7.558,3.359,12.26" transform="translate(18.286 48.23)" fill="#dbd3ee"/>
        <path id="Path_7693" data-name="Path 7693" d="M176.127,267.269a37.127,37.127,0,0,0-28.692-9.687c-7.012.708-14.662,4.454-16.2,11.333-.735,3.275-.477,7.62-3.58,8.906-3.034,1.26-5.966-1.866-9.079-2.91-5.185-1.739-11.1,4.189-9.354,9.377.8,2.356,2.789,4.409,2.625,6.889-.225,3.38-4.4,5.142-7.748,4.617s-6.3-2.477-9.582-3.314-7.532,0-8.684,3.186c-1.034,2.854.75,6.69-1.492,8.735a6.116,6.116,0,0,1-3.646,1.181c-28.417,2.7-59.714,7.794-56.534,12.842.869,1.382,3.091.942,4.721.916,60.486-.946,115.424-1.85,175.891,0" transform="translate(4.609 49.56)" fill="#dbd3ee"/>
        <path id="Path_7694" data-name="Path 7694" d="M324.624,366.3H139.958a15.585,15.585,0,0,1-15.585-15.585V78.607a15.585,15.585,0,0,1,15.585-15.585H324.624a15.585,15.585,0,0,1,15.585,15.585v272.1A15.585,15.585,0,0,1,324.624,366.3" transform="translate(23.945 12.134)" fill="#4a25a9"/>
        <g id="Group_9185" data-name="Group 9185" transform="translate(148.318 290.941)" opacity="0.1">
          <g id="Group_9184" data-name="Group 9184">
            <g id="Group_9183" data-name="Group 9183" clip-path="url(#clip-path-5)">
              <path id="Path_7695" data-name="Path 7695" d="M340.209,243.97v71.9a15.586,15.586,0,0,1-15.585,15.586H139.958a15.586,15.586,0,0,1-15.585-15.586v-71.9" transform="translate(-124.373 -243.97)"/>
            </g>
          </g>
        </g>
        <path id="Path_7696" data-name="Path 7696" d="M316.05,359.594H146.433a15.585,15.585,0,0,1-15.585-15.585V83.659a15.585,15.585,0,0,1,15.585-15.585H316.05a15.585,15.585,0,0,1,15.585,15.585V344.009a15.585,15.585,0,0,1-15.585,15.585" transform="translate(25.192 13.106)" fill="#fff"/>
        <g id="Group_9188" data-name="Group 9188" transform="translate(156.04 235.799)" opacity="0.02">
          <g id="Group_9187" data-name="Group 9187">
            <g id="Group_9186" data-name="Group 9186" clip-path="url(#clip-path-6)">
              <path id="Path_7697" data-name="Path 7697" d="M331.635,197.73V319.046a15.585,15.585,0,0,1-15.585,15.585H146.433a15.585,15.585,0,0,1-15.585-15.585V197.73" transform="translate(-130.848 -197.73)"/>
            </g>
          </g>
        </g>
        <path id="Path_7698" data-name="Path 7698" d="M278.453,176.919H86.189a8.373,8.373,0,0,1-8.373-8.373V118.073a8.374,8.374,0,0,1,8.373-8.373H278.453a8.373,8.373,0,0,1,8.373,8.373v50.474a8.372,8.372,0,0,1-8.373,8.373" transform="translate(14.982 21.12)" fill="#dbd3ee"/>
        <path id="Path_7699" data-name="Path 7699" d="M117.509,159.464H90.367V124.01h35.442v26.522" transform="translate(17.398 23.876)" fill="#fff"/>
        <path id="Path_7700" data-name="Path 7700" d="M121.427,146.253h-8.3v8.928Z" transform="translate(21.78 28.158)" fill="#f0f1f1"/>
        <path id="Path_7701" data-name="Path 7701" d="M256.384,131.755H139.541a2.5,2.5,0,1,1,0-4.992H256.384a2.5,2.5,0,1,1,0,4.992" transform="translate(26.385 24.406)" fill="#f0f1f1"/>
        <path id="Path_7702" data-name="Path 7702" d="M256.384,140.94H139.541a2.5,2.5,0,1,1,0-4.992H256.384a2.5,2.5,0,1,1,0,4.992" transform="translate(26.385 26.174)" fill="#f0f1f1"/>
        <path id="Path_7703" data-name="Path 7703" d="M256.384,149.811H139.541a2.5,2.5,0,0,1,0-4.992H256.384a2.5,2.5,0,0,1,0,4.992" transform="translate(26.385 27.882)" fill="#f0f1f1"/>
        <path id="Path_7704" data-name="Path 7704" d="M262.926,173.357h84.026V112.705H262.926Zm16.063-3.661a3.15,3.15,0,0,1-2.266.942h-5.116a3.2,3.2,0,1,1,0-6.4h5.116a3.2,3.2,0,0,1,2.266,5.462m15.1,0a3.15,3.15,0,0,1-2.266.942h-5.116a3.2,3.2,0,1,1,0-6.4h5.116a3.2,3.2,0,0,1,2.266,5.462m15.111,0a3.2,3.2,0,0,1-2.267.942H301.8a3.2,3.2,0,1,1,0-6.4h5.128a3.2,3.2,0,0,1,3.2,3.2,3.236,3.236,0,0,1-.93,2.266m15.1,0a3.189,3.189,0,0,1-2.266.942H316.9a3.2,3.2,0,1,1,0-6.4h5.128a3.2,3.2,0,0,1,3.2,3.2,3.232,3.232,0,0,1-.931,2.266m15.1,0a3.191,3.191,0,0,1-2.266.942H332a3.2,3.2,0,1,1,0-6.4h5.128a3.2,3.2,0,0,1,3.2,3.2,3.231,3.231,0,0,1-.93,2.266m-9.659-53.258A3.191,3.191,0,0,1,332,115.5h5.128a3.2,3.2,0,0,1,0,6.392H332a3.2,3.2,0,0,1-2.266-5.45m-15.1,0a3.191,3.191,0,0,1,2.266-.942h5.128a3.2,3.2,0,0,1,0,6.392H316.9a3.2,3.2,0,0,1-2.266-5.45m-15.1,0a3.191,3.191,0,0,1,2.266-.942h5.128a3.2,3.2,0,1,1,0,6.392H301.8a3.2,3.2,0,0,1-2.266-5.45m-15.1,0a3.191,3.191,0,0,1,2.266-.942h5.116a3.2,3.2,0,0,1,3.208,3.2,3.217,3.217,0,0,1-3.208,3.2h-5.116a3.2,3.2,0,0,1-2.266-5.45m-15.1,0a3.191,3.191,0,0,1,2.266-.942h5.116a3.2,3.2,0,0,1,3.208,3.2,3.217,3.217,0,0,1-3.208,3.2h-5.116a3.2,3.2,0,0,1-2.266-5.45" transform="translate(50.621 21.699)" fill="#ffd998"/>
        <path id="Path_7705" data-name="Path 7705" d="M306.1,139.487l-14.512-8.379v16.757Z" transform="translate(56.14 25.242)" fill="#ff7600"/>
        <g id="Group_9191" data-name="Group 9191" transform="translate(171.408 219.926)" opacity="0.03" style="mix-blend-mode: multiply;isolation: isolate">
          <g id="Group_9190" data-name="Group 9190">
            <g id="Group_9189" data-name="Group 9189" clip-path="url(#clip-path-7)">
              <rect id="Rectangle_3651" data-name="Rectangle 3651" width="135.784" height="88.083" rx="7.073" transform="translate(1.789 1.79)"/>
              <path id="Path_7706" data-name="Path 7706" d="M272.873,188a6.646,6.646,0,0,1,6.646,6.646v71.213a6.646,6.646,0,0,1-6.646,6.646H153.959a6.646,6.646,0,0,1-6.646-6.646V194.644A6.646,6.646,0,0,1,153.959,188Zm0-3.578H153.959a10.235,10.235,0,0,0-10.224,10.224v71.213a10.235,10.235,0,0,0,10.224,10.224H272.873A10.235,10.235,0,0,0,283.1,265.857V194.644a10.235,10.235,0,0,0-10.224-10.224" transform="translate(-143.735 -184.42)"/>
            </g>
          </g>
        </g>
        <rect id="Rectangle_3653" data-name="Rectangle 3653" width="135.784" height="88.083" rx="7.073" transform="translate(168.126 216.645)" fill="#e5e6e7"/>
        <path id="Path_7707" data-name="Path 7707" d="M268.621,183.747a6.645,6.645,0,0,1,6.646,6.646v71.213a6.647,6.647,0,0,1-6.646,6.646H149.707a6.647,6.647,0,0,1-6.646-6.646V190.393a6.645,6.645,0,0,1,6.646-6.646Zm0-3.578H149.707a10.235,10.235,0,0,0-10.224,10.224v71.213a10.235,10.235,0,0,0,10.224,10.224H268.621a10.235,10.235,0,0,0,10.224-10.224V190.393a10.235,10.235,0,0,0-10.224-10.224" transform="translate(26.855 34.688)" fill="#bcbec0"/>
        <path id="Path_7708" data-name="Path 7708" d="M286.857,198.773a7.385,7.385,0,1,1-7.385-7.385,7.386,7.386,0,0,1,7.385,7.385" transform="translate(52.385 36.848)" fill="#f2f0f9"/>
        <path id="Path_7709" data-name="Path 7709" d="M286.857,217.626a7.385,7.385,0,1,1-7.385-7.385,7.386,7.386,0,0,1,7.385,7.385" transform="translate(52.385 40.478)" fill="#dbd3ee"/>
        <path id="Path_7710" data-name="Path 7710" d="M286.857,237.25a7.385,7.385,0,1,1-7.385-7.385,7.386,7.386,0,0,1,7.385,7.385" transform="translate(52.385 44.256)" fill="#c3b7df"/>
        <path id="Path_7711" data-name="Path 7711" d="M298.269,388.487H175.2a6.7,6.7,0,0,1-6.7-6.7V274.275a6.7,6.7,0,0,1,6.7-6.7H298.269a6.7,6.7,0,0,1,6.7,6.7V381.783a6.7,6.7,0,0,1-6.7,6.7" transform="translate(32.441 51.515)" fill="#f0f1f1"/>
        <path id="Path_7712" data-name="Path 7712" d="M257.481,285.856H181.536a2.5,2.5,0,1,1,0-4.992h75.945a2.5,2.5,0,1,1,0,4.992" transform="translate(34.47 54.075)" fill="#d0d2d3"/>
        <path id="Path_7713" data-name="Path 7713" d="M275.005,284.261a8.074,8.074,0,1,1-8.075-8.075,8.075,8.075,0,0,1,8.075,8.075" transform="translate(49.838 53.174)" fill="#ffd998"/>
        <path id="Path_7714" data-name="Path 7714" d="M275.005,284.261a8.074,8.074,0,1,1-8.075-8.075A8.075,8.075,0,0,1,275.005,284.261Z" transform="translate(49.838 53.174)" fill="none" stroke="#f0f1f1" stroke-linecap="round" stroke-miterlimit="10" stroke-width="1"/>
        <path id="Path_7715" data-name="Path 7715" d="M261.547,283.408l3.29,3.29,6.442-6.442" transform="translate(50.355 53.957)" fill="#ffd998"/>
        <path id="Path_7716" data-name="Path 7716" d="M261.547,283.408l3.29,3.29,6.442-6.442" transform="translate(50.355 53.957)" fill="none" stroke="#f0f1f1" stroke-linecap="round" stroke-miterlimit="10" stroke-width="1"/>
        <path id="Path_7717" data-name="Path 7717" d="M257.481,309.4H181.536a2.5,2.5,0,0,1,0-4.992h75.945a2.5,2.5,0,1,1,0,4.992" transform="translate(34.47 58.607)" fill="#d0d2d3"/>
        <path id="Path_7718" data-name="Path 7718" d="M275.005,307.8a8.074,8.074,0,1,1-8.075-8.075,8.075,8.075,0,0,1,8.075,8.075" transform="translate(49.838 57.706)" fill="#ffd998"/>
        <path id="Path_7719" data-name="Path 7719" d="M275.005,307.8a8.074,8.074,0,1,1-8.075-8.075A8.075,8.075,0,0,1,275.005,307.8Z" transform="translate(49.838 57.706)" fill="none" stroke="#f0f1f1" stroke-linecap="round" stroke-miterlimit="10" stroke-width="1"/>
        <path id="Path_7720" data-name="Path 7720" d="M261.547,306.949l3.29,3.29,6.442-6.442" transform="translate(50.355 58.49)" fill="#ffd998"/>
        <path id="Path_7721" data-name="Path 7721" d="M261.547,306.949l3.29,3.29,6.442-6.442" transform="translate(50.355 58.49)" fill="none" stroke="#f0f1f1" stroke-linecap="round" stroke-miterlimit="10" stroke-width="1"/>
        <path id="Path_7722" data-name="Path 7722" d="M257.481,356.48H181.536a2.5,2.5,0,1,1,0-4.992h75.945a2.5,2.5,0,1,1,0,4.992" transform="translate(34.47 67.672)" fill="#d0d2d3"/>
        <path id="Path_7723" data-name="Path 7723" d="M275.005,354.885a8.074,8.074,0,1,1-8.075-8.075,8.075,8.075,0,0,1,8.075,8.075" transform="translate(49.838 66.771)" fill="#ffd998"/>
        <path id="Path_7724" data-name="Path 7724" d="M275.005,354.885a8.074,8.074,0,1,1-8.075-8.075A8.075,8.075,0,0,1,275.005,354.885Z" transform="translate(49.838 66.771)" fill="none" stroke="#f0f1f1" stroke-linecap="round" stroke-miterlimit="10" stroke-width="1"/>
        <path id="Path_7725" data-name="Path 7725" d="M261.547,354.031l3.29,3.29,6.442-6.442" transform="translate(50.355 67.555)" fill="#ffd998"/>
        <path id="Path_7726" data-name="Path 7726" d="M261.547,354.031l3.29,3.29,6.442-6.442" transform="translate(50.355 67.555)" fill="none" stroke="#f0f1f1" stroke-linecap="round" stroke-miterlimit="10" stroke-width="1"/>
        <path id="Path_7727" data-name="Path 7727" d="M257.481,332.938H181.536a2.5,2.5,0,1,1,0-4.992h75.945a2.5,2.5,0,1,1,0,4.992" transform="translate(34.47 63.139)" fill="#d0d2d3"/>
        <path id="Path_7728" data-name="Path 7728" d="M275.005,331.344a8.074,8.074,0,1,1-8.075-8.075,8.075,8.075,0,0,1,8.075,8.075" transform="translate(49.838 62.239)" fill="#ffd998"/>
        <path id="Path_7729" data-name="Path 7729" d="M275.005,331.344a8.074,8.074,0,1,1-8.075-8.075A8.075,8.075,0,0,1,275.005,331.344Z" transform="translate(49.838 62.239)" fill="none" stroke="#f0f1f1" stroke-linecap="round" stroke-miterlimit="10" stroke-width="1"/>
        <line id="Line_243" data-name="Line 243" y1="6.442" x2="6.442" transform="translate(313.548 390.361)" fill="#ffd998"/>
        <line id="Line_244" data-name="Line 244" y1="6.442" x2="6.442" transform="translate(313.548 390.361)" fill="none" stroke="#f0f1f1" stroke-linecap="round" stroke-miterlimit="10" stroke-width="1"/>
        <line id="Line_245" data-name="Line 245" x2="6.442" y2="6.442" transform="translate(313.548 390.361)" fill="#ffd998"/>
        <line id="Line_246" data-name="Line 246" x2="6.442" y2="6.442" transform="translate(313.548 390.361)" fill="none" stroke="#f0f1f1" stroke-linecap="round" stroke-miterlimit="10" stroke-width="1"/>
        <path id="Path_7730" data-name="Path 7730" d="M206.544,193.015H149.327a2.5,2.5,0,0,1,0-4.992h57.218a2.5,2.5,0,0,1,0,4.992" transform="translate(28.269 36.2)" fill="#bcbec0"/>
        <path id="Path_7731" data-name="Path 7731" d="M206.544,202.2H149.327a2.5,2.5,0,0,1,0-4.992h57.218a2.5,2.5,0,0,1,0,4.992" transform="translate(28.269 37.969)" fill="#bcbec0"/>
        <path id="Path_7732" data-name="Path 7732" d="M206.544,211.071H149.327a2.5,2.5,0,0,1,0-4.992h57.218a2.5,2.5,0,0,1,0,4.992" transform="translate(28.269 39.676)" fill="#bcbec0"/>
        <path id="Path_7733" data-name="Path 7733" d="M163.277,90.149a11.361,11.361,0,1,1-11.361-11.361,11.361,11.361,0,0,1,11.361,11.361" transform="translate(27.061 15.169)" fill="#e5e6e7"/>
        <path id="Path_7734" data-name="Path 7734" d="M190.808,90.149a11.361,11.361,0,1,1-11.361-11.361,11.361,11.361,0,0,1,11.361,11.361" transform="translate(32.362 15.169)" fill="#e5e6e7"/>
        <path id="Path_7735" data-name="Path 7735" d="M217.986,90.149a11.361,11.361,0,1,1-11.361-11.361,11.361,11.361,0,0,1,11.361,11.361" transform="translate(37.594 15.169)" fill="#e5e6e7"/>
        <path id="Path_7736" data-name="Path 7736" d="M328.459,61.258l-2.946,7.573-1.407,3.6-12.748,32.759-52.28-7.549L215.443,67.853l12.82-32.938,1.336-3.423,2.946-7.573Z" transform="translate(41.479 4.605)" fill="#c3b7df"/>
        <g id="Group_9194" data-name="Group 9194" transform="translate(253.189 3.578)" opacity="0.1">
          <g id="Group_9193" data-name="Group 9193">
            <g id="Group_9192" data-name="Group 9192" clip-path="url(#clip-path-8)">
              <path id="Path_7737" data-name="Path 7737" d="M353.9,69.221l-27.786,3.637-1.407,3.6L266.74,84.032l-37.875-45.09L230.2,35.52,212.313,14.234,298.283,3Z" transform="translate(-212.313 -3)"/>
            </g>
          </g>
        </g>
        <path id="Path_7738" data-name="Path 7738" d="M358.1,69.31l-3.78.489-27.786,3.637-58.184,7.6L230.619,36.1,212.731,14.811l-2.588-3.089L299.893,0Z" transform="translate(40.459 0)" fill="#dbd3ee"/>
        <path id="Path_7739" data-name="Path 7739" d="M296.36,112.017a1.192,1.192,0,0,1-1.193-1.193V69.18L271.392,34.846a1.193,1.193,0,1,1,1.962-1.358l24.2,34.947v42.39a1.192,1.192,0,0,1-1.193,1.193" transform="translate(52.21 6.348)" fill="#4a25a9"/>
        <path id="Path_7740" data-name="Path 7740" d="M276.055,34.513a3.336,3.336,0,1,1-3.337-3.337,3.337,3.337,0,0,1,3.337,3.337" transform="translate(51.864 6.002)" fill="#4a25a9"/>
        <path id="Path_7741" data-name="Path 7741" d="M291.106,98.271l-2.132,3.692a2.176,2.176,0,0,0,1.884,3.264h4.264a2.176,2.176,0,0,0,1.883-3.264l-2.131-3.692a2.176,2.176,0,0,0-3.768,0" transform="translate(55.579 18.711)" fill="#4a25a9"/>
        <path id="Path_7742" data-name="Path 7742" d="M143.143,306.951l-34.829-.113a5.486,5.486,0,0,1-5.468-5.5l.018-5.327a5.485,5.485,0,0,1,5.5-5.468l34.828.113a5.484,5.484,0,0,1,5.468,5.5l-.017,5.327a5.486,5.486,0,0,1-5.5,5.468" transform="translate(19.801 55.937)" fill="#b6b6cf"/>
        <path id="Path_7743" data-name="Path 7743" d="M137.2,285.8l-25.024-.081a3.567,3.567,0,0,1,.023-7.134l25.024.082a3.566,3.566,0,0,1-.023,7.133" transform="translate(20.913 53.637)" fill="#46249b"/>
        <path id="Path_7744" data-name="Path 7744" d="M137.185,291.786l-25.024-.081a3.567,3.567,0,0,1,.023-7.134l25.024.082a3.566,3.566,0,1,1-.023,7.133" transform="translate(20.91 54.788)" fill="#46249b"/>
        <path id="Path_7745" data-name="Path 7745" d="M102.678,269.023a7.671,7.671,0,1,1-.261-1.6,7.667,7.667,0,0,1,.261,1.6" transform="translate(16.818 50.4)" fill="#e9a530"/>
        <path id="Path_7746" data-name="Path 7746" d="M102.4,267.42a7.667,7.667,0,0,1-14.967.824,7.667,7.667,0,0,1,14.967-.824" transform="translate(16.834 50.4)" fill="#ffb432"/>
        <path id="Path_7747" data-name="Path 7747" d="M70.565,297.357a34.9,34.9,0,0,1,20.24-30.68s6.458.612,2.434,7.623A26.964,26.964,0,0,0,78.5,296.939c-4.414,6.28-7.94.419-7.94.419" transform="translate(13.586 51.343)" fill="#a6a5bc"/>
        <path id="Path_7748" data-name="Path 7748" d="M89.37,303.859c.02.359.024.715.014,1.069l-6.7.368a5.923,5.923,0,0,0,.035-1.071,6.218,6.218,0,0,0-12.418.685,5.885,5.885,0,0,0,.153,1.06l-6.7.368q-.073-.524-.1-1.063a12.879,12.879,0,1,1,25.718-1.417" transform="translate(12.251 56.159)" fill="#3a2372"/>
        <path id="Path_7749" data-name="Path 7749" d="M158.907,265.926a7.671,7.671,0,1,1-.261-1.6,7.67,7.67,0,0,1,.261,1.6" transform="translate(27.644 49.804)" fill="#e9a530"/>
        <path id="Path_7750" data-name="Path 7750" d="M158.63,264.324a7.667,7.667,0,0,1-14.967.824,7.667,7.667,0,0,1,14.967-.824" transform="translate(27.659 49.804)" fill="#ffb432"/>
        <path id="Path_7751" data-name="Path 7751" d="M169.106,241.762A26.969,26.969,0,0,1,154.372,264.4c-4.024,7.011,2.433,7.623,2.433,7.623a34.9,34.9,0,0,0,20.241-30.68s-3.527-5.861-7.94.419" transform="translate(29.467 45.987)" fill="#a6a5bc"/>
        <path id="Path_7752" data-name="Path 7752" d="M158.524,231.852c-.02-.359-.024-.716-.014-1.069l6.7-.368a5.921,5.921,0,0,0-.035,1.071,6.218,6.218,0,0,0,12.418-.685,5.886,5.886,0,0,0-.153-1.06l6.7-.368q.073.524.1,1.063a12.879,12.879,0,1,1-25.718,1.417" transform="translate(30.517 44.161)" fill="#3a2372"/>
        <path id="Path_7753" data-name="Path 7753" d="M126.679,193.512a12.872,12.872,0,0,0-9.7,15.4l-7.52,1.708a20.584,20.584,0,0,1,15.514-24.63Z" transform="translate(20.974 35.809)" fill="#a6a5bc"/>
        <path id="Path_7754" data-name="Path 7754" d="M147.35,182.515l-2.362-10.4-10.4,2.362-.659,1.052-2.034,3.235-3.235-2.038-1.049-.664-10.4,2.362,2.361,10.4,1.049.663,3.235,2.038-2.034,3.232-.664,1.049,2.362,10.4,10.4-2.362,2.7-4.288,3.235,2.038,1.049.664,1.208-.274,6.272-1.42,2.922-.663L148.936,189.5l-1.049-.661-3.231-2.034,2.034-3.235Z" transform="translate(22.565 33.137)" fill="#c7c7e3"/>
        <path id="Path_7755" data-name="Path 7755" d="M130.327,180.53l1.424,6.27-6.27,1.424-3.849-2.424-1.424-6.27,6.27-1.424Z" transform="translate(23.143 34.29)" fill="#4a25a9"/>
        <path id="Path_7756" data-name="Path 7756" d="M140.011,175.12l1.424,6.27-2.421,3.848-6.27,1.424-1.424-6.27,2.421-3.848Z" transform="translate(25.283 33.716)" fill="#ffb432"/>
        <path id="Path_7757" data-name="Path 7757" d="M143.226,188.655l1.425,6.274-6.268,1.419-3.849-2.424-1.424-6.27,6.27-1.424Z" transform="translate(25.628 35.855)" fill="#4a25a9"/>
        <path id="Path_7758" data-name="Path 7758" d="M131.888,188.024l1.423,6.267-2.424,3.849-6.27,1.424-1.424-6.27,2.426-3.846Z" transform="translate(23.718 36.2)" fill="#4a25a9"/>
        <path id="Path_7759" data-name="Path 7759" d="M150.655,283.3l-46.33,2.551a5.485,5.485,0,0,1-5.779-5.176l-.724-13.148A5.485,5.485,0,0,1,103,261.748l46.33-2.551a5.485,5.485,0,0,1,5.779,5.176l.724,13.148a5.485,5.485,0,0,1-5.176,5.779" transform="translate(18.832 49.901)" fill="#b6b6cf"/>
        <path id="Path_7760" data-name="Path 7760" d="M155.4,268.885l.373,6.769a5.486,5.486,0,0,1-5.176,5.779l-46.331,2.552a5.487,5.487,0,0,1-5.779-5.176l-.372-6.77Z" transform="translate(18.89 51.768)" fill="#9594a8"/>
        <path id="Path_7761" data-name="Path 7761" d="M110.12,271.742a4.163,4.163,0,1,1-4.385-3.928,4.163,4.163,0,0,1,4.385,3.928" transform="translate(19.6 51.561)" fill="#8fcc21"/>
        <path id="Path_7762" data-name="Path 7762" d="M120.227,271.186a4.163,4.163,0,1,1-4.386-3.928,4.163,4.163,0,0,1,4.386,3.928" transform="translate(21.545 51.454)" fill="#ea1c24"/>
        <path id="Path_7763" data-name="Path 7763" d="M144.55,271.507l-19.724,1.086a1.873,1.873,0,1,1-.206-3.741l19.724-1.086a1.873,1.873,0,0,1,.206,3.741" transform="translate(23.652 51.552)" fill="#fff"/>
        <rect id="Rectangle_3655" data-name="Rectangle 3655" width="30.003" height="18.367" transform="translate(126.294 387.286) rotate(-89.813)" fill="#ffb432"/>
        <line id="Line_247" data-name="Line 247" x2="18.367" y2="0.06" transform="translate(126.377 361.866)" fill="none" stroke="#e9a530" stroke-miterlimit="10" stroke-width="0.087"/>
        <line id="Line_248" data-name="Line 248" x2="18.367" y2="0.06" transform="translate(126.361 366.907)" fill="none" stroke="#e9a530" stroke-miterlimit="10" stroke-width="0.087"/>
        <line id="Line_249" data-name="Line 249" x2="18.367" y2="0.06" transform="translate(126.344 371.948)" fill="none" stroke="#e9a530" stroke-miterlimit="10" stroke-width="0.087"/>
        <line id="Line_250" data-name="Line 250" x2="18.367" y2="0.06" transform="translate(126.328 376.989)" fill="none" stroke="#e9a530" stroke-miterlimit="10" stroke-width="0.087"/>
        <line id="Line_251" data-name="Line 251" x2="18.367" y2="0.06" transform="translate(126.312 382.03)" fill="none" stroke="#e9a530" stroke-miterlimit="10" stroke-width="0.087"/>
        <path id="Path_7764" data-name="Path 7764" d="M125.952,326.451l-.017,5.006L97.9,331.367l.016-5.007a14.017,14.017,0,0,1,28.034.092" transform="translate(18.849 60.144)" fill="#9594a8"/>
        <rect id="Rectangle_3656" data-name="Rectangle 3656" width="4.223" height="28.034" transform="translate(116.75 391.511) rotate(-89.812)" fill="#3a2372"/>
        <path id="Path_7765" data-name="Path 7765" d="M122.276,317.457c-.289,3.867-5.149,6.93-11.092,6.911-5.6-.018-10.214-2.763-10.958-6.312a14.02,14.02,0,0,1,22.05-.6" transform="translate(19.296 60.144)" fill="#b6b6cf"/>
        <path id="Path_7766" data-name="Path 7766" d="M134.533,255.187a11.336,11.336,0,0,1-.01,1.4,11.46,11.46,0,0,1-22.715,1.251,11.247,11.247,0,0,1-.162-1.386,11.461,11.461,0,1,1,22.887-1.26" transform="translate(21.492 47.045)" fill="#e9a530"/>
        <path id="Path_7767" data-name="Path 7767" d="M134.533,255.187a11.336,11.336,0,0,1-.01,1.4,12.892,12.892,0,0,1-22.715,1.251,11.247,11.247,0,0,1-.162-1.386,11.461,11.461,0,1,1,22.887-1.26" transform="translate(21.492 47.045)" fill="#ffb432"/>
        <rect id="Rectangle_3657" data-name="Rectangle 3657" width="30.003" height="18.367" transform="translate(146.236 387.351) rotate(-89.813)" fill="#ffb432"/>
        <line id="Line_252" data-name="Line 252" x2="18.367" y2="0.06" transform="translate(146.319 361.931)" fill="none" stroke="#e9a530" stroke-miterlimit="10" stroke-width="0.087"/>
        <line id="Line_253" data-name="Line 253" x2="18.367" y2="0.06" transform="translate(146.303 366.972)" fill="none" stroke="#e9a530" stroke-miterlimit="10" stroke-width="0.087"/>
        <line id="Line_254" data-name="Line 254" x2="18.367" y2="0.06" transform="translate(146.287 372.013)" fill="none" stroke="#e9a530" stroke-miterlimit="10" stroke-width="0.087"/>
        <line id="Line_255" data-name="Line 255" x2="18.367" y2="0.06" transform="translate(146.27 377.054)" fill="none" stroke="#e9a530" stroke-miterlimit="10" stroke-width="0.087"/>
        <line id="Line_256" data-name="Line 256" x2="18.367" y2="0.06" transform="translate(146.254 382.095)" fill="none" stroke="#e9a530" stroke-miterlimit="10" stroke-width="0.087"/>
        <path id="Path_7768" data-name="Path 7768" d="M150.666,326.531l-.017,5.006-28.033-.091.016-5.007a14.017,14.017,0,1,1,28.034.092" transform="translate(23.607 60.159)" fill="#9594a8"/>
        <rect id="Rectangle_3658" data-name="Rectangle 3658" width="4.223" height="28.034" transform="translate(146.223 391.607) rotate(-89.812)" fill="#3a2372"/>
        <path id="Path_7769" data-name="Path 7769" d="M147.243,317.906c-.563,3.691-5.306,6.563-11.057,6.543-5.783-.019-10.517-2.948-11.014-6.667a14.019,14.019,0,0,1,22.071.124" transform="translate(24.099 60.16)" fill="#b6b6cf"/>
        <path id="Path_7770" data-name="Path 7770" d="M161.259,258.837l-58.595,13.306a13.493,13.493,0,0,1-16.146-10.17l-7.28-32.059a13.494,13.494,0,0,1,10.17-16.147L148,200.462a13.494,13.494,0,0,1,16.148,10.17l7.28,32.059a13.494,13.494,0,0,1-10.17,16.147" transform="translate(15.19 38.53)" fill="#c7c7e3"/>
        <path id="Path_7771" data-name="Path 7771" d="M167.57,224.247l3.134,13.8a13.493,13.493,0,0,1-10.17,16.147L101.941,267.5a13.493,13.493,0,0,1-16.147-10.17l-3.134-13.8Z" transform="translate(15.914 43.174)" fill="#b6b6cf"/>
        <path id="Path_7772" data-name="Path 7772" d="M155.178,248.3,101.046,260.6a5.485,5.485,0,0,1-6.564-4.134L87.928,227.6a5.484,5.484,0,0,1,4.135-6.564l54.131-12.294a5.487,5.487,0,0,1,6.565,4.134l6.554,28.863a5.486,5.486,0,0,1-4.135,6.564" transform="translate(16.902 40.163)" fill="#4a25a9"/>
        <path id="Path_7773" data-name="Path 7773" d="M112.529,229.668a6.741,6.741,0,1,1-8.066-5.08,6.741,6.741,0,0,1,8.066,5.08" transform="translate(19.101 43.207)" fill="#ffcd32"/>
        <path id="Path_7774" data-name="Path 7774" d="M137.027,224.105a6.741,6.741,0,1,1-8.066-5.08,6.741,6.741,0,0,1,8.066,5.08" transform="translate(23.818 42.136)" fill="#ffcd32"/>
        <path id="Path_7775" data-name="Path 7775" d="M121.847,243.174a7.685,7.685,0,0,1-9.186-5.786.936.936,0,0,1,1.826-.415,5.8,5.8,0,1,0,11.321-2.571.936.936,0,0,1,1.826-.414,7.685,7.685,0,0,1-5.786,9.186" transform="translate(21.686 44.909)" fill="#ffcd32"/>
        <path id="Path_7776" data-name="Path 7776" d="M87.928,227.6a5.485,5.485,0,0,1,4.135-6.564L146.2,208.743a5.486,5.486,0,0,1,6.564,4.135Z" transform="translate(16.902 40.163)" fill="#42248e"/>
        <path id="Path_7777" data-name="Path 7777" d="M140.783,281.675h0a3.566,3.566,0,0,1-3.578,3.555l-25.025-.081a3.568,3.568,0,0,1-3.555-3.579Z" transform="translate(20.913 54.21)" fill="#42248e"/>
        <path id="Path_7778" data-name="Path 7778" d="M140.763,287.657h0a3.566,3.566,0,0,1-3.578,3.555l-25.025-.081a3.568,3.568,0,0,1-3.555-3.579Z" transform="translate(20.91 55.362)" fill="#42248e"/>
        <path id="Path_7779" data-name="Path 7779" d="M148.646,299.74a5.486,5.486,0,0,1-5.5,5.468l-34.829-.113a5.485,5.485,0,0,1-5.467-5.5Z" transform="translate(19.801 57.68)" fill="#9594a8"/>
        <path id="Path_7780" data-name="Path 7780" d="M158.008,278.123l-6.227-3.3,55.406-99.2,1.006.531,1.009.529Z" transform="translate(29.222 33.813)" fill="#ffd998"/>
        <g id="Group_9197" data-name="Group 9197" transform="translate(181.003 209.437)" opacity="0.05">
          <g id="Group_9196" data-name="Group 9196">
            <g id="Group_9195" data-name="Group 9195" clip-path="url(#clip-path-9)">
              <path id="Path_7781" data-name="Path 7781" d="M155.036,276.548l-3.254-1.724,55.406-99.2,1.005.531Z" transform="translate(-151.781 -175.624)"/>
            </g>
          </g>
        </g>
        <rect id="Rectangle_3660" data-name="Rectangle 3660" width="47.442" height="30.164" transform="translate(246.146 224.909)" fill="#fff"/>
        <path id="Path_7782" data-name="Path 7782" d="M206.407,216.359l13.3-13.3,7.42,7.419,5.929-5.93,11.69,11.69" transform="translate(39.739 39.095)" fill="#dbd3ee"/>
        <path id="Path_7783" data-name="Path 7783" d="M242.093,198.094a3.807,3.807,0,1,1-3.807-3.807,3.806,3.806,0,0,1,3.807,3.807" transform="translate(45.144 37.406)" fill="#ffb432"/>
        <rect id="Rectangle_3661" data-name="Rectangle 3661" width="47.442" height="30.164" transform="translate(246.146 262.895)" fill="#fff"/>
        <path id="Path_7784" data-name="Path 7784" d="M206.407,248.213l13.3-13.3,7.42,7.419,5.929-5.93,11.69,11.69" transform="translate(39.739 45.228)" fill="#dbd3ee"/>
        <path id="Path_7785" data-name="Path 7785" d="M242.093,229.948a3.807,3.807,0,1,1-3.807-3.808,3.806,3.806,0,0,1,3.807,3.808" transform="translate(45.144 43.539)" fill="#ffb432"/>
      </g>
    </g>
  </g>
</svg>
