<svg xmlns="http://www.w3.org/2000/svg" width="24" height="24" viewBox="0 0 24 24">
  <g id="phone_blue_icn" transform="translate(-2730 14803)">
    <rect id="Rectangle_269" data-name="Rectangle 269" width="24" height="24" rx="12" transform="translate(2730 -14803)" fill="#ece8f6"/>
    <path id="Icon_awesome-phone" data-name="Icon awesome-phone" d="M11.563.576,9.126.014a.566.566,0,0,0-.645.326L7.356,2.964a.561.561,0,0,0,.162.656l1.42,1.162A8.686,8.686,0,0,1,4.785,8.936L3.623,7.516a.562.562,0,0,0-.656-.162L.342,8.479a.569.569,0,0,0-.328.647l.562,2.437A.562.562,0,0,0,1.124,12,10.874,10.874,0,0,0,12,1.124.562.562,0,0,0,11.563.576Z" transform="translate(2736.001 -14796.999)" fill="#4a25a9"/>
  </g>
</svg>
