<svg id="price_img" xmlns="http://www.w3.org/2000/svg" xmlns:xlink="http://www.w3.org/1999/xlink" width="235.509" height="241.519" viewBox="0 0 235.509 241.519">
  <defs>
    <clipPath id="clip-path">
      <rect id="Rectangle_3685" data-name="Rectangle 3685" width="235.509" height="241.519" fill="none"/>
    </clipPath>
    <clipPath id="clip-path-3">
      <rect id="Rectangle_3678" data-name="Rectangle 3678" width="120.957" height="44.542" fill="none"/>
    </clipPath>
    <clipPath id="clip-path-4">
      <rect id="Rectangle_3679" data-name="Rectangle 3679" width="101.328" height="87.993" fill="none"/>
    </clipPath>
  </defs>
  <g id="Group_9225" data-name="Group 9225" clip-path="url(#clip-path)">
    <g id="Group_9224" data-name="Group 9224">
      <g id="Group_9223" data-name="Group 9223" clip-path="url(#clip-path)">
        <path id="Path_7867" data-name="Path 7867" d="M200.994,156.963c6.6-20.3,15-41.359,14.254-61.817-.711-19.514-7.912-39.088-21.943-52.959-13.652-13.495-31.87-20.51-49.444-27.306C130.9,9.867,118.6,1.79,104.527.19,92-1.236,82.394,5.529,75.145,15.131c-8.622,11.423-15.9,24.43-23.995,36.392C39.519,68.7,28.287,86.19,18.333,104.407,10,119.662.712,136.287.033,154.083c-.721,18.924,10.3,30.018,25.884,38.687,15.926,8.857,32.149,17.218,47.547,26.964,12.447,7.879,24.7,16.817,39.03,20.238,17.181,4.1,35.507-.349,51.123-8.6,9.017-4.765,17.608-11.037,22.791-19.821,9.293-15.749,8.955-37.256,14.584-54.585" transform="translate(0 0)" fill="#f8f6fc"/>
        <path id="Path_7868" data-name="Path 7868" d="M151.9,258.7c-1.691.884-3.4,1.729-5.144,2.515l-.631-1.395c2.43-1.1,4.806-2.3,7.136-3.595l6.516-11.843a23.931,23.931,0,0,1,12.824-6.1c-.1-.9-.213-1.81-.392-2.8-.481-2.675-.725-5.543.22-7.951.174-.456.44-.928.879-1.006a1.075,1.075,0,0,1,.8.248,4.509,4.509,0,0,1,1.355,3.056,21.308,21.308,0,0,1-.418,8.232c.686-.028,1.374-.032,2.064,0q2.01-2.043,3.91-4.191c-.53-2.537-.795-4.473-1.513-6.86-.783-2.606-1.319-5.439-.46-8.024a1.668,1.668,0,0,1,.917-1.165,1.3,1.3,0,0,1,.928.11,4.012,4.012,0,0,1,1.817,2.833,19.972,19.972,0,0,1-.751,12.022,108.585,108.585,0,0,0,8.874-11.841c-.764-2.406-1.229-4.274-2.173-6.535-1.049-2.513-1.874-5.275-1.288-7.934a1.669,1.669,0,0,1,.792-1.254,1.3,1.3,0,0,1,.934.013,4.013,4.013,0,0,1,2.1,2.628,19.954,19.954,0,0,1,.617,11.518c1.855-2.976,3.572-6.037,5.125-9.178-.728-2.314-1.191-4.139-2.11-6.34-1.049-2.513-1.874-5.275-1.288-7.934a1.669,1.669,0,0,1,.792-1.254,1.3,1.3,0,0,1,.934.013,4.01,4.01,0,0,1,2.1,2.628,19.964,19.964,0,0,1,.92,10.05q1.906-4.166,3.437-8.485c-1.046-2.284-1.734-4.076-2.944-6.2-1.349-2.365-2.506-5.005-2.249-7.716a1.666,1.666,0,0,1,.631-1.341,1.3,1.3,0,0,1,.929-.1,4.011,4.011,0,0,1,2.407,2.351,19.97,19.97,0,0,1,2.13,10.331q1.4-4.31,2.4-8.736a43.4,43.4,0,0,0-.218-4.686c-.3-2.707-.315-5.589,1-7.976a1.664,1.664,0,0,1,1.113-.98,1.3,1.3,0,0,1,.892.276,4.009,4.009,0,0,1,1.278,3.112,19.959,19.959,0,0,1-2.764,11.431,102.977,102.977,0,0,1-4.309,13.825,60.8,60.8,0,0,0,4.606-4.128c2.013-2.067,4.348-4.028,7.107-4.616a1.657,1.657,0,0,1,1.494.206,1.276,1.276,0,0,1,.33.884,4.439,4.439,0,0,1-1.731,3.1,21.621,21.621,0,0,1-12.287,5.744q-1.7,4.206-3.76,8.258c2.143-1.083,3.9-1.879,5.943-3.153,2.447-1.524,5.183-2.87,8-2.782a1.654,1.654,0,0,1,1.4.557,1.276,1.276,0,0,1,.11.939,4.439,4.439,0,0,1-2.418,2.6,21.622,21.622,0,0,1-13.443,2.626,108.847,108.847,0,0,1-5.991,10.172c2.287-.622,4.152-1.051,6.39-1.883,2.7-1,5.65-1.776,8.4-1.125a1.657,1.657,0,0,1,1.261.825,1.279,1.279,0,0,1-.076.943,4.439,4.439,0,0,1-2.893,2.063,21.62,21.62,0,0,1-13.581-.076,110.082,110.082,0,0,1-9.076,11.654c1.99-1.054,3.661-1.873,5.587-3.132,2.412-1.578,5.117-2.986,7.939-2.961a1.662,1.662,0,0,1,1.414.526,1.282,1.282,0,0,1,.135.937,4.437,4.437,0,0,1-2.364,2.652,21.625,21.625,0,0,1-13.554,2.907q-.938,1.028-1.9,2.029c4.053.607,8.227,2.769,9.466,6.527a1.6,1.6,0,0,1,.969,1.073,1.277,1.277,0,0,1-.3.9c-.068.069-.151.119-.223.183.255,1.781.5,3.624,2.058,4.269,1.956.812,3.847-1.2,5.853-1.876a4.058,4.058,0,0,1,2.619.043,21.624,21.624,0,0,1-.3-13.563,4.439,4.439,0,0,1,2.014-2.927,1.277,1.277,0,0,1,.942-.092,1.655,1.655,0,0,1,.847,1.247c.7,2.736-.026,5.7-.99,8.415-.845,2.387-1.236,4.34-1.88,6.833a108.675,108.675,0,0,1,9.492-6.03,21.616,21.616,0,0,1,5.874-12.536,4.438,4.438,0,0,1,3.116-1.707,1.28,1.28,0,0,1,.879.342,1.657,1.657,0,0,1,.195,1.495c-.61,2.757-2.589,5.075-4.669,7.071-1.66,1.593-2.833,3.038-4.309,4.741a110.033,110.033,0,0,1,13.4-6.233,21.626,21.626,0,0,1,2.978-13.25,4.44,4.44,0,0,1,2.659-2.357,1.277,1.277,0,0,1,.936.139,1.658,1.658,0,0,1,.521,1.415c.016,2.823-1.4,5.522-2.983,7.93-1.314,2-2.15,3.718-3.272,5.807a108.938,108.938,0,0,1,11.262-3.555,21.626,21.626,0,0,1,5.58-12.508,4.442,4.442,0,0,1,3.078-1.776,1.281,1.281,0,0,1,.889.322,1.657,1.657,0,0,1,.227,1.49c-.549,2.77-2.474,5.131-4.506,7.173-1.7,1.707-2.865,3.236-4.4,5.078q4.4-1.092,8.883-1.807a21.623,21.623,0,0,1,8.358-10.683,4.431,4.431,0,0,1,3.407-.989,1.275,1.275,0,0,1,.787.525,1.658,1.658,0,0,1-.135,1.5c-1.194,2.558-3.627,4.4-6.091,5.889a60.352,60.352,0,0,0-5.046,3.553,103.148,103.148,0,0,1,14.458-1.1,19.959,19.959,0,0,1,11.732-.118,4.011,4.011,0,0,1,2.748,1.943,1.3,1.3,0,0,1,.068.932,1.664,1.664,0,0,1-1.209.863c-2.62.742-5.425.079-7.995-.821a43.639,43.639,0,0,0-4.536-1.268c-.1,0-.206-.007-.309-.007q-4.375,0-8.733.385a19.974,19.974,0,0,1,9.6,4.4,4.008,4.008,0,0,1,1.751,2.874,1.3,1.3,0,0,1-.307.879,1.664,1.664,0,0,1-1.448.314c-2.7-.359-5.014-2.079-7.015-3.925-1.793-1.654-3.383-2.729-5.369-4.256q-4.541.523-9.025,1.443a19.965,19.965,0,0,1,9.564,3.149,4.007,4.007,0,0,1,2.088,2.638,1.3,1.3,0,0,1-.2.915,1.671,1.671,0,0,1-1.4.488c-2.722-.026-5.229-1.45-7.441-3.038-1.935-1.388-3.606-2.247-5.693-3.474-3.412.807-6.784,1.792-10.1,2.931a19.96,19.96,0,0,1,11.081,3.189,4.01,4.01,0,0,1,2.089,2.638,1.3,1.3,0,0,1-.2.913,1.667,1.667,0,0,1-1.4.489c-2.724-.027-5.229-1.451-7.442-3.038-1.99-1.428-3.705-2.3-5.878-3.584a108.568,108.568,0,0,0-13.556,5.991,19.971,19.971,0,0,1,11.909,1.965,4.017,4.017,0,0,1,2.351,2.407,1.3,1.3,0,0,1-.1.929,1.666,1.666,0,0,1-1.341.632c-2.71.256-5.351-.9-7.716-2.251-2.164-1.235-3.986-1.929-6.336-3.011q-4.392,2.386-8.55,5.166a21.3,21.3,0,0,1,11.23,1.152,4.508,4.508,0,0,1,2.673,2.008,1.078,1.078,0,0,1,.063.831c-.174.408-.7.565-1.179.635-2.559.379-5.295-.5-7.8-1.569-2.184-.929-3.974-1.436-6.246-2.2-.292.2-.583.407-.873.611a4.748,4.748,0,0,1,1.671,5c-.514,1.519-1.8,2.843-1.692,4.442.145,2.178,2.838,3.315,4.994,2.976s4.061-1.6,6.177-2.136,4.856,0,5.6,2.054c.666,1.84-.484,4.314.962,5.633a3.94,3.94,0,0,0,2.35.76c18.32,1.739,38.5,5.025,36.447,8.28-.561.89-1.993.607-3.043.59-39-.61-74.413-1.192-113.4,0Z" transform="translate(-40.786 -50.171)" fill="#dbd3ee"/>
        <path id="Path_7869" data-name="Path 7869" d="M36,65.37H147.979a4.481,4.481,0,0,1,4.481,4.481V243.933a4.481,4.481,0,0,1-4.481,4.481H36a4.481,4.481,0,0,1-4.481-4.481V69.851A4.481,4.481,0,0,1,36,65.37" transform="translate(-9.098 -18.868)" fill="#4a25a9"/>
        <g id="Group_9219" data-name="Group 9219" transform="translate(22.422 185.003)" opacity="0.15">
          <g id="Group_9218" data-name="Group 9218">
            <g id="Group_9217" data-name="Group 9217" clip-path="url(#clip-path-3)">
              <path id="Path_7870" data-name="Path 7870" d="M152.476,260.069l-.017,40.061a4.482,4.482,0,0,1-4.481,4.482H36a4.481,4.481,0,0,1-4.481-4.482l.017-40.061Z" transform="translate(-31.52 -260.069)"/>
            </g>
          </g>
        </g>
        <path id="Path_7871" data-name="Path 7871" d="M42.894,70.609H145.066a4.481,4.481,0,0,1,4.481,4.481V239.366a4.481,4.481,0,0,1-4.481,4.481H42.894a4.481,4.481,0,0,1-4.481-4.481V75.09a4.481,4.481,0,0,1,4.481-4.481" transform="translate(-11.087 -20.38)" fill="#dbd3ee"/>
        <path id="Path_7872" data-name="Path 7872" d="M49.785,79.154H142.15a4.481,4.481,0,0,1,4.481,4.481V238.1a4.481,4.481,0,0,1-4.481,4.481H49.785A4.481,4.481,0,0,1,45.3,238.1V83.635a4.481,4.481,0,0,1,4.481-4.481" transform="translate(-13.076 -22.847)" fill="#fff"/>
        <g id="Group_9222" data-name="Group 9222" transform="translate(32.227 131.746)" opacity="0.02">
          <g id="Group_9221" data-name="Group 9221">
            <g id="Group_9220" data-name="Group 9220" clip-path="url(#clip-path-4)">
              <path id="Path_7873" data-name="Path 7873" d="M146.632,185.2v83.512a4.481,4.481,0,0,1-4.481,4.481H49.785a4.481,4.481,0,0,1-4.481-4.481V185.2Z" transform="translate(-45.304 -185.203)"/>
            </g>
          </g>
        </g>
        <path id="Path_7874" data-name="Path 7874" d="M75.057,60.775h56.411a4.481,4.481,0,0,1,4.481,4.481V70.58H70.576V65.256a4.481,4.481,0,0,1,4.481-4.481" transform="translate(-20.371 -17.542)" fill="#e8505d"/>
        <path id="Path_7875" data-name="Path 7875" d="M107.278,46.991H119.14a2.241,2.241,0,0,1,2.241,2.241V56.8H105.037V49.232a2.241,2.241,0,0,1,2.241-2.241" transform="translate(-30.318 -13.563)" fill="#af505d"/>
        <path id="Path_7876" data-name="Path 7876" d="M115.2,49.58a3.269,3.269,0,1,1-3.269,3.269A3.268,3.268,0,0,1,115.2,49.58" transform="translate(-32.307 -14.311)" fill="#fff"/>
        <path id="Path_7877" data-name="Path 7877" d="M76.493,129.9H69.026a.746.746,0,0,0-.748.745v7.471a.746.746,0,0,0,.745.747h7.471a.746.746,0,0,0,.747-.745v-7.471a.745.745,0,0,0-.745-.747Zm-1.224,3.136-3.121,3.136a.417.417,0,0,1-.271.129.406.406,0,0,1-.274-.133l-1.308-1.307,0-.132h0l.415-.415.129,0,0,0,1.036,1.036,2.847-2.872.065-.028.065.028.409.422.014.129Z" transform="translate(-19.708 -37.493)" fill="#ffb432"/>
        <path id="Path_7878" data-name="Path 7878" d="M67.937,98.033H133.31a.84.84,0,0,0,0-1.68H67.937a.84.84,0,0,0,0,1.68" transform="translate(-19.367 -27.811)" fill="#ced0d2"/>
        <path id="Path_7879" data-name="Path 7879" d="M67.937,110.4H133.31a.84.84,0,1,0,0-1.68H67.937a.84.84,0,0,0,0,1.68" transform="translate(-19.367 -31.379)" fill="#ced0d2"/>
        <path id="Path_7880" data-name="Path 7880" d="M67.937,253.743H133.31a.84.84,0,1,0,0-1.68H67.937a.84.84,0,0,0,0,1.68" transform="translate(-19.367 -72.755)" fill="#ced0d2"/>
        <path id="Path_7881" data-name="Path 7881" d="M67.937,266.105H133.31a.84.84,0,0,0,0-1.68H67.937a.84.84,0,0,0,0,1.68" transform="translate(-19.367 -76.323)" fill="#ced0d2"/>
        <path id="Path_7882" data-name="Path 7882" d="M67.937,277.55H133.31a.84.84,0,0,0,0-1.68H67.937a.84.84,0,1,0,0,1.68" transform="translate(-19.367 -79.626)" fill="#ced0d2"/>
        <path id="Path_7883" data-name="Path 7883" d="M87.937,136.7h51.146a.84.84,0,1,0,0-1.68H87.937a.84.84,0,0,0,0,1.68" transform="translate(-25.139 -38.97)" fill="#ced0d2"/>
        <path id="Path_7884" data-name="Path 7884" d="M76.493,152.5H69.026a.746.746,0,0,0-.748.745v7.471a.746.746,0,0,0,.745.747h7.471a.746.746,0,0,0,.747-.745v-7.471a.745.745,0,0,0-.745-.747Zm-1.224,3.136-3.121,3.136a.417.417,0,0,1-.271.129.406.406,0,0,1-.274-.133l-1.308-1.307,0-.132h0l.415-.415.129,0,0,0,1.036,1.036,2.847-2.872.065-.028.065.028.409.422.014.129Z" transform="translate(-19.708 -44.016)" fill="#ffb432"/>
        <path id="Path_7885" data-name="Path 7885" d="M87.937,159.3h51.146a.84.84,0,1,0,0-1.68H87.937a.84.84,0,0,0,0,1.68" transform="translate(-25.139 -45.494)" fill="#ced0d2"/>
        <path id="Path_7886" data-name="Path 7886" d="M76.493,173.893H69.026a.746.746,0,0,0-.748.745v7.471a.746.746,0,0,0,.745.747h7.471a.746.746,0,0,0,.747-.745V174.64a.745.745,0,0,0-.745-.747Zm-1.224,3.136-3.121,3.136a.417.417,0,0,1-.271.129.406.406,0,0,1-.274-.133l-1.308-1.307,0-.132h0l.415-.415.129,0,0,0,1.036,1.036,2.847-2.872.065-.028.065.028.409.422.014.129Z" transform="translate(-19.708 -50.192)" fill="#ffb432"/>
        <path id="Path_7887" data-name="Path 7887" d="M87.937,180.692h51.146a.84.84,0,0,0,0-1.68H87.937a.84.84,0,0,0,0,1.68" transform="translate(-25.139 -51.67)" fill="#ced0d2"/>
        <path id="Path_7888" data-name="Path 7888" d="M76.493,196.493H69.026a.746.746,0,0,0-.748.745v7.471a.746.746,0,0,0,.745.747h7.471a.746.746,0,0,0,.747-.745V197.24a.746.746,0,0,0-.745-.747Zm-1.224,3.136-3.121,3.136a.417.417,0,0,1-.271.129.407.407,0,0,1-.274-.133l-1.308-1.307,0-.132h0l.415-.415.129,0,0,0,1.036,1.036,2.847-2.872.065-.028.065.028.409.422.014.129Z" transform="translate(-19.708 -56.715)" fill="#ffb432"/>
        <path id="Path_7889" data-name="Path 7889" d="M87.937,203.292h51.146a.84.84,0,1,0,0-1.68H87.937a.84.84,0,1,0,0,1.68" transform="translate(-25.139 -58.193)" fill="#ced0d2"/>
        <path id="Path_7890" data-name="Path 7890" d="M76.493,219.093H69.026a.746.746,0,0,0-.748.745v7.471a.746.746,0,0,0,.745.747h7.471a.746.746,0,0,0,.747-.745V219.84a.745.745,0,0,0-.745-.747Zm-1.224,3.136-3.121,3.136a.417.417,0,0,1-.271.129.406.406,0,0,1-.274-.133l-1.308-1.307,0-.132h0l.415-.415.129,0,0,0,1.036,1.036,2.847-2.872.065-.028.065.028.409.422.014.129Z" transform="translate(-19.708 -63.239)" fill="#ffb432"/>
        <path id="Path_7891" data-name="Path 7891" d="M87.937,225.892h51.146a.84.84,0,0,0,0-1.68H87.937a.84.84,0,1,0,0,1.68" transform="translate(-25.139 -64.716)" fill="#ced0d2"/>
        <path id="Path_7892" data-name="Path 7892" d="M186.764,215.924a10.414,10.414,0,1,1-10.412-10.416,10.317,10.317,0,0,1,10.412,10.416" transform="translate(-47.895 -59.317)" fill="#e9a530"/>
        <path id="Path_7893" data-name="Path 7893" d="M186.764,215.924a10.317,10.317,0,0,1-.078,1.266,11.715,11.715,0,0,1-20.671,0,10.414,10.414,0,1,1,20.75-1.266" transform="translate(-47.895 -59.317)" fill="#ffb432"/>
        <path id="Path_7894" data-name="Path 7894" d="M187.957,293.626H156.31a4.984,4.984,0,0,1-4.985-4.985V283.8a4.985,4.985,0,0,1,4.985-4.984h31.647a4.985,4.985,0,0,1,4.985,4.984v4.841a4.984,4.984,0,0,1-4.985,4.985" transform="translate(-43.678 -80.477)" fill="#b6b6cf"/>
        <path id="Path_7895" data-name="Path 7895" d="M186.017,267.075H163.278a3.241,3.241,0,0,1,0-6.481h22.739a3.241,3.241,0,1,1,0,6.481" transform="translate(-46.193 -75.217)" fill="#46249b"/>
        <path id="Path_7896" data-name="Path 7896" d="M186.017,276.186H163.278a3.241,3.241,0,0,1,0-6.481h22.739a3.241,3.241,0,1,1,0,6.481" transform="translate(-46.193 -77.847)" fill="#46249b"/>
        <path id="Path_7897" data-name="Path 7897" d="M141.765,236.683a6.967,6.967,0,1,1-.156-1.467,6.966,6.966,0,0,1,.156,1.467" transform="translate(-36.897 -66.305)" fill="#e9a530"/>
        <path id="Path_7898" data-name="Path 7898" d="M141.672,235.216a6.967,6.967,0,0,1-13.621,0,6.967,6.967,0,0,1,13.621,0" transform="translate(-36.96 -66.305)" fill="#ffb432"/>
        <path id="Path_7899" data-name="Path 7899" d="M100.283,263.485a31.714,31.714,0,0,1,19.9-26.824s5.827.877,1.827,7.037a24.506,24.506,0,0,0-14.5,19.8c-4.317,5.477-7.224-.017-7.224-.017" transform="translate(-28.945 -68.309)" fill="#a6a5bc"/>
        <path id="Path_7900" data-name="Path 7900" d="M112.274,285.282q0,.49-.041.97h-6.1a5.4,5.4,0,0,0,.085-.97,5.65,5.65,0,0,0-11.3,0,5.4,5.4,0,0,0,.085.97H88.911q-.041-.479-.041-.97a11.7,11.7,0,1,1,23.4,0" transform="translate(-25.651 -78.966)" fill="#3a2372"/>
        <path id="Path_7901" data-name="Path 7901" d="M227.546,236.683a6.967,6.967,0,1,1-.157-1.467,6.969,6.969,0,0,1,.157,1.467" transform="translate(-61.656 -66.305)" fill="#e9a530"/>
        <path id="Path_7902" data-name="Path 7902" d="M227.453,235.216a6.967,6.967,0,0,1-13.621,0,6.967,6.967,0,0,1,13.621,0" transform="translate(-61.72 -66.305)" fill="#ffb432"/>
        <path id="Path_7903" data-name="Path 7903" d="M244.141,203.6a24.506,24.506,0,0,1-14.5,19.8c-4,6.16,1.827,7.037,1.827,7.037a31.713,31.713,0,0,0,19.9-26.824s-2.907-5.495-7.224-.017" transform="translate(-65.878 -58.064)" fill="#a6a5bc"/>
        <path id="Path_7904" data-name="Path 7904" d="M239.261,188.551q0-.49.041-.97h6.1a5.4,5.4,0,0,0-.085.97,5.65,5.65,0,0,0,11.3,0,5.4,5.4,0,0,0-.085-.97h6.094q.041.479.041.97a11.7,11.7,0,1,1-23.4,0" transform="translate(-69.06 -54.143)" fill="#3a2372"/>
        <path id="Path_7905" data-name="Path 7905" d="M160.144,124.4a11.7,11.7,0,0,1,11.7,11.7h7.007a18.7,18.7,0,0,0-18.7-18.7Z" transform="translate(-46.224 -33.884)" fill="#a6a5bc"/>
        <path id="Path_7906" data-name="Path 7906" d="M162.341,112.582v-9.691h-9.694l-.8.8-2.453,2.457-2.457-2.457-.8-.8H136.45v9.691l.8.8,2.457,2.457-2.453,2.453-.8.8v9.694h9.691l3.257-3.257,2.456,2.457.8.8h1.126l5.842,0h2.722v-9.7l-.8-.8-2.453-2.453,2.453-2.457Z" transform="translate(-39.385 -29.698)" fill="#c7c7e3"/>
        <path id="Path_7907" data-name="Path 7907" d="M149.042,109.641v5.842H143.2l-2.923-2.923v-5.842h5.842Z" transform="translate(-40.489 -30.803)" fill="#4a25a9"/>
        <path id="Path_7908" data-name="Path 7908" d="M165.465,106.718v5.842l-2.919,2.923H156.7v-5.842l2.919-2.923Z" transform="translate(-45.23 -30.803)" fill="#ffb432"/>
        <path id="Path_7909" data-name="Path 7909" d="M165.465,126.062v5.846l-5.839,0-2.923-2.923v-5.842h5.842Z" transform="translate(-45.23 -35.543)" fill="#4a25a9"/>
        <path id="Path_7910" data-name="Path 7910" d="M149.042,123.144v5.839l-2.923,2.923h-5.842v-5.842l2.923-2.919Z" transform="translate(-40.489 -35.544)" fill="#4a25a9"/>
        <path id="Path_7911" data-name="Path 7911" d="M191.08,251.694H148.919a4.984,4.984,0,0,1-4.985-4.984V234.745a4.984,4.984,0,0,1,4.985-4.985H191.08a4.984,4.984,0,0,1,4.985,4.985V246.71a4.984,4.984,0,0,1-4.985,4.984" transform="translate(-41.545 -66.317)" fill="#b6b6cf"/>
        <path id="Path_7912" data-name="Path 7912" d="M196.065,244.927v6.16a4.984,4.984,0,0,1-4.985,4.984H148.919a4.984,4.984,0,0,1-4.985-4.984v-6.16Z" transform="translate(-41.545 -70.695)" fill="#9594a8"/>
        <path id="Path_7913" data-name="Path 7913" d="M157.116,243.642a3.783,3.783,0,1,1-3.782-3.782,3.782,3.782,0,0,1,3.782,3.782" transform="translate(-43.166 -69.233)" fill="#8fcc21"/>
        <path id="Path_7914" data-name="Path 7914" d="M172.534,243.642a3.783,3.783,0,1,1-3.782-3.782,3.782,3.782,0,0,1,3.782,3.782" transform="translate(-47.616 -69.233)" fill="#ea1c24"/>
        <path id="Path_7915" data-name="Path 7915" d="M201.309,246.188H183.36a1.7,1.7,0,0,1,0-3.4h17.95a1.7,1.7,0,0,1,0,3.4" transform="translate(-52.433 -70.077)" fill="#fff"/>
        <rect id="Rectangle_3680" data-name="Rectangle 3680" width="16.69" height="27.262" transform="translate(111.049 208.165)" fill="#ffb432"/>
        <line id="Line_271" data-name="Line 271" x2="16.69" transform="translate(111.05 212.329)" fill="none" stroke="#e9a530" stroke-miterlimit="10" stroke-width="0.132"/>
        <line id="Line_272" data-name="Line 272" x2="16.69" transform="translate(111.05 216.909)" fill="none" stroke="#e9a530" stroke-miterlimit="10" stroke-width="0.132"/>
        <line id="Line_273" data-name="Line 273" x2="16.69" transform="translate(111.05 221.489)" fill="none" stroke="#e9a530" stroke-miterlimit="10" stroke-width="0.132"/>
        <line id="Line_274" data-name="Line 274" x2="16.69" transform="translate(111.05 226.07)" fill="none" stroke="#e9a530" stroke-miterlimit="10" stroke-width="0.132"/>
        <line id="Line_275" data-name="Line 275" x2="16.69" transform="translate(111.05 230.65)" fill="none" stroke="#e9a530" stroke-miterlimit="10" stroke-width="0.132"/>
        <path id="Path_7916" data-name="Path 7916" d="M169.409,324.824v4.549H143.936v-4.549a12.737,12.737,0,0,1,25.473,0" transform="translate(-41.545 -90.08)" fill="#9594a8"/>
        <rect id="Rectangle_3681" data-name="Rectangle 3681" width="25.472" height="3.837" transform="translate(102.39 235.457)" fill="#3a2372"/>
        <path id="Path_7917" data-name="Path 7917" d="M167.455,316.661c-.252,3.515-4.658,6.312-10.059,6.312-5.083,0-9.29-2.481-9.977-5.7a12.741,12.741,0,0,1,20.036-.609" transform="translate(-42.551 -90.08)" fill="#b6b6cf"/>
        <rect id="Rectangle_3682" data-name="Rectangle 3682" width="16.69" height="27.262" transform="translate(129.17 208.165)" fill="#ffb432"/>
        <line id="Line_276" data-name="Line 276" x2="16.69" transform="translate(129.17 212.329)" fill="none" stroke="#e9a530" stroke-miterlimit="10" stroke-width="0.132"/>
        <line id="Line_277" data-name="Line 277" x2="16.69" transform="translate(129.17 216.909)" fill="none" stroke="#e9a530" stroke-miterlimit="10" stroke-width="0.132"/>
        <line id="Line_278" data-name="Line 278" x2="16.69" transform="translate(129.17 221.489)" fill="none" stroke="#e9a530" stroke-miterlimit="10" stroke-width="0.132"/>
        <line id="Line_279" data-name="Line 279" x2="16.69" transform="translate(129.17 226.07)" fill="none" stroke="#e9a530" stroke-miterlimit="10" stroke-width="0.132"/>
        <line id="Line_280" data-name="Line 280" x2="16.69" transform="translate(129.17 230.65)" fill="none" stroke="#e9a530" stroke-miterlimit="10" stroke-width="0.132"/>
        <path id="Path_7918" data-name="Path 7918" d="M207.055,324.824v4.549H181.582v-4.549a12.737,12.737,0,1,1,25.473,0" transform="translate(-52.411 -90.08)" fill="#9594a8"/>
        <rect id="Rectangle_3683" data-name="Rectangle 3683" width="25.472" height="3.837" transform="translate(129.171 235.457)" fill="#3a2372"/>
        <path id="Path_7919" data-name="Path 7919" d="M205.474,316.994c-.5,3.355-4.8,5.979-10.028,5.979-5.253,0-9.565-2.648-10.027-6.027a12.738,12.738,0,0,1,20.055.048" transform="translate(-53.519 -90.08)" fill="#b6b6cf"/>
        <path id="Path_7920" data-name="Path 7920" d="M191.823,198.079h-54.6a12.261,12.261,0,0,1-12.26-12.261V155.945a12.26,12.26,0,0,1,12.26-12.26h54.6a12.261,12.261,0,0,1,12.261,12.26v29.872a12.261,12.261,0,0,1-12.261,12.261" transform="translate(-36.07 -41.473)" fill="#c7c7e3"/>
        <path id="Path_7921" data-name="Path 7921" d="M204.083,184.838V197.7a12.261,12.261,0,0,1-12.261,12.261h-54.6A12.261,12.261,0,0,1,124.965,197.7V184.838Z" transform="translate(-36.07 -53.351)" fill="#b6b6cf"/>
        <path id="Path_7922" data-name="Path 7922" d="M193.541,192.869H143.1a4.984,4.984,0,0,1-4.984-4.985V160.992a4.985,4.985,0,0,1,4.984-4.985h50.439a4.985,4.985,0,0,1,4.985,4.985v26.893a4.985,4.985,0,0,1-4.985,4.985" transform="translate(-39.866 -45.03)" fill="#4a25a9"/>
        <path id="Path_7923" data-name="Path 7923" d="M165.082,174.479a6.125,6.125,0,1,1-6.125-6.125,6.125,6.125,0,0,1,6.125,6.125" transform="translate(-44.113 -48.593)" fill="#ffcd32"/>
        <path id="Path_7924" data-name="Path 7924" d="M203.35,174.479a6.125,6.125,0,1,1-6.125-6.125,6.125,6.125,0,0,1,6.125,6.125" transform="translate(-55.159 -48.593)" fill="#ffcd32"/>
        <path id="Path_7925" data-name="Path 7925" d="M177.746,196.1a6.984,6.984,0,0,1-6.976-6.976.851.851,0,0,1,1.7,0,5.274,5.274,0,1,0,10.548,0,.851.851,0,0,1,1.7,0,6.984,6.984,0,0,1-6.976,6.976" transform="translate(-49.291 -54.342)" fill="#ffcd32"/>
        <path id="Path_7926" data-name="Path 7926" d="M138.116,160.992a4.985,4.985,0,0,1,4.985-4.985H193.54a4.985,4.985,0,0,1,4.985,4.985Z" transform="translate(-39.865 -45.03)" fill="#42248e"/>
        <path id="Path_7927" data-name="Path 7927" d="M189.258,265.149h0a3.241,3.241,0,0,1-3.241,3.241H163.279a3.241,3.241,0,0,1-3.241-3.241Z" transform="translate(-46.193 -76.532)" fill="#42248e"/>
        <path id="Path_7928" data-name="Path 7928" d="M189.258,274.261h0a3.241,3.241,0,0,1-3.241,3.241H163.279a3.241,3.241,0,0,1-3.241-3.241Z" transform="translate(-46.193 -79.162)" fill="#42248e"/>
        <path id="Path_7929" data-name="Path 7929" d="M192.941,292.628a4.984,4.984,0,0,1-4.985,4.985H156.31a4.984,4.984,0,0,1-4.985-4.985Z" transform="translate(-43.678 -84.463)" fill="#9594a8"/>
      </g>
    </g>
  </g>
</svg>
