<svg xmlns="http://www.w3.org/2000/svg" width="32" height="32" viewBox="0 0 32 32">
  <g id="RTO_icn" transform="translate(-1113 -435)">
    <g id="Group_10" data-name="Group 10" transform="translate(0 3.95)">
      <rect id="Rectangle_9" data-name="Rectangle 9" width="23" height="17" transform="translate(1117 441)" fill="#c7c7c7" opacity="0.3"/>
    </g>
    <rect id="Rectangle_11" data-name="Rectangle 11" width="32" height="32" transform="translate(1113 435)" fill="none"/>
    <g id="Icon_feather-briefcase" data-name="Icon feather-briefcase" transform="translate(1114 435.55)">
      <path id="Path_7865" data-name="Path 7865" d="M5.4,10.5H24.6A2.4,2.4,0,0,1,27,12.9v12a2.4,2.4,0,0,1-2.4,2.4H5.4A2.4,2.4,0,0,1,3,24.9v-12a2.4,2.4,0,0,1,2.4-2.4Z" transform="translate(0 -1.2)" fill="none" stroke="#c7c7c7" stroke-linecap="round" stroke-linejoin="round" stroke-width="2"/>
      <path id="Path_7866" data-name="Path 7866" d="M21.6,26.1V6.9a2.4,2.4,0,0,0-2.4-2.4H14.4A2.4,2.4,0,0,0,12,6.9V26.1" transform="translate(-1.8)" fill="none" stroke="#c7c7c7" stroke-linecap="round" stroke-linejoin="round" stroke-width="2"/>
    </g>
  </g>
</svg>
