<svg id="Icon_ionic-ios-chatboxes" data-name="Icon ionic-ios-chatboxes" xmlns="http://www.w3.org/2000/svg" width="26.468" height="26.473" viewBox="0 0 26.468 26.473">
  <path id="Path_7008" data-name="Path 7008" d="M28.214,11.981h-14.1a2.428,2.428,0,0,0-2.425,2.425v9.82a2.423,2.423,0,0,0,2.425,2.418h8.07a.7.7,0,0,1,.484.2l4.009,3.7c.223.216.592.127.592-.185v-3.22c0-.382.242-.5.624-.5h.064a2.649,2.649,0,0,0,2.679-2.418V14.406A2.415,2.415,0,0,0,28.214,11.981Z" transform="translate(-4.164 -4.192)" fill="#fff"/>
  <path id="Path_7009" data-name="Path 7009" d="M11.419,9.605h11.29V5.45a2.075,2.075,0,0,0-2.075-2.075H5.45A2.075,2.075,0,0,0,3.375,5.45V15.963A2.075,2.075,0,0,0,5.45,18.038H9.338V11.68A2.085,2.085,0,0,1,11.419,9.605Z" transform="translate(-3.375 -3.375)" fill="#ffb432"/>
</svg>
