<svg xmlns="http://www.w3.org/2000/svg" width="310.917" height="182.932" viewBox="0 0 310.917 182.932">
  <g id="Group_10487" data-name="Group 10487" transform="translate(-778 -295.068)">
    <g id="Group_10481" data-name="Group 10481" transform="translate(-10206.258 19793.813)">
      <path id="Path_8271" data-name="Path 8271" d="M256.914,157.714a3.192,3.192,0,1,1-3.192-3.192,3.192,3.192,0,0,1,3.192,3.192" transform="translate(10764.644 -19581.25)" fill="#ffb432"/>
      <path id="Path_8283" data-name="Path 8283" d="M292.619,241.279l-29.206-.1a4.6,4.6,0,0,1-4.585-4.615l.015-4.467a4.6,4.6,0,0,1,4.615-4.585l29.2.1a4.6,4.6,0,0,1,4.585,4.615l-.014,4.467a4.6,4.6,0,0,1-4.615,4.585" transform="translate(10764.644 -19581.25)" fill="#b6b6cf"/>
      <path id="Path_8284" data-name="Path 8284" d="M288.572,221.618l-20.984-.068a2.991,2.991,0,0,1,.019-5.982l20.984.069a2.991,2.991,0,0,1-.019,5.981" transform="translate(10764.644 -19581.25)" fill="#46249b"/>
      <path id="Path_8285" data-name="Path 8285" d="M288.553,227.6l-20.984-.068a2.991,2.991,0,0,1,.019-5.982l20.984.069a2.991,2.991,0,1,1-.019,5.981" transform="translate(10764.644 -19581.25)" fill="#46249b"/>
      <path id="Path_8286" data-name="Path 8286" d="M256.186,204.831a6.432,6.432,0,1,1-.219-1.343,6.429,6.429,0,0,1,.219,1.343" transform="translate(10764.644 -19581.25)" fill="#e9a530"/>
      <path id="Path_8287" data-name="Path 8287" d="M255.967,203.488a6.429,6.429,0,0,1-12.55.691,6.429,6.429,0,0,1,12.55-.691" transform="translate(10764.644 -19581.25)" fill="#ffb432"/>
      <path id="Path_8288" data-name="Path 8288" d="M226.547,229.383a29.268,29.268,0,0,1,16.972-25.727s5.415.513,2.041,6.392a22.611,22.611,0,0,0-12.355,18.984c-3.7,5.266-6.658.351-6.658.351" transform="translate(10764.644 -19581.25)" fill="#a6a5bc"/>
      <path id="Path_8289" data-name="Path 8289" d="M241.2,238.873c.017.3.02.6.012.9l-5.619.309a4.966,4.966,0,0,0,.029-.9,5.214,5.214,0,0,0-10.413.574,4.937,4.937,0,0,0,.128.889l-5.616.309q-.062-.439-.087-.891a10.8,10.8,0,1,1,21.566-1.188" transform="translate(10764.644 -19581.25)" fill="#3a2372"/>
      <path id="Path_8290" data-name="Path 8290" d="M305.886,208.235a6.43,6.43,0,1,1-8.8-9.372,6.358,6.358,0,0,1,1.085-.821,6.429,6.429,0,0,1,8.607,9.161,6.329,6.329,0,0,1-.887,1.032" transform="translate(10764.644 -19581.25)" fill="#e9a530"/>
      <path id="Path_8291" data-name="Path 8291" d="M306.773,207.2a6.429,6.429,0,1,1-.606-8.057,6.429,6.429,0,0,1,.606,8.057" transform="translate(10764.644 -19581.25)" fill="#ffb432"/>
      <path id="Path_8292" data-name="Path 8292" d="M330.331,200.849a22.615,22.615,0,0,1-22.482,2.763c-6.671,1.2-3.578,5.675-3.578,5.675a29.265,29.265,0,0,0,30.613-3.569s1.859-5.427-4.553-4.869" transform="translate(10764.644 -19581.25)" fill="#a6a5bc"/>
      <path id="Path_8293" data-name="Path 8293" d="M332.719,188.4c.22-.206.446-.4.678-.585l3.853,4.1a5.021,5.021,0,0,0-.706.555,5.215,5.215,0,0,0,7.141,7.6,5.037,5.037,0,0,0,.6-.67l3.851,4.1q-.3.33-.627.64A10.8,10.8,0,1,1,332.719,188.4" transform="translate(10764.644 -19581.25)" fill="#3a2372"/>
      <path id="Path_8294" data-name="Path 8294" d="M299.084,132.452a10.794,10.794,0,0,0-12.01,9.422l-6.419-.776a17.259,17.259,0,0,1,19.2-15.065Z" transform="translate(10764.644 -19581.25)" fill="#a6a5bc"/>
      <path id="Path_8295" data-name="Path 8295" d="M320.521,127.946l1.072-8.879-8.882-1.073-.818.645-2.519,1.979L307.4,118.1l-.642-.821-8.882-1.073-1.072,8.879.641.821,1.979,2.523L296.9,130.4l-.821.641-1.072,8.882L303.886,141l3.343-2.623,1.98,2.523.641.821,1.032.124,5.352.65,2.494.3,1.073-8.885-.641-.818-1.977-2.519,2.52-1.979Z" transform="translate(10764.644 -19581.25)" fill="#c7c7e3"/>
      <path id="Path_8296" data-name="Path 8296" d="M307.772,122.646,307.126,128l-5.353-.647-2.355-3,.646-5.353,5.353.647Z" transform="translate(10764.644 -19581.25)" fill="#4a25a9"/>
      <path id="Path_8297" data-name="Path 8297" d="M318.8,121.26l-.646,5.353-3,2.355-5.353-.647.647-5.352,3-2.355Z" transform="translate(10764.644 -19581.25)" fill="#ffb432"/>
      <path id="Path_8298" data-name="Path 8298" d="M317.182,134.641,316.535,140l-5.349-.649-2.355-3,.647-5.352,5.352.646Z" transform="translate(10764.644 -19581.25)" fill="#4a25a9"/>
      <path id="Path_8299" data-name="Path 8299" d="M306.8,130.673l-.646,5.35-3,2.354-5.353-.646.646-5.353,3-2.351Z" transform="translate(10764.644 -19581.25)" fill="#4a25a9"/>
      <path id="Path_8300" data-name="Path 8300" d="M298.106,216.386l-38.85,2.139a4.6,4.6,0,0,1-4.846-4.34L253.8,203.16a4.6,4.6,0,0,1,4.34-4.846l38.85-2.139a4.6,4.6,0,0,1,4.846,4.34l.607,11.025a4.6,4.6,0,0,1-4.34,4.846" transform="translate(10764.644 -19581.25)" fill="#b6b6cf"/>
      <path id="Path_8301" data-name="Path 8301" d="M302.134,205.863l.313,5.676a4.6,4.6,0,0,1-4.34,4.846l-38.851,2.14a4.6,4.6,0,0,1-4.846-4.34l-.312-5.677Z" transform="translate(10764.644 -19581.25)" fill="#9594a8"/>
      <path id="Path_8302" data-name="Path 8302" d="M264.759,208.085a3.491,3.491,0,1,1-3.677-3.294,3.492,3.492,0,0,1,3.677,3.294" transform="translate(10764.644 -19581.25)" fill="#8fcc21"/>
      <path id="Path_8303" data-name="Path 8303" d="M274.866,207.529a3.491,3.491,0,1,1-3.677-3.294,3.492,3.492,0,0,1,3.677,3.294" transform="translate(10764.644 -19581.25)" fill="#ea1c24"/>
      <path id="Path_8304" data-name="Path 8304" d="M297.028,207.882l-16.54.911a1.571,1.571,0,1,1-.173-3.137l16.54-.911a1.571,1.571,0,0,1,.173,3.137" transform="translate(10764.644 -19581.25)" fill="#fff"/>
      <rect id="Rectangle_3752" data-name="Rectangle 3752" width="25.159" height="15.402" transform="translate(11026.53 -19319.512) rotate(-89.813)" fill="#ffb432"/>
      <line id="Line_325" data-name="Line 325" x2="15.402" y2="0.05" transform="translate(11026.6 -19340.828)" fill="none" stroke="#e9a530" stroke-miterlimit="10" stroke-width="0.087"/>
      <line id="Line_326" data-name="Line 326" x2="15.402" y2="0.05" transform="translate(11026.586 -19336.6)" fill="none" stroke="#e9a530" stroke-miterlimit="10" stroke-width="0.087"/>
      <line id="Line_327" data-name="Line 327" x2="15.402" y2="0.05" transform="translate(11026.572 -19332.373)" fill="none" stroke="#e9a530" stroke-miterlimit="10" stroke-width="0.087"/>
      <line id="Line_328" data-name="Line 328" x2="15.402" y2="0.05" transform="translate(11026.559 -19328.146)" fill="none" stroke="#e9a530" stroke-miterlimit="10" stroke-width="0.087"/>
      <line id="Line_329" data-name="Line 329" x2="15.402" y2="0.05" transform="translate(11026.545 -19323.92)" fill="none" stroke="#e9a530" stroke-miterlimit="10" stroke-width="0.087"/>
      <path id="Path_8305" data-name="Path 8305" d="M277.406,261.159l-.014,4.2-23.507-.076.013-4.2a11.754,11.754,0,0,1,23.508.077" transform="translate(10764.644 -19581.25)" fill="#9594a8"/>
      <rect id="Rectangle_3753" data-name="Rectangle 3753" width="3.541" height="23.508" transform="translate(11018.527 -19315.969) rotate(-89.812)" fill="#3a2372"/>
      <path id="Path_8306" data-name="Path 8306" d="M274.7,253.617c-.243,3.243-4.318,5.811-9.3,5.795-4.692-.015-8.566-2.317-9.19-5.293a11.757,11.757,0,0,1,18.491-.5" transform="translate(10764.644 -19581.25)" fill="#b6b6cf"/>
      <path id="Path_8307" data-name="Path 8307" d="M286.817,190.416a9.5,9.5,0,0,1-.008,1.17,9.61,9.61,0,0,1-19.048,1.049,9.431,9.431,0,0,1-.136-1.162,9.611,9.611,0,1,1,19.192-1.057" transform="translate(10764.644 -19581.25)" fill="#e9a530"/>
      <path id="Path_8308" data-name="Path 8308" d="M286.817,190.416a9.5,9.5,0,0,1-.008,1.17,10.811,10.811,0,0,1-19.048,1.049,9.431,9.431,0,0,1-.136-1.162,9.611,9.611,0,1,1,19.192-1.057" transform="translate(10764.644 -19581.25)" fill="#ffb432"/>
      <rect id="Rectangle_3754" data-name="Rectangle 3754" width="25.159" height="15.402" transform="translate(11043.253 -19319.457) rotate(-89.813)" fill="#ffb432"/>
      <line id="Line_330" data-name="Line 330" x2="15.402" y2="0.05" transform="translate(11043.322 -19340.773)" fill="none" stroke="#e9a530" stroke-miterlimit="10" stroke-width="0.087"/>
      <line id="Line_331" data-name="Line 331" x2="15.402" y2="0.05" transform="translate(11043.309 -19336.545)" fill="none" stroke="#e9a530" stroke-miterlimit="10" stroke-width="0.087"/>
      <line id="Line_332" data-name="Line 332" x2="15.402" y2="0.05" transform="translate(11043.295 -19332.318)" fill="none" stroke="#e9a530" stroke-miterlimit="10" stroke-width="0.087"/>
      <line id="Line_333" data-name="Line 333" x2="15.402" y2="0.05" transform="translate(11043.281 -19328.092)" fill="none" stroke="#e9a530" stroke-miterlimit="10" stroke-width="0.087"/>
      <line id="Line_334" data-name="Line 334" x2="15.402" y2="0.05" transform="translate(11043.268 -19323.865)" fill="none" stroke="#e9a530" stroke-miterlimit="10" stroke-width="0.087"/>
      <path id="Path_8309" data-name="Path 8309" d="M302.12,261.24l-.014,4.2-23.507-.076.013-4.2a11.754,11.754,0,1,1,23.508.077" transform="translate(10764.644 -19581.25)" fill="#9594a8"/>
      <rect id="Rectangle_3755" data-name="Rectangle 3755" width="3.541" height="23.508" transform="translate(11043.241 -19315.889) rotate(-89.812)" fill="#3a2372"/>
      <path id="Path_8310" data-name="Path 8310" d="M299.663,254.006c-.472,3.1-4.449,5.5-9.272,5.487-4.849-.016-8.819-2.472-9.236-5.591a11.756,11.756,0,0,1,18.508.1" transform="translate(10764.644 -19581.25)" fill="#b6b6cf"/>
      <path id="Path_8311" data-name="Path 8311" d="M302.6,194.311l-50.022-6.041a11.314,11.314,0,0,1-9.876-12.59l3.3-27.369a11.314,11.314,0,0,1,12.59-9.876l50.021,6.04a11.316,11.316,0,0,1,9.877,12.59l-3.3,27.369a11.315,11.315,0,0,1-12.59,9.877" transform="translate(10764.644 -19581.25)" fill="#c7c7e3"/>
      <path id="Path_8312" data-name="Path 8312" d="M316.616,172.654l-1.423,11.781a11.315,11.315,0,0,1-12.59,9.877l-50.021-6.041a11.315,11.315,0,0,1-9.877-12.59l1.423-11.781Z" transform="translate(10764.644 -19581.25)" fill="#b6b6cf"/>
      <path id="Path_8313" data-name="Path 8313" d="M301.669,186.05l-46.213-5.581a4.6,4.6,0,0,1-4.015-5.118l2.976-24.639a4.6,4.6,0,0,1,5.118-4.016l46.213,5.581a4.6,4.6,0,0,1,4.015,5.118l-2.976,24.64a4.6,4.6,0,0,1-5.118,4.015" transform="translate(10764.644 -19581.25)" fill="#4a25a9"/>
      <path id="Path_8314" data-name="Path 8314" d="M274.133,162.317a5.652,5.652,0,1,1-4.934-6.289,5.652,5.652,0,0,1,4.934,6.289" transform="translate(10766.644 -19581.25)" fill="#ffcd32"/>
      <path id="Path_8315" data-name="Path 8315" d="M299.073,165.329a5.652,5.652,0,1,1-4.934-6.289,5.652,5.652,0,0,1,4.934,6.289" transform="translate(10766.644 -19581.25)" fill="#ffcd32"/>
      <path id="Path_8316" data-name="Path 8316" d="M279.236,177.685a6.445,6.445,0,0,1-5.619-7.163.785.785,0,0,1,1.559.188,4.867,4.867,0,1,0,9.664,1.167.785.785,0,1,1,1.559.189,6.445,6.445,0,0,1-7.163,5.619" transform="translate(10766.644 -19581.25)" fill="#ffcd32"/>
      <path id="Path_8317" data-name="Path 8317" d="M254.417,150.712a4.6,4.6,0,0,1,5.118-4.015l46.212,5.581a4.6,4.6,0,0,1,4.016,5.118Z" transform="translate(10764.644 -19581.25)" fill="#42248e"/>
      <path id="Path_8318" data-name="Path 8318" d="M291.573,218.637h0a2.991,2.991,0,0,1-3,2.981l-20.985-.068a2.992,2.992,0,0,1-2.981-3Z" transform="translate(10764.644 -19581.25)" fill="#42248e"/>
      <path id="Path_8319" data-name="Path 8319" d="M291.553,224.618h0a2.991,2.991,0,0,1-3,2.981l-20.985-.068a2.992,2.992,0,0,1-2.981-3Z" transform="translate(10764.644 -19581.25)" fill="#42248e"/>
      <path id="Path_8320" data-name="Path 8320" d="M297.234,236.7a4.6,4.6,0,0,1-4.615,4.585l-29.206-.1a4.6,4.6,0,0,1-4.584-4.615Z" transform="translate(10764.644 -19581.25)" fill="#9594a8"/>
    </g>
    <g id="Group_10482" data-name="Group 10482" transform="translate(949 328.764)">
      <path id="Path_8271-2" data-name="Path 8271" d="M250.529,157.714a3.192,3.192,0,1,0,3.192-3.192,3.192,3.192,0,0,0-3.192,3.192" transform="translate(-93.058 -174.049) rotate(17)" fill="#ffb432"/>
      <path id="Path_8283-2" data-name="Path 8283" d="M263.457,241.279l29.206-.1a4.6,4.6,0,0,0,4.585-4.615l-.015-4.467a4.6,4.6,0,0,0-4.615-4.585l-29.2.1a4.6,4.6,0,0,0-4.585,4.615l.014,4.467a4.6,4.6,0,0,0,4.615,4.585" transform="translate(-207.942 -116.201)" fill="#b6b6cf"/>
      <path id="Path_8284-2" data-name="Path 8284" d="M267.607,221.618l20.984-.068a2.991,2.991,0,0,0-.019-5.982l-20.984.069a2.991,2.991,0,0,0,.019,5.981" transform="translate(-208.045 -116.201)" fill="#46249b"/>
      <path id="Path_8285-2" data-name="Path 8285" d="M267.588,227.6l20.984-.068a2.991,2.991,0,0,0-.019-5.982l-20.984.069a2.991,2.991,0,1,0,.019,5.981" transform="translate(-208.007 -116.201)" fill="#46249b"/>
      <path id="Path_8286-2" data-name="Path 8286" d="M243.346,205.541a6.432,6.432,0,1,1,.219,1.343,6.429,6.429,0,0,1-.219-1.343" transform="translate(39.809 -231.021) rotate(41)" fill="#e9a530"/>
      <path id="Path_8287-2" data-name="Path 8287" d="M243.417,204.179a6.429,6.429,0,0,1,12.55-.691,6.429,6.429,0,0,1-12.55.691" transform="translate(38.146 -228.882) rotate(41)" fill="#ffb432"/>
      <path id="Path_8288-2" data-name="Path 8288" d="M246.667,205.74A29.268,29.268,0,0,1,229.7,231.467s-5.415-.513-2.041-6.392a22.61,22.61,0,0,0,12.355-18.984c3.7-5.266,6.658-.351,6.658-.351" transform="translate(75.91 -232.434) rotate(41)" fill="#a6a5bc"/>
      <path id="Path_8289-2" data-name="Path 8289" d="M219.631,230.746c-.017-.3-.02-.6-.012-.9l5.619-.309a4.966,4.966,0,0,0-.029.9,5.214,5.214,0,0,0,10.413-.574,4.937,4.937,0,0,0-.128-.889l5.616-.309q.062.439.087.891a10.8,10.8,0,1,1-21.566,1.188" transform="translate(107.89 -250.342) rotate(41)" fill="#3a2372"/>
      <path id="Path_8290-2" data-name="Path 8290" d="M297.076,208.235a6.43,6.43,0,1,0,8.8-9.372,6.358,6.358,0,0,0-1.085-.821,6.429,6.429,0,0,0-8.607,9.161,6.329,6.329,0,0,0,.887,1.032" transform="translate(-315.517 65.15) rotate(-31)" fill="#e9a530"/>
      <path id="Path_8291-2" data-name="Path 8291" d="M298.164,207.2a6.429,6.429,0,1,0,.606-8.057,6.429,6.429,0,0,0-.606,8.057" transform="translate(-317.209 66.167) rotate(-31)" fill="#ffb432"/>
      <path id="Path_8292-2" data-name="Path 8292" d="M308.358,200.849a22.614,22.614,0,0,0,22.482,2.763c6.671,1.2,3.578,5.675,3.578,5.675a29.264,29.264,0,0,1-30.613-3.569s-1.859-5.427,4.553-4.869" transform="translate(-346.14 83.551) rotate(-31)" fill="#a6a5bc"/>
      <path id="Path_8293-2" data-name="Path 8293" d="M344.731,188.4c-.22-.206-.446-.4-.678-.585l-3.853,4.1a5.019,5.019,0,0,1,.706.555,5.215,5.215,0,0,1-7.141,7.6,5.037,5.037,0,0,1-.6-.67l-3.851,4.1q.3.33.627.64A10.8,10.8,0,1,0,344.731,188.4" transform="translate(-379.365 103.515) rotate(-31)" fill="#3a2372"/>
      <path id="Path_8294-2" data-name="Path 8294" d="M281.43,132.452a10.794,10.794,0,0,1,12.01,9.422l6.419-.776a17.259,17.259,0,0,0-19.2-15.065Z" transform="translate(-162.936 -195.413) rotate(17)" fill="#a6a5bc"/>
      <path id="Path_8295-2" data-name="Path 8295" d="M296.079,127.946l-1.072-8.879,8.882-1.073.818.645,2.519,1.979L309.2,118.1l.642-.821,8.882-1.073,1.072,8.879-.641.821-1.979,2.523L319.7,130.4l.821.641,1.072,8.882L312.714,141l-3.343-2.623-1.98,2.523-.641.821-1.032.124-5.352.65-2.494.3-1.073-8.885.641-.818,1.977-2.519-2.52-1.979Z" transform="translate(-197.445 -205.963) rotate(17)" fill="#c7c7e3"/>
      <path id="Path_8296-2" data-name="Path 8296" d="M299.418,122.646l.646,5.353,5.353-.647,2.355-3L307.126,119l-5.353.647Z" transform="translate(-188.446 -203.212) rotate(17)" fill="#4a25a9"/>
      <path id="Path_8297-2" data-name="Path 8297" d="M309.8,121.26l.646,5.353,3,2.355,5.353-.647-.647-5.352-3-2.355Z" transform="translate(-208.919 -209.471) rotate(17)" fill="#ffb432"/>
      <path id="Path_8298-2" data-name="Path 8298" d="M308.831,134.641l.647,5.356,5.349-.649,2.355-3-.647-5.352-5.352.646Z" transform="translate(-206.447 -208.716) rotate(17)" fill="#4a25a9"/>
      <path id="Path_8299-2" data-name="Path 8299" d="M297.8,130.673l.646,5.35,3,2.354,5.353-.646-.646-5.353-3-2.351Z" transform="translate(-185.974 -202.457) rotate(17)" fill="#4a25a9"/>
      <path id="Path_8300-2" data-name="Path 8300" d="M258.143,216.386l38.85,2.139a4.6,4.6,0,0,0,4.846-4.34l.607-11.025a4.6,4.6,0,0,0-4.34-4.846l-38.85-2.139a4.6,4.6,0,0,0-4.846,4.34L253.8,211.54a4.6,4.6,0,0,0,4.34,4.846" transform="translate(-208.115 -116.201)" fill="#b6b6cf"/>
      <path id="Path_8301-2" data-name="Path 8301" d="M254.418,205.863l-.313,5.676a4.6,4.6,0,0,0,4.34,4.846l38.851,2.14a4.6,4.6,0,0,0,4.846-4.34l.312-5.677Z" transform="translate(-208.418 -116.201)" fill="#9594a8"/>
      <path id="Path_8302-2" data-name="Path 8302" d="M257.788,208.085a3.491,3.491,0,1,0,3.677-3.294,3.492,3.492,0,0,0-3.677,3.294" transform="translate(-174.413 -116.201)" fill="#8fcc21"/>
      <path id="Path_8303-2" data-name="Path 8303" d="M267.895,207.529a3.491,3.491,0,1,0,3.677-3.294,3.492,3.492,0,0,0-3.677,3.294" transform="translate(-194.627 -116.201)" fill="#ea1c24"/>
      <path id="Path_8304-2" data-name="Path 8304" d="M280.315,207.882l16.54.911a1.571,1.571,0,0,0,.173-3.137l-16.54-.911a1.571,1.571,0,0,0-.173,3.137" transform="translate(-229.209 -116.201)" fill="#fff"/>
      <rect id="Rectangle_3752-2" data-name="Rectangle 3752" width="25.159" height="15.402" transform="translate(70.845 145.587) rotate(-90.187)" fill="#ffb432"/>
      <line id="Line_325-2" data-name="Line 325" x1="15.402" y2="0.05" transform="translate(70.776 124.221)" fill="none" stroke="#e9a530" stroke-miterlimit="10" stroke-width="0.087"/>
      <line id="Line_326-2" data-name="Line 326" x1="15.402" y2="0.05" transform="translate(70.79 128.449)" fill="none" stroke="#e9a530" stroke-miterlimit="10" stroke-width="0.087"/>
      <line id="Line_327-2" data-name="Line 327" x1="15.402" y2="0.05" transform="translate(70.804 132.676)" fill="none" stroke="#e9a530" stroke-miterlimit="10" stroke-width="0.087"/>
      <line id="Line_328-2" data-name="Line 328" x1="15.402" y2="0.05" transform="translate(70.817 136.902)" fill="none" stroke="#e9a530" stroke-miterlimit="10" stroke-width="0.087"/>
      <line id="Line_329-2" data-name="Line 329" x1="15.402" y2="0.05" transform="translate(70.831 141.129)" fill="none" stroke="#e9a530" stroke-miterlimit="10" stroke-width="0.087"/>
      <path id="Path_8305-2" data-name="Path 8305" d="M253.885,261.159l.014,4.2,23.507-.076-.013-4.2a11.754,11.754,0,0,0-23.508.077" transform="translate(-183.157 -116.201)" fill="#9594a8"/>
      <rect id="Rectangle_3753-2" data-name="Rectangle 3753" width="3.541" height="23.508" transform="translate(70.742 149.157) rotate(-90.188)" fill="#3a2372"/>
      <path id="Path_8306-2" data-name="Path 8306" d="M256.208,253.617c.243,3.243,4.318,5.811,9.3,5.795,4.692-.015,8.566-2.317,9.19-5.293a11.757,11.757,0,0,0-18.491-.5" transform="translate(-182.773 -116.201)" fill="#b6b6cf"/>
      <path id="Path_8307-2" data-name="Path 8307" d="M267.624,190.416a9.5,9.5,0,0,0,.008,1.17,9.61,9.61,0,0,0,19.048,1.049,9.431,9.431,0,0,0,.136-1.162,9.61,9.61,0,1,0-19.192-1.057" transform="translate(-206.307 -116.201)" fill="#e9a530"/>
      <path id="Path_8308-2" data-name="Path 8308" d="M267.624,190.416a9.5,9.5,0,0,0,.008,1.17,10.811,10.811,0,0,0,19.048,1.049,9.431,9.431,0,0,0,.136-1.162,9.61,9.61,0,1,0-19.192-1.057" transform="translate(-206.307 -116.201)" fill="#ffb432"/>
      <rect id="Rectangle_3754-2" data-name="Rectangle 3754" width="25.159" height="15.402" transform="translate(54.123 145.642) rotate(-90.187)" fill="#ffb432"/>
      <line id="Line_330-2" data-name="Line 330" x1="15.402" y2="0.05" transform="translate(54.054 124.275)" fill="none" stroke="#e9a530" stroke-miterlimit="10" stroke-width="0.087"/>
      <line id="Line_331-2" data-name="Line 331" x1="15.402" y2="0.05" transform="translate(54.067 128.504)" fill="none" stroke="#e9a530" stroke-miterlimit="10" stroke-width="0.087"/>
      <line id="Line_332-2" data-name="Line 332" x1="15.402" y2="0.05" transform="translate(54.081 132.73)" fill="none" stroke="#e9a530" stroke-miterlimit="10" stroke-width="0.087"/>
      <line id="Line_333-2" data-name="Line 333" x1="15.402" y2="0.05" transform="translate(54.095 136.957)" fill="none" stroke="#e9a530" stroke-miterlimit="10" stroke-width="0.087"/>
      <line id="Line_334-2" data-name="Line 334" x1="15.402" y2="0.05" transform="translate(54.108 141.184)" fill="none" stroke="#e9a530" stroke-miterlimit="10" stroke-width="0.087"/>
      <path id="Path_8309-2" data-name="Path 8309" d="M278.6,261.24l.014,4.2,23.507-.076-.013-4.2a11.754,11.754,0,1,0-23.508.077" transform="translate(-232.585 -116.201)" fill="#9594a8"/>
      <rect id="Rectangle_3755-2" data-name="Rectangle 3755" width="3.541" height="23.508" transform="translate(46.029 149.237) rotate(-90.188)" fill="#3a2372"/>
      <path id="Path_8310-2" data-name="Path 8310" d="M281.155,254.006c.472,3.1,4.449,5.5,9.272,5.487,4.849-.016,8.819-2.472,9.236-5.591a11.756,11.756,0,0,0-18.508.1" transform="translate(-232.684 -116.201)" fill="#b6b6cf"/>
      <path id="Path_8311-2" data-name="Path 8311" d="M258.6,194.311l50.022-6.041a11.314,11.314,0,0,0,9.876-12.59l-3.3-27.369a11.314,11.314,0,0,0-12.59-9.876l-50.021,6.04a11.316,11.316,0,0,0-9.877,12.59l3.3,27.369a11.315,11.315,0,0,0,12.59,9.877" transform="translate(-144.468 -189.767) rotate(17)" fill="#c7c7e3"/>
      <path id="Path_8312-2" data-name="Path 8312" d="M242.622,172.654l1.423,11.781a11.315,11.315,0,0,0,12.59,9.877l50.021-6.041a11.315,11.315,0,0,0,9.877-12.59L315.11,163.9Z" transform="translate(-142.59 -189.193) rotate(17)" fill="#b6b6cf"/>
      <path id="Path_8313-2" data-name="Path 8313" d="M259.535,186.05l46.213-5.581a4.6,4.6,0,0,0,4.015-5.118l-2.976-24.639a4.6,4.6,0,0,0-5.118-4.016l-46.213,5.581a4.6,4.6,0,0,0-4.015,5.118l2.976,24.64a4.6,4.6,0,0,0,5.118,4.015" transform="translate(-144.47 -189.768) rotate(17)" fill="#4a25a9"/>
      <path id="Path_8314-2" data-name="Path 8314" d="M262.91,162.317a5.652,5.652,0,1,0,4.934-6.289,5.652,5.652,0,0,0-4.934,6.289" transform="translate(-123.277 -183.288) rotate(17)" fill="#ffcd32"/>
      <path id="Path_8315-2" data-name="Path 8315" d="M287.85,165.329a5.652,5.652,0,1,0,4.934-6.289,5.652,5.652,0,0,0-4.934,6.289" transform="translate(-170.977 -197.872) rotate(17)" fill="#ffcd32"/>
      <path id="Path_8316-2" data-name="Path 8316" d="M280.739,177.685a6.445,6.445,0,0,0,5.619-7.163.785.785,0,0,0-1.559.188,4.867,4.867,0,1,1-9.664,1.167.785.785,0,1,0-1.559.189,6.445,6.445,0,0,0,7.163,5.619" transform="translate(-145.207 -189.993) rotate(17)" fill="#ffcd32"/>
      <path id="Path_8317-2" data-name="Path 8317" d="M309.8,150.712a4.6,4.6,0,0,0-5.118-4.015l-46.212,5.581a4.6,4.6,0,0,0-4.016,5.118Z" transform="translate(-147.348 -190.648) rotate(17)" fill="#42248e"/>
      <path id="Path_8318-2" data-name="Path 8318" d="M264.607,218.637h0a2.991,2.991,0,0,0,3,2.981l20.985-.068a2.992,2.992,0,0,0,2.981-3Z" transform="translate(-208.046 -116.201)" fill="#42248e"/>
      <path id="Path_8319-2" data-name="Path 8319" d="M264.587,224.618h0a2.991,2.991,0,0,0,3,2.981l20.985-.068a2.992,2.992,0,0,0,2.981-3Z" transform="translate(-208.006 -116.201)" fill="#42248e"/>
      <path id="Path_8320-2" data-name="Path 8320" d="M258.829,236.7a4.6,4.6,0,0,0,4.615,4.585l29.206-.1a4.6,4.6,0,0,0,4.584-4.615Z" transform="translate(-207.929 -116.201)" fill="#9594a8"/>
    </g>
    <g id="Group_10486" data-name="Group 10486">
      <path id="Icon_material-chat-bubble" data-name="Icon material-chat-bubble" d="M37.259,3H6.807A3.818,3.818,0,0,0,3,6.807V41.065l7.613-7.613H37.259a3.818,3.818,0,0,0,3.807-3.807V6.807A3.818,3.818,0,0,0,37.259,3Z" transform="translate(888.249 322.023)" fill="#ffb432"/>
      <g id="Group_10483" data-name="Group 10483">
        <circle id="Ellipse_60" data-name="Ellipse 60" cx="3" cy="3" r="3" transform="translate(897 338)" fill="#fff"/>
        <circle id="Ellipse_61" data-name="Ellipse 61" cx="3" cy="3" r="3" transform="translate(907 338)" fill="#fff"/>
        <circle id="Ellipse_62" data-name="Ellipse 62" cx="3" cy="3" r="3" transform="translate(917 338)" fill="#fff"/>
      </g>
    </g>
    <g id="Group_10485" data-name="Group 10485">
      <path id="Icon_material-chat-bubble-2" data-name="Icon material-chat-bubble" d="M6.807,3H37.259a3.818,3.818,0,0,1,3.807,3.807V41.065l-7.613-7.613H6.807A3.818,3.818,0,0,1,3,29.646V6.807A3.818,3.818,0,0,1,6.807,3Z" transform="translate(945.645 292.068)" fill="#ffb432"/>
      <g id="Group_10484" data-name="Group 10484" transform="translate(57 -30)">
        <circle id="Ellipse_60-2" data-name="Ellipse 60" cx="3" cy="3" r="3" transform="translate(897 338)" fill="#fff"/>
        <circle id="Ellipse_61-2" data-name="Ellipse 61" cx="3" cy="3" r="3" transform="translate(907 338)" fill="#fff"/>
        <circle id="Ellipse_62-2" data-name="Ellipse 62" cx="3" cy="3" r="3" transform="translate(917 338)" fill="#fff"/>
      </g>
    </g>
  </g>
</svg>
