<svg xmlns="http://www.w3.org/2000/svg" width="32" height="32" viewBox="0 0 32 32">
  <g id="icon_truck" transform="translate(405 -199)">
    <rect id="Rectangle_30" data-name="Rectangle 30" width="32" height="32" transform="translate(-405 199)" fill="none"/>
    <g id="ic_local_shipping_24px" transform="translate(-399 204.455)" fill="#efeff4">
      <path d="M 14.90909004211426 16.59090423583984 C 13.83135032653809 16.59090423583984 12.95454978942871 15.71410369873047 12.95454978942871 14.6363639831543 L 12.95454978942871 14.1363639831543 L 12.45454978942871 14.1363639831543 L 7.545450210571289 14.1363639831543 L 7.045450210571289 14.1363639831543 L 7.045450210571289 14.6363639831543 C 7.045450210571289 15.71410369873047 6.168650150299072 16.59090423583984 5.090909957885742 16.59090423583984 C 4.013169765472412 16.59090423583984 3.136359930038452 15.71410369873047 3.136359930038452 14.6363639831543 L 3.136359930038452 14.1363639831543 L 2.636359930038452 14.1363639831543 L 1.5 14.1363639831543 L 1.5 5.636363983154297 C 1.5 5.009774208068848 2.009769916534424 4.500003814697266 2.636359930038452 4.500003814697266 L 13.59090995788574 4.500003814697266 L 13.59090995788574 7.272724151611328 L 13.59090995788574 7.772724151611328 L 14.09090995788574 7.772724151611328 L 16.29545021057129 7.772724151611328 L 18.3673267364502 10.53522396087646 L 18.13348960876465 10.23696422576904 L 16.52985000610352 8.191514015197754 L 16.37969970703125 8.000003814697266 L 16.13636016845703 8.000003814697266 L 14.09090995788574 8.000003814697266 L 13.59090995788574 8.000003814697266 L 13.59090995788574 8.500003814697266 L 13.59090995788574 10.54545402526855 L 13.59090995788574 11.04545402526855 L 14.09090995788574 11.04545402526855 L 17.73999977111816 11.04545402526855 L 18.5 11.04545402526855 L 18.5 14.1363639831543 L 17.36363983154297 14.1363639831543 L 16.86363983154297 14.1363639831543 L 16.86363983154297 14.6363639831543 C 16.86363983154297 15.71410369873047 15.98682975769043 16.59090423583984 14.90909004211426 16.59090423583984 Z M 14.90909004211426 12.90909385681152 C 13.95666980743408 12.90909385681152 13.18181991577148 13.68394374847412 13.18181991577148 14.6363639831543 C 13.18181991577148 15.58878421783447 13.95666980743408 16.36363410949707 14.90909004211426 16.36363410949707 C 15.86151027679443 16.36363410949707 16.63636016845703 15.58878421783447 16.63636016845703 14.6363639831543 C 16.63636016845703 13.68394374847412 15.86151027679443 12.90909385681152 14.90909004211426 12.90909385681152 Z M 5.090909957885742 12.90909385681152 C 4.138490200042725 12.90909385681152 3.363640069961548 13.68394374847412 3.363640069961548 14.6363639831543 C 3.363640069961548 15.58878421783447 4.138490200042725 16.36363410949707 5.090909957885742 16.36363410949707 C 6.043330192565918 16.36363410949707 6.818180084228516 15.58878421783447 6.818180084228516 14.6363639831543 C 6.818180084228516 13.68394374847412 6.043330192565918 12.90909385681152 5.090909957885742 12.90909385681152 Z" stroke="none"/>
      <path d="M 2.636360168457031 5.000003814697266 C 2.291419982910156 5.000003814697266 2 5.291423797607422 2 5.636363983154297 L 2 13.6363639831543 L 3.101003646850586 13.6363639831543 C 3.467977523803711 12.90902805328369 4.222141265869141 12.40909385681152 5.090909957885742 12.40909385681152 C 5.959678649902344 12.40909385681152 6.713842391967773 12.90902805328369 7.080817222595215 13.6363639831543 L 12.91918277740479 13.6363639831543 C 13.28615760803223 12.90902805328369 14.04032135009766 12.40909385681152 14.90909004211426 12.40909385681152 C 15.77785873413086 12.40909385681152 16.53202247619629 12.90902805328369 16.89899635314941 13.6363639831543 L 18 13.6363639831543 L 18 11.54545402526855 L 13.09090995788574 11.54545402526855 L 13.09090995788574 5.000003814697266 L 2.636360168457031 5.000003814697266 M 2.636360168457031 4.000003814697266 L 14.09090995788574 4.000003814697266 L 14.09090995788574 7.272724151611328 L 16.54545021057129 7.272724151611328 L 19 10.54545402526855 L 19 14.6363639831543 L 17.36363983154297 14.6363639831543 C 17.36363983154297 15.99454402923584 16.26726913452148 17.09090423583984 14.90909004211426 17.09090423583984 C 13.55090999603271 17.09090423583984 12.45454025268555 15.99454402923584 12.45454025268555 14.6363639831543 L 7.545450210571289 14.6363639831543 C 7.545450210571289 15.99454402923584 6.449090003967285 17.09090423583984 5.090909957885742 17.09090423583984 C 3.732730865478516 17.09090423583984 2.636360168457031 15.99454402923584 2.636360168457031 14.6363639831543 L 1 14.6363639831543 L 1 5.636363983154297 C 1 4.736364364624023 1.736360549926758 4.000003814697266 2.636360168457031 4.000003814697266 Z M 17.73999977111816 10.54545402526855 L 16.13636016845703 8.500003814697266 L 14.09090995788574 8.500003814697266 L 14.09090995788574 10.54545402526855 L 17.73999977111816 10.54545402526855 Z M 5.090909957885742 15.86363410949707 C 5.770000457763672 15.86363410949707 6.318180084228516 15.31545448303223 6.318180084228516 14.6363639831543 C 6.318180084228516 13.95727348327637 5.770000457763672 13.40909385681152 5.090909957885742 13.40909385681152 C 4.411820411682129 13.40909385681152 3.863639831542969 13.95727348327637 3.863639831542969 14.6363639831543 C 3.863639831542969 15.31545448303223 4.411820411682129 15.86363410949707 5.090909957885742 15.86363410949707 Z M 14.90909004211426 15.86363410949707 C 15.58818054199219 15.86363410949707 16.13636016845703 15.31545448303223 16.13636016845703 14.6363639831543 C 16.13636016845703 13.95727348327637 15.58818054199219 13.40909385681152 14.90909004211426 13.40909385681152 C 14.22999954223633 13.40909385681152 13.68181991577148 13.95727348327637 13.68181991577148 14.6363639831543 C 13.68181991577148 15.31545448303223 14.22999954223633 15.86363410949707 14.90909004211426 15.86363410949707 Z" stroke="none" fill="#a0a1ba"/>
    </g>
  </g>
</svg>
