<svg id="information_img" xmlns="http://www.w3.org/2000/svg" xmlns:xlink="http://www.w3.org/1999/xlink" width="491.606" height="347.999" viewBox="0 0 491.606 347.999">
  <defs>
    <clipPath id="clip-path">
      <rect id="Rectangle_3664" data-name="Rectangle 3664" width="491.606" height="347.999" fill="none"/>
    </clipPath>
    <clipPath id="clip-path-2">
      <rect id="Rectangle_3665" data-name="Rectangle 3665" width="9.618" height="4.38" fill="none"/>
    </clipPath>
  </defs>
  <g id="Group_9203" data-name="Group 9203">
    <g id="Group_9202" data-name="Group 9202" clip-path="url(#clip-path)">
      <path id="Path_7786" data-name="Path 7786" d="M253.677,0c-.782,0-1.547.009-2.3.027C216.947.89,201.066,17.476,169.679,46.7,148.2,66.7,110.368,64.884,121.391,116.543c9.821,46.009-13.348,42.586-34.562,59.58C65.657,193.076,50.155,213.3,58.58,236.244,67.873,261.551,11,276.076.856,308.879-6.024,331.124,30.117,333,54.712,333c14.478,0,93.395-.655,174-.655,56.307,0,113.424.319,150.027,1.406,7.833.232,21.279,1.085,36.2,1.085,30.721,0,67.719-3.617,74.995-23.714,7.36-20.326-11.663-30.9-17.416-51.541v0c-8.24-29.56,17.954-30.7,18.53-68.789.237-15.571-8.3-31.441-28.831-38.719-10.092-3.575-20.149-6.034-29.128-11.721C412.631,127.39,413,102.73,407.42,81.712,395.353,36.274,302.152,0,253.677,0" transform="translate(0)" fill="#f8f6fc"/>
      <path id="Path_7787" data-name="Path 7787" d="M139.554,239.495c-2.939,1.536-5.914,3-8.939,4.373l-1.1-2.427c4.224-1.907,8.353-4.006,12.4-6.245l11.325-20.583a41.6,41.6,0,0,1,22.288-10.6c-.166-1.567-.37-3.147-.681-4.875-.835-4.649-1.259-9.634.382-13.818.3-.794.763-1.612,1.528-1.749a1.875,1.875,0,0,1,1.382.432,7.834,7.834,0,0,1,2.356,5.311,37.042,37.042,0,0,1-.725,14.307c1.192-.048,2.387-.055,3.587,0q3.49-3.552,6.794-7.285c-.921-4.411-1.38-7.775-2.629-11.923-1.362-4.531-2.293-9.454-.8-13.947a2.9,2.9,0,0,1,1.595-2.025,2.268,2.268,0,0,1,1.612.192,6.969,6.969,0,0,1,3.157,4.923,34.7,34.7,0,0,1-1.3,20.893,188.673,188.673,0,0,0,15.423-20.58c-1.327-4.179-2.135-7.427-3.774-11.356-1.823-4.368-3.258-9.167-2.24-13.789a2.9,2.9,0,0,1,1.375-2.18,2.266,2.266,0,0,1,1.624.022,6.97,6.97,0,0,1,3.653,4.568,34.692,34.692,0,0,1,1.073,20.017c3.222-5.172,6.208-10.491,8.907-15.951-1.267-4.023-2.07-7.194-3.666-11.018-1.823-4.368-3.258-9.167-2.24-13.789a2.9,2.9,0,0,1,1.375-2.18,2.266,2.266,0,0,1,1.624.022,6.974,6.974,0,0,1,3.653,4.568,34.678,34.678,0,0,1,1.6,17.466q3.313-7.238,5.976-14.746c-1.819-3.97-3.015-7.086-5.117-10.773-2.344-4.11-4.356-8.7-3.91-13.41a2.9,2.9,0,0,1,1.1-2.33,2.252,2.252,0,0,1,1.614-.177,6.98,6.98,0,0,1,4.184,4.086,34.712,34.712,0,0,1,3.7,17.956q2.428-7.493,4.172-15.185a75.633,75.633,0,0,0-.379-8.145c-.521-4.7-.547-9.713,1.73-13.861a2.9,2.9,0,0,1,1.934-1.7,2.265,2.265,0,0,1,1.55.48,6.964,6.964,0,0,1,2.221,5.41,34.683,34.683,0,0,1-4.8,19.866,179.309,179.309,0,0,1-7.489,24.028,106.326,106.326,0,0,0,8-7.175c3.5-3.593,7.556-7,12.352-8.022a2.879,2.879,0,0,1,2.6.357,2.212,2.212,0,0,1,.573,1.538,7.7,7.7,0,0,1-3.008,5.39,37.583,37.583,0,0,1-21.357,9.984q-2.958,7.31-6.534,14.353c3.725-1.883,6.774-3.267,10.33-5.481,4.253-2.648,9.006-4.988,13.909-4.836a2.872,2.872,0,0,1,2.435.969,2.213,2.213,0,0,1,.192,1.631,7.716,7.716,0,0,1-4.2,4.519,37.589,37.589,0,0,1-23.363,4.565,189.553,189.553,0,0,1-10.414,17.678c3.975-1.08,7.216-1.825,11.107-3.272,4.7-1.746,9.819-3.087,14.595-1.957a2.878,2.878,0,0,1,2.192,1.435,2.218,2.218,0,0,1-.132,1.639,7.718,7.718,0,0,1-5.028,3.586,37.577,37.577,0,0,1-23.6-.134,191.057,191.057,0,0,1-15.773,20.256c3.459-1.833,6.362-3.256,9.709-5.445,4.194-2.742,8.893-5.189,13.8-5.145a2.876,2.876,0,0,1,2.456.912,2.212,2.212,0,0,1,.235,1.627,7.713,7.713,0,0,1-4.107,4.611,37.574,37.574,0,0,1-23.555,5.052q-1.631,1.785-3.308,3.526c7.043,1.056,14.3,4.814,16.45,11.344a2.769,2.769,0,0,1,1.684,1.866,2.218,2.218,0,0,1-.523,1.559c-.118.12-.262.206-.389.317.444,3.1.869,6.3,3.577,7.42,3.4,1.411,6.688-2.092,10.174-3.262a7.05,7.05,0,0,1,4.549.074,37.585,37.585,0,0,1-.518-23.57,7.717,7.717,0,0,1,3.5-5.088,2.226,2.226,0,0,1,1.638-.161,2.885,2.885,0,0,1,1.471,2.169c1.211,4.755-.046,9.9-1.72,14.626-1.47,4.148-2.147,7.542-3.268,11.873a189.425,189.425,0,0,1,16.5-10.479,37.575,37.575,0,0,1,10.21-21.787,7.715,7.715,0,0,1,5.415-2.967,2.215,2.215,0,0,1,1.528.593,2.875,2.875,0,0,1,.338,2.6c-1.06,4.791-4.5,8.821-8.113,12.29-2.884,2.769-4.923,5.278-7.49,8.238a191.159,191.159,0,0,1,23.287-10.833,37.573,37.573,0,0,1,5.175-23.028,7.711,7.711,0,0,1,4.621-4.1,2.221,2.221,0,0,1,1.627.24,2.886,2.886,0,0,1,.905,2.459c.027,4.906-2.43,9.6-5.186,13.784-2.284,3.471-3.738,6.461-5.688,10.092a189.67,189.67,0,0,1,19.573-6.18,37.588,37.588,0,0,1,9.7-21.737,7.7,7.7,0,0,1,5.349-3.087,2.214,2.214,0,0,1,1.545.559,2.879,2.879,0,0,1,.4,2.591c-.955,4.814-4.3,8.917-7.833,12.467-2.951,2.965-4.98,5.623-7.65,8.826q7.65-1.9,15.439-3.142a37.575,37.575,0,0,1,14.525-18.565,7.707,7.707,0,0,1,5.921-1.72,2.221,2.221,0,0,1,1.368.914,2.882,2.882,0,0,1-.235,2.61c-2.075,4.445-6.3,7.641-10.587,10.234a105.111,105.111,0,0,0-8.77,6.175,179.27,179.27,0,0,1,25.126-1.907,34.694,34.694,0,0,1,20.391-.206,6.966,6.966,0,0,1,4.776,3.376,2.254,2.254,0,0,1,.118,1.621,2.89,2.89,0,0,1-2.1,1.5c-4.555,1.29-9.43.137-13.9-1.428a75.97,75.97,0,0,0-7.883-2.2c-.18,0-.358-.012-.537-.012q-7.6,0-15.18.669a34.71,34.71,0,0,1,16.682,7.643,6.967,6.967,0,0,1,3.042,5,2.262,2.262,0,0,1-.532,1.53,2.9,2.9,0,0,1-2.519.545c-4.692-.622-8.713-3.611-12.191-6.822-3.116-2.874-5.88-4.745-9.332-7.4q-7.892.905-15.686,2.507a34.7,34.7,0,0,1,16.622,5.472,6.968,6.968,0,0,1,3.629,4.584,2.259,2.259,0,0,1-.341,1.59,2.9,2.9,0,0,1-2.433.849c-4.733-.045-9.089-2.519-12.933-5.278-3.363-2.413-6.268-3.906-9.895-6.038q-8.895,2.107-17.558,5.095a34.7,34.7,0,0,1,19.258,5.541,6.971,6.971,0,0,1,3.629,4.585,2.254,2.254,0,0,1-.341,1.588,2.893,2.893,0,0,1-2.432.849c-4.735-.045-9.089-2.521-12.933-5.28-3.459-2.481-6.441-4-10.217-6.228A188.734,188.734,0,0,0,246.02,212.3a34.7,34.7,0,0,1,20.7,3.416A6.976,6.976,0,0,1,270.8,219.9a2.261,2.261,0,0,1-.177,1.614,2.9,2.9,0,0,1-2.332,1.1c-4.711.446-9.3-1.566-13.41-3.912-3.761-2.147-6.928-3.351-11.013-5.234q-7.632,4.146-14.859,8.977a37.039,37.039,0,0,1,19.518,2,7.824,7.824,0,0,1,4.645,3.49,1.872,1.872,0,0,1,.111,1.444c-.3.71-1.211.983-2.049,1.1-4.448.66-9.2-.871-13.564-2.725-3.795-1.615-6.906-2.5-10.855-3.822-.508.35-1.013.707-1.518,1.063,2.493,2.137,3.968,5.525,2.9,8.68-.892,2.641-3.126,4.94-2.939,7.72.252,3.786,4.932,5.762,8.68,5.172s7.058-2.775,10.735-3.713,8.44,0,9.732,3.57c1.158,3.2-.84,7.5,1.672,9.788a6.845,6.845,0,0,0,4.085,1.322c31.839,3.022,66.908,8.734,63.344,14.391-.974,1.547-3.464,1.055-5.29,1.025-67.772-1.06-129.329-2.073-197.082,0Z" transform="translate(86.596 65.749)" fill="#dbd3ee"/>
      <path id="Path_7788" data-name="Path 7788" d="M28.917,141.785c16.03,37.318,46.957,67.813,84.011,84.332l-.967,2.169c-37.593-16.766-68.936-47.662-85.225-85.563Z" transform="translate(19.112 101.352)" fill="#dbd3ee"/>
      <path id="Path_7789" data-name="Path 7789" d="M72.473,198.289a33.056,33.056,0,0,1-8.247-19.33,6.988,6.988,0,0,1,.995-5.088,1.66,1.66,0,0,1,1.118-.65c.681-.034,1.257.588,1.684,1.214,2.26,3.316,2.881,7.727,3.085,11.944s.842,7.343,1.363,11.911" transform="translate(45.824 123.823)" fill="#c3ecfe"/>
      <path id="Path_7790" data-name="Path 7790" d="M34.679,158.151a30.969,30.969,0,0,1-10.661-18.736,6.215,6.215,0,0,1,.852-5.148,2.024,2.024,0,0,1,1.254-.725,2.589,2.589,0,0,1,2.02,1.1c2.807,3.154,3.781,7.516,4.261,11.712s1.4,7.273,2.27,11.8" transform="translate(17.009 95.459)" fill="#dbd3ee"/>
      <path id="Path_7791" data-name="Path 7791" d="M35.988,166.224A30.97,30.97,0,0,1,33.63,144.8a6.23,6.23,0,0,1,2.824-4.388,2.02,2.02,0,0,1,1.44-.17,2.58,2.58,0,0,1,1.418,1.807c1.327,4.009.49,8.4-.731,12.443s-1.6,7.233-2.595,11.731" transform="translate(23.374 100.201)" fill="#dbd3ee"/>
      <path id="Path_7792" data-name="Path 7792" d="M43.367,175.408a30.961,30.961,0,0,1-4.958-20.979,6.207,6.207,0,0,1,2.267-4.7,2.01,2.01,0,0,1,1.408-.341,2.581,2.581,0,0,1,1.629,1.622c1.806,3.817,1.512,8.279.794,12.443s-.7,7.374-1.14,11.961" transform="translate(27.288 106.776)" fill="#dbd3ee"/>
      <path id="Path_7793" data-name="Path 7793" d="M50.934,183.461a30.961,30.961,0,0,1-4.958-20.979,6.211,6.211,0,0,1,2.265-4.7,2.016,2.016,0,0,1,1.41-.341,2.581,2.581,0,0,1,1.629,1.622c1.806,3.817,1.512,8.279.794,12.443s-.7,7.374-1.14,11.961" transform="translate(32.697 112.532)" fill="#dbd3ee"/>
      <path id="Path_7794" data-name="Path 7794" d="M63.076,192.636a30.985,30.985,0,0,1-7.106-20.352,6.219,6.219,0,0,1,1.771-4.91,2.02,2.02,0,0,1,1.362-.487,2.588,2.588,0,0,1,1.79,1.446c2.192,3.608,2.361,8.075,2.077,12.29s.067,7.406.106,12.014" transform="translate(39.992 119.297)" fill="#dbd3ee"/>
      <path id="Path_7795" data-name="Path 7795" d="M47.666,163.094a33.556,33.556,0,0,1-22.18-4.261,6.884,6.884,0,0,1-3.69-4.09,1.982,1.982,0,0,1,.2-1.454,2.564,2.564,0,0,1,2.186-.827c4.376-.067,8.584,2.09,12.338,4.515s6.87,3.768,11.143,6.112" transform="translate(15.54 108.973)" fill="#dbd3ee"/>
      <path id="Path_7796" data-name="Path 7796" d="M53.576,167.763a33.552,33.552,0,0,1-22.552,1.163,6.885,6.885,0,0,1-4.56-3.092,1.98,1.98,0,0,1-.154-1.459,2.569,2.569,0,0,1,1.927-1.326c4.236-1.108,8.833-.017,13.058,1.44s7.571,2.018,12.273,3.275" transform="translate(18.754 116.228)" fill="#dbd3ee"/>
      <path id="Path_7797" data-name="Path 7797" d="M61.548,174.193a33.547,33.547,0,0,1-21.864,5.65,6.89,6.89,0,0,1-5.086-2.116,1.984,1.984,0,0,1-.441-1.4c.11-.789.88-1.319,1.621-1.684,3.92-1.933,8.651-1.785,13.084-1.2s7.82.463,12.686.751" transform="translate(24.413 123.705)" fill="#dbd3ee"/>
      <path id="Path_7798" data-name="Path 7798" d="M72.615,185.443a33.56,33.56,0,0,1-22.572.66,6.88,6.88,0,0,1-4.489-3.193,1.976,1.976,0,0,1-.122-1.463,2.569,2.569,0,0,1,1.955-1.283c4.261-1.013,8.833.178,13.024,1.73s7.523,2.186,12.2,3.546" transform="translate(32.414 128.519)" fill="#dbd3ee"/>
      <path id="Path_7799" data-name="Path 7799" d="M81.108,188.453a33.556,33.556,0,0,1-19.859,10.752,6.878,6.878,0,0,1-5.455-.828,1.983,1.983,0,0,1-.765-1.252A2.565,2.565,0,0,1,56.2,195.1c3.346-2.823,7.967-3.819,12.409-4.32s7.7-1.434,12.494-2.327" transform="translate(39.336 134.712)" fill="#c3ecfe"/>
      <path id="Path_7800" data-name="Path 7800" d="M80.837,97.1a.4.4,0,0,0,.377-.37l.141-2.012a.4.4,0,0,0-.791-.1l0,.048-.142,2.01a.4.4,0,0,0,.367.425h.053" transform="translate(57.485 67.386)" fill="#c3b7df"/>
      <path id="Path_7801" data-name="Path 7801" d="M75.393,184.953l5.316.374,5.914-85.712-2.656-.185-2.66-.187Z" transform="translate(53.893 70.941)" fill="#c3b7df"/>
      <path id="Path_7802" data-name="Path 7802" d="M81.46,95.2l1.075.077,1.622,7.228-5.316-.372Z" transform="translate(56.359 68.053)" fill="#dbd3ee"/>
      <path id="Path_7803" data-name="Path 7803" d="M98.007,107.26,80.08,177.554l3.409.869,22.18-69.2" transform="translate(57.244 76.673)" fill="#c3b7df"/>
      <path id="Path_7804" data-name="Path 7804" d="M105.318,125.1c9.152,2.336,18.9-4.772,21.717-15.824s-2.334-21.96-11.488-24.292-18.9,4.772-21.717,15.824,2.332,21.958,11.486,24.292m8.662-33.967c5.762,1.47,8.864,8.905,6.906,16.574s-8.236,12.714-14,11.251-8.864-8.905-6.9-16.576,8.236-12.712,14-11.249" transform="translate(66.521 60.434)" fill="#dbd3ee"/>
      <path id="Path_7805" data-name="Path 7805" d="M97.007,96.824,91.552,118.2a2.01,2.01,0,0,0,3.894.993l.614-2.414s2.864-6.107,10.776-3.581c0,0-9.437-1.18-9.757-1.156S97.3,95.667,97,96.833" transform="translate(65.408 69.177)" fill="#c0edff"/>
      <path id="Path_7806" data-name="Path 7806" d="M93.548,125.182a5.188,5.188,0,0,0,6.307-3.742,8.341,8.341,0,0,1,.979-2.612c1.024-1.454,3.116-2,6.942-1.022l.967-5.4c-2.01-.645-3.455-1.612-5.074-1.5-.866-.1-1.584-.192-2.188-.262,0-1.655.039-3.838.063-5.51.026-1.778-2.282-3.778-2.277-5.054,0-2.291,2.358-4.6-.485-4.987l-2.8-.37-6.175,24.165a5.188,5.188,0,0,0,3.742,6.307" transform="translate(64.083 67.709)" fill="#dbd3ee"/>
      <path id="Path_7807" data-name="Path 7807" d="M92.292,106.89l-.053,72.543H88.72l-4.337-72.548" transform="translate(60.32 76.405)" fill="#c3b7df"/>
      <path id="Path_7808" data-name="Path 7808" d="M103.677,101.968c0-11.421-7.672-20.708-17.119-20.715s-17.14,9.274-17.148,20.689,7.67,20.707,17.116,20.713,17.141-9.274,17.152-20.688m-6.35,0c0,7.916-4.85,14.35-10.795,14.346s-10.783-6.448-10.776-14.362,4.85-14.35,10.8-14.345,10.779,6.446,10.773,14.362" transform="translate(49.617 58.082)" fill="#dbd3ee"/>
      <path id="Path_7809" data-name="Path 7809" d="M93.2,95.748c0,1.2-.017,22.058-.017,22.058a2.01,2.01,0,1,1-4.018.118v-2.608s-1.259-6.624-9.545-6.146c0,0,9.437,1.192,9.742,1.3s3.841-15.919,3.84-14.715" transform="translate(56.919 68.401)" fill="#c0edff"/>
      <path id="Path_7810" data-name="Path 7810" d="M91.341,124.312a5.187,5.187,0,0,1-5.177-5.186,8.319,8.319,0,0,0-.3-2.773c-.631-1.663-2.523-2.711-6.477-2.715l.4-5.474c2.106-.127,3.75-.707,5.285-.2.864.111,1.585.206,2.186.286.4-1.607.912-3.728,1.3-5.354.417-1.729,3.147-3.094,3.457-4.333.561-2.216-1.142-5.045,1.7-4.709l2.8.34v24.942a5.192,5.192,0,0,1-5.187,5.179" transform="translate(56.746 67.075)" fill="#dbd3ee"/>
      <path id="Path_7811" data-name="Path 7811" d="M77.1,175.508l9.123-1.646L72.053,95.393a1.182,1.182,0,0,0-1.372-.953h0l-6.8,1.228a1.183,1.183,0,0,0-.953,1.374Z" transform="translate(44.971 67.495)" fill="#c3b7df"/>
      <path id="Path_7812" data-name="Path 7812" d="M64.292,104.583l9.123-1.646-1.363-7.544a1.183,1.183,0,0,0-1.375-.952l-6.8,1.226a1.2,1.2,0,0,0-.952,1.375Z" transform="translate(44.971 67.496)" fill="#c3b7df"/>
    </g>
  </g>
  <g id="Group_9205" data-name="Group 9205" transform="translate(109.259 170.437)">
    <g id="Group_9204" data-name="Group 9204" clip-path="url(#clip-path-2)">
      <path id="Path_7813" data-name="Path 7813" d="M63.719,100.35l.494,2.732-.005,0h0l-.492-2.732Z" transform="translate(-63.714 -98.704)" fill="#fbb9c5"/>
      <path id="Path_7814" data-name="Path 7814" d="M72.836,99.39h0l.494,2.732-9.119,1.648-.494-2.732Z" transform="translate(-63.712 -99.39)" fill="#e19ab7"/>
    </g>
  </g>
  <g id="Group_9207" data-name="Group 9207">
    <g id="Group_9206" data-name="Group 9206" clip-path="url(#clip-path)">
      <rect id="Rectangle_3666" data-name="Rectangle 3666" width="16" height="86.568" transform="matrix(0.93, -0.367, 0.367, 0.93, 83.156, 180.478)" fill="#c3b7df"/>
      <path id="Path_7815" data-name="Path 7815" d="M54.631,107.191l-4.908,1.934-.871-2.209,4.908-1.934" transform="translate(34.921 75.044)" fill="#dbd3ee"/>
      <path id="Path_7816" data-name="Path 7816" d="M55.593,109.63l-4.908,1.934-.871-2.209,4.908-1.934" transform="translate(35.609 76.788)" fill="#dbd3ee"/>
      <path id="Path_7817" data-name="Path 7817" d="M56.555,112.07,51.647,114l-.871-2.209,4.908-1.934" transform="translate(36.296 78.532)" fill="#dbd3ee"/>
      <path id="Path_7818" data-name="Path 7818" d="M59.916,113.959l-7.307,2.881-.871-2.209,7.307-2.881" transform="translate(36.984 79.882)" fill="#dbd3ee"/>
      <path id="Path_7819" data-name="Path 7819" d="M58.478,116.95l-4.908,1.934-.871-2.209,4.908-1.934" transform="translate(37.671 82.021)" fill="#dbd3ee"/>
      <path id="Path_7820" data-name="Path 7820" d="M59.44,119.39l-4.908,1.934-.871-2.209,4.908-1.934" transform="translate(38.358 83.765)" fill="#dbd3ee"/>
      <path id="Path_7821" data-name="Path 7821" d="M60.4,121.83l-4.908,1.934-.871-2.209,4.908-1.934" transform="translate(39.046 85.509)" fill="#dbd3ee"/>
      <path id="Path_7822" data-name="Path 7822" d="M63.764,123.718,56.456,126.6l-.871-2.209,7.309-2.881" transform="translate(39.734 86.859)" fill="#dbd3ee"/>
      <path id="Path_7823" data-name="Path 7823" d="M62.325,126.71l-4.908,1.934-.871-2.209,4.908-1.934" transform="translate(40.421 88.998)" fill="#dbd3ee"/>
      <path id="Path_7824" data-name="Path 7824" d="M63.286,129.15l-4.908,1.934-.871-2.209,4.908-1.934" transform="translate(41.108 90.741)" fill="#dbd3ee"/>
      <path id="Path_7825" data-name="Path 7825" d="M65.879,243.019h74.244l12.47-112.313a2.411,2.411,0,0,0-2.13-2.661l-.268-.015H55.8a2.412,2.412,0,0,0-2.413,2.409l.015.268Z" transform="translate(38.166 91.519)" fill="#dbd3ee"/>
      <path id="Path_7826" data-name="Path 7826" d="M193.668,224.639l-155.8,1.828c-1.5.019-6.23-1.444,1.921-6.7,6.9-4.452,28.723-.446,28.723-.446s-5.081-2.036-5.057-4.664a7.122,7.122,0,0,1,4.407-6.028,16.339,16.339,0,0,1,7.737-1.024,49.349,49.349,0,0,1,15.588,3.488,4.521,4.521,0,0,1,4.745-7.7,4.465,4.465,0,0,1,.5.357c-3.351-4.539-8.533-24.652,7.391-33.52,19.959-11.11,35.113-1.967,38.35,4.719,1.643-6.563,9.173-11.534,14.134-12.765,11.313-2.809,18.681-1.976,29.243,2.955,3.737,1.746,8.739,7.7,11.222,11,3.891,5.156,4.5,12.011,4.711,18.465q.242,7.269.067,14.542" transform="translate(25.119 114.794)" fill="#f1ebff"/>
      <rect id="Rectangle_3667" data-name="Rectangle 3667" width="55.104" height="33.735" transform="translate(193.381 315.304) rotate(-60.166)" fill="#ffb432"/>
      <line id="Line_257" data-name="Line 257" x2="29.264" y2="16.783" transform="translate(216.608 274.804)" fill="none" stroke="#e9a530" stroke-miterlimit="10" stroke-width="0.111"/>
      <line id="Line_258" data-name="Line 258" x2="29.264" y2="16.783" transform="translate(212.002 282.835)" fill="none" stroke="#e9a530" stroke-miterlimit="10" stroke-width="0.416"/>
      <line id="Line_259" data-name="Line 259" x2="29.264" y2="16.783" transform="translate(207.396 290.866)" fill="none" stroke="#e9a530" stroke-miterlimit="10" stroke-width="0.416"/>
      <line id="Line_260" data-name="Line 260" x2="29.264" y2="16.783" transform="translate(202.79 298.897)" fill="none" stroke="#e9a530" stroke-miterlimit="10" stroke-width="0.416"/>
      <line id="Line_261" data-name="Line 261" x2="29.264" y2="16.783" transform="translate(198.184 306.929)" fill="none" stroke="#e9a530" stroke-miterlimit="10" stroke-width="0.416"/>
      <path id="Path_7827" data-name="Path 7827" d="M150.888,209.1l-4.575,7.977L101.65,191.466l4.575-7.977A25.743,25.743,0,0,1,150.888,209.1" transform="translate(72.663 121.911)" fill="#9594a8"/>
      <rect id="Rectangle_3668" data-name="Rectangle 3668" width="7.755" height="51.487" transform="matrix(0.497, -0.867, 0.867, 0.497, 174.309, 313.376)" fill="#3a2372"/>
      <path id="Path_7828" data-name="Path 7828" d="M147.213,191.813c-3.977,5.909-14.514,6.383-23.984.953-8.914-5.112-13.794-13.691-11.759-20.033a25.753,25.753,0,0,1,35.742,19.079" transform="translate(79.354 121.91)" fill="#b6b6cf"/>
      <rect id="Rectangle_3669" data-name="Rectangle 3669" width="33.735" height="55.104" transform="translate(249.762 288.398) rotate(-18.693)" fill="#ffb432"/>
      <line id="Line_262" data-name="Line 262" y1="10.812" x2="31.954" transform="translate(252.46 285.558)" fill="none" stroke="#e9a530" stroke-miterlimit="10" stroke-width="0.416"/>
      <line id="Line_263" data-name="Line 263" y1="10.812" x2="31.954" transform="translate(255.427 294.328)" fill="none" stroke="#e9a530" stroke-miterlimit="10" stroke-width="0.416"/>
      <line id="Line_264" data-name="Line 264" y1="10.812" x2="31.954" transform="translate(258.395 303.098)" fill="none" stroke="#e9a530" stroke-miterlimit="10" stroke-width="0.416"/>
      <line id="Line_265" data-name="Line 265" y1="10.812" x2="31.954" transform="translate(261.362 311.868)" fill="none" stroke="#e9a530" stroke-miterlimit="10" stroke-width="0.416"/>
      <line id="Line_266" data-name="Line 266" y1="10.812" x2="31.954" transform="translate(264.33 320.638)" fill="none" stroke="#e9a530" stroke-miterlimit="10" stroke-width="0.416"/>
      <path id="Path_7829" data-name="Path 7829" d="M205.03,195.526l2.948,8.71-48.772,16.5-2.948-8.711a25.744,25.744,0,1,1,48.772-16.5" transform="translate(110.724 127.259)" fill="#9594a8"/>
      <rect id="Rectangle_3670" data-name="Rectangle 3670" width="51.486" height="7.756" transform="matrix(0.947, -0.321, 0.321, 0.947, 267.444, 340.652)" fill="#3a2372"/>
      <path id="Path_7830" data-name="Path 7830" d="M194.19,182.277c1.216,6.748-5.319,14.557-15.325,17.944-10.059,3.4-20.029,1.127-23.1-5.042a25.747,25.747,0,0,1,38.429-12.9" transform="translate(111.343 127.259)" fill="#b6b6cf"/>
      <path id="Path_7831" data-name="Path 7831" d="M193.571,191.9l-62.8-12.148a10.075,10.075,0,0,1-7.979-11.8l1.859-9.606a10.075,10.075,0,0,1,11.8-7.977l62.8,12.148a10.073,10.073,0,0,1,7.977,11.8l-1.857,9.606a10.075,10.075,0,0,1-11.8,7.977" transform="translate(87.641 107.352)" fill="#b6b6cf"/>
      <path id="Path_7832" data-name="Path 7832" d="M184.622,157.923,139.5,149.195a6.55,6.55,0,1,1,2.488-12.861l45.124,8.728a6.55,6.55,0,1,1-2.488,12.861" transform="translate(95.923 97.369)" fill="#46249b"/>
      <path id="Path_7833" data-name="Path 7833" d="M183.171,165.423l-45.124-8.728a6.55,6.55,0,1,1,2.488-12.861l45.124,8.728a6.55,6.55,0,1,1-2.488,12.861" transform="translate(94.886 102.73)" fill="#46249b"/>
      <path id="Path_7834" data-name="Path 7834" d="M192.3,150.523h0a6.552,6.552,0,0,1-7.676,5.187L139.5,146.982a6.547,6.547,0,0,1-5.187-7.674Z" transform="translate(95.924 99.582)" fill="#42248e"/>
      <path id="Path_7835" data-name="Path 7835" d="M190.846,158.023h0a6.552,6.552,0,0,1-7.676,5.187l-45.122-8.728a6.547,6.547,0,0,1-5.187-7.674Z" transform="translate(94.887 104.943)" fill="#42248e"/>
      <path id="Path_7836" data-name="Path 7836" d="M205.375,176.515a10.073,10.073,0,0,1-11.8,7.977l-62.8-12.146a10.077,10.077,0,0,1-7.979-11.8Z" transform="translate(87.641 114.76)" fill="#9594a8"/>
      <path id="Path_7837" data-name="Path 7837" d="M142.631,123.674A14.085,14.085,0,1,1,143.946,121a14.08,14.08,0,0,1-1.315,2.675" transform="translate(83.379 72.965)" fill="#e9a530"/>
      <path id="Path_7838" data-name="Path 7838" d="M142.625,121a14.082,14.082,0,0,1-23.275-14.7A14.082,14.082,0,0,1,142.625,121" transform="translate(84.7 72.965)" fill="#ffb432"/>
      <path id="Path_7839" data-name="Path 7839" d="M104.923,74.083a64.1,64.1,0,0,0,21.458,64s11.75,1.96,7.914-12.381a49.531,49.531,0,0,1-15.476-47.134c-4.872-13.232-13.9-4.488-13.9-4.488" transform="translate(73.774 50.931)" fill="#a6a5bc"/>
      <path id="Path_7840" data-name="Path 7840" d="M144.642,72.862q.306-.941.528-1.89l-11.719-3.815a10.853,10.853,0,0,1-.446,1.917A11.419,11.419,0,0,1,111.289,62a10.865,10.865,0,0,1,.77-1.809l-11.714-3.814c-.254.6-.48,1.211-.684,1.838a23.653,23.653,0,1,0,44.982,14.643" transform="translate(70.405 40.303)" fill="#3a2372"/>
      <path id="Path_7841" data-name="Path 7841" d="M211.464,142.154a14.082,14.082,0,1,1,.619-2.917,14.085,14.085,0,0,1-.619,2.917" transform="translate(131.521 88.426)" fill="#e9a530"/>
      <path id="Path_7842" data-name="Path 7842" d="M211.314,139.237a14.082,14.082,0,0,1-26.173-8.542,14.082,14.082,0,0,1,26.173,8.542" transform="translate(132.29 88.425)" fill="#ffb432"/>
      <path id="Path_7843" data-name="Path 7843" d="M241.987,112.241a49.534,49.534,0,0,1-40.28,28.962c-11.549,9.327-.9,14.667-.9,14.667a64.1,64.1,0,0,0,55.05-39.066s-2.138-12.381-13.87-4.563" transform="translate(140.343 78.383)" fill="#a6a5bc"/>
      <path id="Path_7844" data-name="Path 7844" d="M218.479,96.516q.306-.941.686-1.838L230.883,98.5a10.888,10.888,0,0,0-.772,1.811,11.421,11.421,0,0,0,21.715,7.086,11,11,0,0,0,.444-1.917L263.98,109.3q-.224.947-.53,1.888a23.653,23.653,0,1,1-44.971-14.676" transform="translate(155.337 67.679)" fill="#3a2372"/>
      <path id="Path_7845" data-name="Path 7845" d="M222.057,46.384a23.64,23.64,0,0,0-29.807,15.14l-13.463-4.393a37.8,37.8,0,0,1,47.664-24.21Z" transform="translate(127.803 22.192)" fill="#a6a5bc"/>
      <path id="Path_7846" data-name="Path 7846" d="M256.969,54.188l6.077-18.621-18.628-6.079-2.032,1.037-6.254,3.183-3.181-6.263-1.027-2.035L213.3,19.33l-6.077,18.621,1.029,2.035,3.179,6.261-6.252,3.176-2.036,1.029L197.06,69.081l18.621,6.077,8.3-4.215,3.179,6.261,1.029,2.035,2.164.707,11.224,3.67,5.232,1.708,6.081-18.635-1.031-2.029-3.176-6.252,6.254-3.183Z" transform="translate(140.865 13.818)" fill="#c7c7e3"/>
      <path id="Path_7847" data-name="Path 7847" d="M225.12,34.489l-3.663,11.227L210.23,42.052,206.446,34.6l3.665-11.227,11.227,3.665Z" transform="translate(147.574 16.71)" fill="#4a25a9"/>
      <path id="Path_7848" data-name="Path 7848" d="M240.8,32.38l-3.663,11.227L229.7,47.392l-11.225-3.663L222.134,32.5l7.442-3.785Z" transform="translate(156.17 20.528)" fill="#ffb432"/>
      <path id="Path_7849" data-name="Path 7849" d="M233.935,51.849l-3.666,11.234-11.217-3.67-3.785-7.449,3.665-11.225L230.157,44.4Z" transform="translate(153.88 29.121)" fill="#4a25a9"/>
      <path id="Path_7850" data-name="Path 7850" d="M223.443,41.2l-3.661,11.22L212.333,56.2l-11.227-3.663,3.663-11.227,7.448-3.776Z" transform="translate(143.757 26.834)" fill="#4a25a9"/>
      <path id="Path_7851" data-name="Path 7851" d="M212.281,177.131l-81.014-26.439a10.073,10.073,0,0,1-6.453-12.7l7.5-22.992a10.072,10.072,0,0,1,12.7-6.449l81.014,26.436a10.076,10.076,0,0,1,6.451,12.7l-7.5,22.992a10.075,10.075,0,0,1-12.7,6.451" transform="translate(88.864 77.235)" fill="#b6b6cf"/>
      <path id="Path_7852" data-name="Path 7852" d="M228.847,151.295l-3.863,11.837a10.074,10.074,0,0,1-12.7,6.451l-81.014-26.438a10.076,10.076,0,0,1-6.451-12.7l3.862-11.837Z" transform="translate(88.865 84.783)" fill="#9594a8"/>
      <path id="Path_7853" data-name="Path 7853" d="M145.966,127.209a7.645,7.645,0,1,1-4.9-9.641,7.645,7.645,0,0,1,4.9,9.641" transform="translate(93.679 83.77)" fill="#8fcc21"/>
      <path id="Path_7854" data-name="Path 7854" d="M158.256,131.22a7.645,7.645,0,1,1-4.9-9.641,7.645,7.645,0,0,1,4.9,9.641" transform="translate(102.464 86.638)" fill="#ea1c24"/>
      <path id="Path_7855" data-name="Path 7855" d="M193.628,145.2l-34.49-11.256a3.44,3.44,0,1,1,2.135-6.54l34.49,11.256a3.44,3.44,0,0,1-2.135,6.54" transform="translate(112.06 90.95)" fill="#fff"/>
      <path id="Path_7856" data-name="Path 7856" d="M191.3,123.7A21.05,21.05,0,1,1,177.82,97.152,21.136,21.136,0,0,1,191.3,123.7" transform="translate(107.392 68.7)" fill="#e9a530"/>
      <path id="Path_7857" data-name="Path 7857" d="M191.132,123.7a21.136,21.136,0,0,1-.945,2.384,23.68,23.68,0,0,1-39.721-12.962,21.284,21.284,0,0,1,.643-2.481,21.05,21.05,0,1,1,40.022,13.06" transform="translate(107.558 68.7)" fill="#ffb432"/>
      <path id="Path_7858" data-name="Path 7858" d="M243.96,176.722,139.051,142.485a24.781,24.781,0,0,1-15.871-31.248l18.733-57.4a24.783,24.783,0,0,1,31.248-15.871L278.069,72.2a24.783,24.783,0,0,1,15.871,31.248l-18.733,57.4a24.781,24.781,0,0,1-31.248,15.871" transform="translate(87.175 26.261)" fill="#c7c7e3"/>
      <path id="Path_7859" data-name="Path 7859" d="M283.27,115.387l-8.063,24.707a24.782,24.782,0,0,1-31.248,15.871L139.051,121.728A24.781,24.781,0,0,1,123.181,90.48l8.063-24.707Z" transform="translate(87.175 47.017)" fill="#b6b6cf"/>
      <path id="Path_7860" data-name="Path 7860" d="M237.275,150.705l-96.921-31.63a10.073,10.073,0,0,1-6.451-12.7L150.767,54.7a10.073,10.073,0,0,1,12.7-6.451l96.921,31.628a10.075,10.075,0,0,1,6.451,12.7l-16.864,51.676a10.075,10.075,0,0,1-12.7,6.451" transform="translate(95.361 34.13)" fill="#4a25a9"/>
      <path id="Path_7861" data-name="Path 7861" d="M180.588,93.162a8.225,8.225,0,1,1-5.268-10.371,8.227,8.227,0,0,1,5.268,10.371" transform="translate(117.62 58.89)" fill="#ffcd32"/>
      <path id="Path_7862" data-name="Path 7862" d="M168.374,61.914a14.116,14.116,0,0,1,9.03,17.778,1.72,1.72,0,0,1-3.27-1.067,10.661,10.661,0,1,0-20.269-6.614,1.719,1.719,0,1,1-3.268-1.067,14.114,14.114,0,0,1,17.778-9.03" transform="translate(107.59 43.759)" fill="#ffcd32"/>
      <path id="Path_7863" data-name="Path 7863" d="M198.922,71.638a14.116,14.116,0,0,1,9.03,17.778,1.72,1.72,0,0,1-3.27-1.067,10.661,10.661,0,1,0-20.269-6.614,1.719,1.719,0,0,1-3.268-1.067,14.114,14.114,0,0,1,17.778-9.03" transform="translate(129.427 50.711)" fill="#ffcd32"/>
      <path id="Path_7864" data-name="Path 7864" d="M143.529,54.7a10.073,10.073,0,0,1,12.7-6.451l96.919,31.628a10.074,10.074,0,0,1,6.453,12.7Z" transform="translate(102.599 34.13)" fill="#42248e"/>
    </g>
  </g>
</svg>
