<svg xmlns="http://www.w3.org/2000/svg" width="32" height="32" viewBox="0 0 32 32">
  <g id="lock" transform="translate(-1107 -438)">
    <g id="Group_13" data-name="Group 13" transform="translate(-7.8 4)">
      <path id="Icon_material-lock-outline" data-name="Icon material-lock-outline" d="M15.143,19.786A2.286,2.286,0,1,0,12.857,17.5,2.292,2.292,0,0,0,15.143,19.786ZM22,9.5H20.857V7.214a5.714,5.714,0,1,0-11.429,0V9.5H8.286A2.292,2.292,0,0,0,6,11.786V23.214A2.292,2.292,0,0,0,8.286,25.5H22a2.292,2.292,0,0,0,2.286-2.286V11.786A2.292,2.292,0,0,0,22,9.5ZM11.6,7.214a3.543,3.543,0,0,1,7.086,0V9.5H11.6Zm10.4,16H8.286V11.786H22Z" transform="translate(1115.8 436.5)" fill="#c7c7c7"/>
      <rect id="Rectangle_10" data-name="Rectangle 10" width="16" height="14" transform="translate(1123 447)" fill="#c7c7c7" opacity="0.3"/>
    </g>
    <rect id="Rectangle_12" data-name="Rectangle 12" width="32" height="32" transform="translate(1107 438)" fill="none"/>
  </g>
</svg>
