<?xml version="1.0" encoding="UTF-8"?>
<svg version="1.1" xmlns="http://www.w3.org/2000/svg" width="196" height="57">
<path d="M0 0 C64.68 0 129.36 0 196 0 C196 18.81 196 37.62 196 57 C131.32 57 66.64 57 0 57 C0 38.19 0 19.38 0 0 Z " fill="#F8F8F9" transform="translate(0,0)"/>
<path d="M0 0 C1.22551323 0.00636726 1.22551323 0.00636726 2.4757843 0.01286316 C5.08445232 0.02965184 7.69234687 0.06730356 10.30078125 0.10546875 C12.0696503 0.12051538 13.83853146 0.13420383 15.60742188 0.14648438 C19.94300621 0.17955589 24.27801261 0.23133885 28.61328125 0.29296875 C29.22192383 2.08056641 29.22192383 2.08056641 29.61328125 4.29296875 C28.27647569 6.90649872 26.91145813 9.232453 25.30078125 11.66796875 C24.85234863 12.36535156 24.40391602 13.06273437 23.94189453 13.78125 C19.39631641 20.7807758 14.55236318 27.56741037 9.61328125 34.29296875 C6.26507227 32.82671019 3.92061766 30.95638428 1.30078125 28.41796875 C0.58277344 27.73992188 -0.13523437 27.061875 -0.875 26.36328125 C-2.38671875 24.29296875 -2.38671875 24.29296875 -2.1171875 22.03515625 C-1.87613281 21.46023437 -1.63507812 20.8853125 -1.38671875 20.29296875 C2.45229993 20.84139999 3.9749163 22.56949525 6.61328125 25.29296875 C7.60328125 25.62296875 8.59328125 25.95296875 9.61328125 26.29296875 C9.82726562 25.63941406 10.04125 24.98585938 10.26171875 24.3125 C12.11018411 20.18283606 14.64040969 16.67025938 17.23828125 12.98046875 C19.01203125 10.44359375 20.78578125 7.90671875 22.61328125 5.29296875 C13.04328125 5.62296875 3.47328125 5.95296875 -6.38671875 6.29296875 C-6.71671875 17.18296875 -7.04671875 28.07296875 -7.38671875 39.29296875 C3.50328125 39.29296875 14.39328125 39.29296875 25.61328125 39.29296875 C25.61328125 32.36296875 25.61328125 25.43296875 25.61328125 18.29296875 C26.93328125 17.63296875 28.25328125 16.97296875 29.61328125 16.29296875 C32.15055758 18.83024508 30.84762048 25.75783631 30.86328125 29.16796875 C30.88390625 30.28300781 30.90453125 31.39804687 30.92578125 32.546875 C30.93351562 34.14982422 30.93351562 34.14982422 30.94140625 35.78515625 C30.95075195 36.7685498 30.96009766 37.75194336 30.96972656 38.76513672 C30.61328125 41.29296875 30.61328125 41.29296875 29.59667969 43.11230469 C26.43380876 44.99507719 23.12707387 44.71988623 19.55078125 44.69140625 C18.36923462 44.69571152 18.36923462 44.69571152 17.16381836 44.70010376 C15.4995044 44.70214397 13.83516644 44.69661707 12.17089844 44.68408203 C9.62250178 44.66802684 7.07569104 44.68393119 4.52734375 44.703125 C2.91015275 44.70114256 1.29296273 44.69729886 -0.32421875 44.69140625 C-1.4680603 44.70051529 -1.4680603 44.70051529 -2.63500977 44.70980835 C-7.92932058 44.63937655 -7.92932058 44.63937655 -10.08731079 43.0050354 C-12.34453076 40.03098017 -11.81218613 36.38189103 -11.78515625 32.79296875 C-11.78802643 31.96087891 -11.79089661 31.12878906 -11.79385376 30.27148438 C-11.79589437 28.51301391 -11.79036468 26.75452074 -11.77783203 24.99609375 C-11.76177777 22.30286962 -11.7776802 19.61114615 -11.796875 16.91796875 C-11.79489257 15.2096321 -11.79104889 13.50129639 -11.78515625 11.79296875 C-11.79122894 10.98666016 -11.79730164 10.18035156 -11.80355835 9.34960938 C-11.73307784 3.75320168 -11.73307784 3.75320168 -10.09602356 1.57792664 C-7.13910629 -0.64491515 -3.55142124 -0.06926998 0 0 Z " fill="#282D34" transform="translate(16.38671875,3.70703125)"/>
<path d="M0 0 C4.11843257 1.891117 6.1461153 3.85707439 8 8 C8.80983332 13.82934071 8.7949869 19.22656769 6.375 24.625 C2.64784928 28.35215072 -0.74230693 30.12645327 -6 30.4375 C-10.26074445 30.25012501 -12.77844151 28.84695866 -16 26 C-19.43368396 21.42175472 -19.70392998 16.5596862 -19.5234375 10.9921875 C-18.7887115 6.79218665 -17.36385872 4.34340009 -14.3359375 1.37109375 C-9.84892421 -1.26258796 -4.98694536 -0.99874791 0 0 Z " fill="#282E38" transform="translate(77,10)"/>
<path d="M0 0 C4.39127399 1.23263831 6.00652353 2.20476222 8.5625 6 C9.36604685 10.66057173 9.13275743 14.63138216 7.3125 19 C5.37836503 21.21043996 4.39605913 22.21290024 1.5625 23 C-4.99305556 22.44444444 -4.99305556 22.44444444 -6.4375 21 C-6.7675 23.97 -7.0975 26.94 -7.4375 30 C-8.7575 30 -10.0775 30 -11.4375 30 C-11.4375 20.43 -11.4375 10.86 -11.4375 1 C-10.1175 1 -8.7975 1 -7.4375 1 C-7.4375 1.66 -7.4375 2.32 -7.4375 3 C-6.921875 2.484375 -6.40625 1.96875 -5.875 1.4375 C-3.4375 0 -3.4375 0 0 0 Z " fill="#1F232C" transform="translate(100.4375,17)"/>
<path d="M0 0 C3.34139976 0.02999461 4.22721051 0.29795352 7.1875 2.1875 C10.78631154 5.89536643 10.51972278 8.85030571 10.4765625 13.828125 C10.1889947 16.98145466 9.2787596 18.89359433 7.25 21.3125 C3.56123973 23.15688013 -0.72330313 22.80038734 -4.75 22.3125 C-7.32637471 20.42734777 -8.34667428 19.11915143 -9.75 16.3125 C-10.16948626 12.9266466 -10.24414522 9.69181569 -9.75 6.3125 C-7.3125 3.25 -7.3125 3.25 -4.75 1.3125 C-3.75 0.3125 -3.75 0.3125 0 0 Z " fill="#23272F" transform="translate(157.75,16.6875)"/>
<path d="M0 0 C2.9375 1.8125 2.9375 1.8125 5 5 C5.87423463 10.11503947 5.70284671 14.44151381 3.5625 19.1875 C0.30233799 21.49346825 -1.93359111 21.73080357 -5.87109375 21.46484375 C-8 21 -8 21 -10.5625 19.1875 C-12.70284671 14.44151381 -12.87423463 10.11503947 -12 5 C-8.77279226 0.01249713 -5.81589049 -1.03855187 0 0 Z " fill="#F7F7F7" transform="translate(75,14)"/>
<path d="M0 0 C3.19544284 1.37985032 4.62295492 2.31772796 6.3125 5.375 C7 8 7 8 7 13 C2.05 13 -2.9 13 -8 13 C-7.67 14.32 -7.34 15.64 -7 17 C-4.6739143 17.38063221 -2.33944736 17.71269945 0 18 C0.33 17.67 0.66 17.34 1 17 C2.66617115 16.95936168 4.33388095 16.957279 6 17 C4.25 20.875 4.25 20.875 2 22 C-6.69379015 22.92390453 -6.69379015 22.92390453 -10.5625 20.1875 C-13.24505844 16.10534586 -13.82853478 11.77308081 -13 7 C-9.75559076 1.35860184 -6.40800137 -0.50258834 0 0 Z " fill="#3A3E4B" transform="translate(125,17)"/>
<path d="M0 0 C0.495 1.485 0.495 1.485 1 3 C-0.14798257 5.19357185 -1.32511333 7.15372247 -2.69921875 9.19921875 C-3.09067581 9.79426712 -3.48213287 10.38931549 -3.88545227 11.00239563 C-4.71680965 12.25907129 -5.55357076 13.51218617 -6.39526367 14.76196289 C-7.68213927 16.67951207 -8.94227037 18.61283311 -10.20117188 20.54882812 C-11.01145379 21.76666908 -11.82325334 22.98350193 -12.63671875 24.19921875 C-13.01293869 24.78039963 -13.38915863 25.36158051 -13.77677917 25.96037292 C-14.87768555 27.5690918 -14.87768555 27.5690918 -17 30 C-21 30 -21 30 -23.39453125 28.171875 C-24.19246094 27.37265625 -24.99039062 26.5734375 -25.8125 25.75 C-26.62332031 24.96109375 -27.43414063 24.1721875 -28.26953125 23.359375 C-30 21 -30 21 -29.76171875 18.703125 C-29.51035156 18.14109375 -29.25898438 17.5790625 -29 17 C-25.16098132 17.54843124 -23.63836495 19.2765265 -21 22 C-20.01 22.33 -19.02 22.66 -18 23 C-17.78601563 22.34644531 -17.57203125 21.69289063 -17.3515625 21.01953125 C-15.50309714 16.88986731 -12.97287156 13.37729063 -10.375 9.6875 C-8.60125 7.150625 -6.8275 4.61375 -5 2 C-14.57 2 -24.14 2 -34 2 C-34 1.67 -34 1.34 -34 1 C-29.45839728 0.83156021 -24.91670855 0.66555982 -20.375 0.5 C-19.08980469 0.45230469 -17.80460937 0.40460937 -16.48046875 0.35546875 C-14.61455078 0.28779297 -14.61455078 0.28779297 -12.7109375 0.21875 C-11.56931152 0.17685547 -10.42768555 0.13496094 -9.25146484 0.09179688 C-6.16548737 0.00467212 -3.08699651 -0.01635495 0 0 Z " fill="#252C37" transform="translate(44,7)"/>
<path d="M0 0 C0.99 0.33 1.98 0.66 3 1 C3.08696177 4.93736123 3.14037835 8.87447628 3.1875 12.8125 C3.21263672 13.93205078 3.23777344 15.05160156 3.26367188 16.20507812 C3.27333984 17.27822266 3.28300781 18.35136719 3.29296875 19.45703125 C3.3086792 20.44678955 3.32438965 21.43654785 3.34057617 22.45629883 C3 25 3 25 1.97851562 26.828125 C-1.1607262 28.68749824 -4.40911598 28.36604508 -7.94921875 28.29296875 C-8.72183548 28.28872391 -9.49445221 28.28447906 -10.29048157 28.28010559 C-12.75650992 28.26332183 -15.22171896 28.22567147 -17.6875 28.1875 C-19.36001423 28.17245271 -21.03254128 28.15876438 -22.70507812 28.14648438 C-26.80370078 28.11341946 -30.90171151 28.06164028 -35 28 C-35 27.67 -35 27.34 -35 27 C-28.565 26.505 -28.565 26.505 -22 26 C-25.63 25.67 -29.26 25.34 -33 25 C-33 24.67 -33 24.34 -33 24 C-22.77 24 -12.54 24 -2 24 C-2.07909306 16.84970177 -2.07909306 16.84970177 -2.18017578 9.69970703 C-2.1851709 8.81138184 -2.19016602 7.92305664 -2.1953125 7.0078125 C-2.21102295 5.64100342 -2.21102295 5.64100342 -2.22705078 4.24658203 C-2 2 -2 2 0 0 Z " fill="#1E242E" transform="translate(44,20)"/>
<path d="M0 0 C2.171875 1.44921875 2.171875 1.44921875 4 4 C4.4892695 7.0980815 4.37701261 10.12353567 4.25 13.25 C4.23195312 14.09046875 4.21390625 14.9309375 4.1953125 15.796875 C4.14830798 17.86507395 4.07656724 19.93268441 4 22 C2.68 22 1.36 22 0 22 C-0.06058594 20.85660156 -0.12117187 19.71320312 -0.18359375 18.53515625 C-0.26798428 17.04425695 -0.35263302 15.55337225 -0.4375 14.0625 C-0.47681641 13.30775391 -0.51613281 12.55300781 -0.55664062 11.77539062 C-0.44038024 8.08055813 -0.44038024 8.08055813 -2 5 C-4.45809998 4.7499227 -4.45809998 4.7499227 -7 5 C-9.84614024 7.84614024 -9.45579076 10.80369142 -9.625 14.625 C-9.66367188 15.33140625 -9.70234375 16.0378125 -9.7421875 16.765625 C-9.83647724 18.50998524 -9.91932891 20.25495691 -10 22 C-11.32 22 -12.64 22 -14 22 C-14 15.07 -14 8.14 -14 1 C-12.68 1 -11.36 1 -10 1 C-10 1.66 -10 2.32 -10 3 C-9.46375 2.505 -8.9275 2.01 -8.375 1.5 C-5.29889257 -0.44280469 -3.58110811 -0.52224493 0 0 Z " fill="#181C24" transform="translate(186,17)"/>
<path d="M0 0 C2.4375 0.5 2.4375 0.5 4.25 2.0625 C5.89709365 5.44337643 5.90183455 7.78532359 5.4375 11.5 C3.8125 14 3.8125 14 1.4375 15.5 C-1.6875 15.4375 -1.6875 15.4375 -4.5625 14.5 C-7.04288907 10.7794164 -7.02587203 8.90203429 -6.5625 4.5 C-4.56482274 1.61446618 -3.44820196 0.67281989 0 0 Z " fill="#EEEEEE" transform="translate(158.5625,20.5)"/>
<path d="M0 0 C12.21 0 24.42 0 37 0 C37.495 1.98 37.495 1.98 38 4 C32.92798214 4.02471188 27.85599929 4.04286564 22.78393555 4.05493164 C21.0583434 4.05996158 19.33275552 4.06678626 17.60717773 4.07543945 C15.1274307 4.08756361 12.64774 4.09324169 10.16796875 4.09765625 C9.01001045 4.10539818 9.01001045 4.10539818 7.82865906 4.11329651 C4.6169772 4.11363318 2.06979734 4.02326578 -1 3 C-0.67 2.01 -0.34 1.02 0 0 Z " fill="#363A45" transform="translate(8,4)"/>
<path d="M0 0 C2.95653032 0.51739281 3.68007396 1.10279488 5.5 3.4375 C5.8984375 5.59375 5.8984375 5.59375 5.875 7.9375 C5.88273437 8.7109375 5.89046875 9.484375 5.8984375 10.28125 C5.40844456 12.93297648 4.62507645 13.82081504 2.5 15.4375 C-0.28844081 15.85576612 -1.83474158 15.80453913 -4.3125 14.4375 C-6.20601936 11.24841476 -6.02282526 7.99700895 -5.5 4.4375 C-4.02506341 1.33237034 -3.3960639 0.59431118 0 0 Z " fill="#F1F2F2" transform="translate(98.5,20.5625)"/>
<path d="M0 0 C0 1.65 0 3.3 0 5 C-1.98 5.66 -3.96 6.32 -6 7 C-6.33 11.95 -6.66 16.9 -7 22 C-8.65 22 -10.3 22 -12 22 C-12 15.07 -12 8.14 -12 1 C-10.68 1 -9.36 1 -8 1 C-8 1.66 -8 2.32 -8 3 C-7.4225 2.505 -6.845 2.01 -6.25 1.5 C-4 0 -4 0 0 0 Z " fill="#303641" transform="translate(147,17)"/>
<path d="M0 0 C3.25772807 0.04094093 4.26065799 0.31884944 7.1875 2.0625 C9.28444931 4.35008107 10.06518224 5.26300698 10.25 8.3125 C9.8125 11.0625 9.8125 11.0625 9.25 13.3125 C7.9869802 11.4179703 6.75337725 9.50318884 5.5625 7.5625 C4.799375 6.82 4.03625 6.0775 3.25 5.3125 C-0.41974518 5.2173346 -0.41974518 5.2173346 -3.75 6.3125 C-4.08 6.9725 -4.41 7.6325 -4.75 8.3125 C-5.41 8.3125 -6.07 8.3125 -6.75 8.3125 C-6.75 10.6225 -6.75 12.9325 -6.75 15.3125 C-7.41 15.3125 -8.07 15.3125 -8.75 15.3125 C-9.41627145 12.28459311 -9.89045976 9.41822128 -9.75 6.3125 C-7.375 3.3125 -7.375 3.3125 -4.75 1.3125 C-3.75 0.3125 -3.75 0.3125 0 0 Z " fill="#292D36" transform="translate(157.75,16.6875)"/>
<path d="M0 0 C2.8125 1.0625 2.8125 1.0625 5 3 C5.8125 6.6875 5.8125 6.6875 6 10 C5.01 10 4.02 10 3 10 C2.566875 9.175 2.13375 8.35 1.6875 7.5 C1.130625 6.675 0.57375 5.85 0 5 C-2.95691709 4.24984805 -2.95691709 4.24984805 -6 5 C-8.37719693 6.87501931 -8.37719693 6.87501931 -10 9 C-10 8.01 -10 7.02 -10 6 C-10.66 6.99 -11.32 7.98 -12 9 C-11.7153924 5.58470886 -11.20339329 4.21501576 -8.8125 1.6875 C-5.46654559 -0.32007265 -3.84001776 -0.56000259 0 0 Z " fill="#282E38" transform="translate(125,17)"/>
<path d="M0 0 C1 3 1 3 0.00390625 5.04296875 C-0.70958984 6.10451172 -0.70958984 6.10451172 -1.4375 7.1875 C-1.91058594 7.90292969 -2.38367188 8.61835938 -2.87109375 9.35546875 C-3.42990234 10.16951172 -3.42990234 10.16951172 -4 11 C-4.99 10.34 -5.98 9.68 -7 9 C-6.125 4.25 -6.125 4.25 -5 2 C-14.57 2 -24.14 2 -34 2 C-34 1.67 -34 1.34 -34 1 C-29.45839728 0.83156021 -24.91670855 0.66555982 -20.375 0.5 C-19.08980469 0.45230469 -17.80460937 0.40460937 -16.48046875 0.35546875 C-14.61455078 0.28779297 -14.61455078 0.28779297 -12.7109375 0.21875 C-11.56931152 0.17685547 -10.42768555 0.13496094 -9.25146484 0.09179688 C-6.16548737 0.00467212 -3.08699651 -0.01635495 0 0 Z " fill="#171C23" transform="translate(44,7)"/>
<path d="M0 0 C0.33 0 0.66 0 1 0 C1.99250545 5.70690634 2.10477512 11.21408489 2 17 C2.66 17 3.32 17 4 17 C4.33 16.34 4.66 15.68 5 15 C5.33 15.99 5.66 16.98 6 18 C8.31 18 10.62 18 13 18 C13.33 18.66 13.66 19.32 14 20 C7.375 21.25 7.375 21.25 4 19 C3.67 21.64 3.34 24.28 3 27 C2.01 27 1.02 27 0 27 C0 18.09 0 9.18 0 0 Z " fill="#424851" transform="translate(90,19)"/>
<path d="M0 0 C2.38825352 3.64429796 1.94295451 6.0693436 1.125 10.25 C0.92132813 11.32765625 0.71765625 12.4053125 0.5078125 13.515625 C0.34023437 14.33546875 0.17265625 15.1553125 0 16 C-0.99 15.67 -1.98 15.34 -3 15 C-3 15.66 -3 16.32 -3 17 C-3.66 16.67 -4.32 16.34 -5 16 C-4.67 15.34 -4.34 14.68 -4 14 C-3.76360829 10.91815246 -3.61758293 7.83760526 -3.4765625 4.75 C-3.31929688 3.8425 -3.16203125 2.935 -3 2 C-2.01 1.34 -1.02 0.68 0 0 Z " fill="#323841" transform="translate(83,16)"/>
<path d="M0 0 C0.556875 0.495 1.11375 0.99 1.6875 1.5 C4.39516153 3.25632099 5.83379087 3.34229288 9 3 C9.33 2.67 9.66 2.34 10 2 C11.66617115 1.95936168 13.33388095 1.957279 15 2 C13.25 5.875 13.25 5.875 11 7 C9.33765189 7.14601706 7.66849493 7.22089834 6 7.25 C5.113125 7.27578125 4.22625 7.3015625 3.3125 7.328125 C2.549375 7.21984375 1.78625 7.1115625 1 7 C-1 4 -1 4 -0.625 1.8125 C-0.41875 1.214375 -0.2125 0.61625 0 0 Z " fill="#1C2029" transform="translate(116,32)"/>
<path d="M0 0 C0.33 0 0.66 0 1 0 C1.61919654 9.66634592 1.61919654 9.66634592 -0.625 14.5 C-3.26811128 17.28222239 -5.41427955 18.65535483 -9 20 C-10.32 20 -11.64 20 -13 20 C-13 19.34 -13 18.68 -13 18 C-10.69 17.34 -8.38 16.68 -6 16 C-6.99 15.67 -7.98 15.34 -9 15 C-8.34 14.34 -7.68 13.68 -7 13 C-6.01 13 -5.02 13 -4 13 C-4 12.34 -4 11.68 -4 11 C-3.34 11 -2.68 11 -2 11 C-0.85185003 8.70370006 -0.69230191 6.92301914 -0.4375 4.375 C-0.35371094 3.55773437 -0.26992187 2.74046875 -0.18359375 1.8984375 C-0.12300781 1.27195312 -0.06242187 0.64546875 0 0 Z " fill="#1F252F" transform="translate(84,20)"/>
<path d="M0 0 C8.86173965 -0.46459606 8.86173965 -0.46459606 13.0625 1.25 C15.18436938 3.16652718 15.70926678 4.18957887 16 7 C14.02 7.99 14.02 7.99 12 9 C11.443125 8.38125 10.88625 7.7625 10.3125 7.125 C7.90403646 4.91181729 6.01236804 4.15860309 3 3 C1.97124132 2.02961061 0.96584107 1.03303002 0 0 Z " fill="#1C212A" transform="translate(67,10)"/>
<path d="M0 0 C4.41031645 0.50888267 6.89327599 3.03449072 10 6 C10 6.99 10 7.98 10 9 C9.401875 8.835 8.80375 8.67 8.1875 8.5 C5.88655664 7.8885876 5.88655664 7.8885876 3 8 C0.75 6.25 0.75 6.25 -1 4 C-0.75 1.75 -0.75 1.75 0 0 Z " fill="#29303C" transform="translate(15,24)"/>
<path d="M0 0 C3.0625 0.1875 3.0625 0.1875 5.0625 2.1875 C5.0625 3.1775 5.0625 4.1675 5.0625 5.1875 C1.7625 5.1875 -1.5375 5.1875 -4.9375 5.1875 C-3.69966216 0.23614865 -3.69966216 0.23614865 0 0 Z " fill="#F2F2F3" transform="translate(121.9375,20.8125)"/>
<path d="M0 0 C0.66 0 1.32 0 2 0 C3.59412284 3.18824568 3.10174735 6.62896662 3.0625 10.125 C3.05798828 10.87910156 3.05347656 11.63320313 3.04882812 12.41015625 C3.03703499 14.27347127 3.01909942 16.13674555 3 18 C2.34 18 1.68 18 1 18 C1 13.05 1 8.1 1 3 C0.01 2.67 -0.98 2.34 -2 2 C-1.34 1.34 -0.68 0.68 0 0 Z " fill="#303843" transform="translate(186,20)"/>
<path d="M0 0 C0.33 0 0.66 0 1 0 C1 2.31 1 4.62 1 7 C1.66 7 2.32 7 3 7 C3 4.69 3 2.38 3 0 C3.33 0 3.66 0 4 0 C4.12117187 0.62648438 4.24234375 1.25296875 4.3671875 1.8984375 C4.53476563 2.71570313 4.70234375 3.53296875 4.875 4.375 C5.03742188 5.18710937 5.19984375 5.99921875 5.3671875 6.8359375 C5.86658932 9.18673923 5.86658932 9.18673923 8 11 C6.02 11.33 4.04 11.66 2 12 C-0.60018816 8.09971775 -0.15085514 4.52565431 0 0 Z " fill="#161A1F" transform="translate(148,25)"/>
<path d="M0 0 C0.33 0 0.66 0 1 0 C1.33 3.96 1.66 7.92 2 12 C1.34 12 0.68 12 0 12 C0 14.97 0 17.94 0 21 C-0.33 21 -0.66 21 -1 21 C-1.02895976 17.87501937 -1.04678483 14.7500731 -1.0625 11.625 C-1.07087891 10.73554687 -1.07925781 9.84609375 -1.08789062 8.9296875 C-1.09111328 8.07890625 -1.09433594 7.228125 -1.09765625 6.3515625 C-1.10289307 5.56604004 -1.10812988 4.78051758 -1.11352539 3.97119141 C-1 2 -1 2 0 0 Z " fill="#162132" transform="translate(92,24)"/>
<path d="M0 0 C2.97 0.33 5.94 0.66 9 1 C8.67 1.99 8.34 2.98 8 4 C4.54310037 5.21631654 1.67168136 6 -2 6 C-1.34 4.02 -0.68 2.04 0 0 Z " fill="#343A43" transform="translate(65,10)"/>
<path d="M0 0 C0.66 0.99 1.32 1.98 2 3 C2.66 2.34 3.32 1.68 4 1 C4.125 8.75 4.125 8.75 3 11 C1.68 10.67 0.36 10.34 -1 10 C-0.67 6.7 -0.34 3.4 0 0 Z " fill="#151A22" transform="translate(164,24)"/>
<path d="M0 0 C0.99 0.99 1.98 1.98 3 3 C1.8141763 6.37503669 0.72426311 8.64722731 -2 11 C-2 3 -2 3 0 0 Z " fill="#1E2530" transform="translate(36,14)"/>
<path d="M0 0 C3.82097239 0.53069061 6.06171403 1.49701566 9 4 C8.67 6.31 8.34 8.62 8 11 C7.34 10.01 6.68 9.02 6 8 C5.29875 7.154375 4.5975 6.30875 3.875 5.4375 C2 3 2 3 2 1 C1.34 0.67 0.68 0.34 0 0 Z " fill="#333943" transform="translate(159,19)"/>
<path d="M0 0 C0.99 0.495 0.99 0.495 2 1 C2 1.66 2 2.32 2 3 C4.31 3 6.62 3 9 3 C9.33 3.66 9.66 4.32 10 5 C3.375 6.25 3.375 6.25 0 4 C0 2.68 0 1.36 0 0 Z " fill="#323741" transform="translate(94,34)"/>
<path d="M0 0 C0 3.74161103 -0.51338171 7.28953557 -1 11 C-1.66 10.01 -2.32 9.02 -3 8 C-3.99 8.495 -3.99 8.495 -5 9 C-4.5206753 4.68607774 -3.2542015 2.83430453 0 0 Z " fill="#191E29" transform="translate(64,11)"/>
<path d="M0 0 C0.99 0.33 1.98 0.66 3 1 C2.67 3.97 2.34 6.94 2 10 C1.34 10 0.68 10 0 10 C-0.19412181 8.52168779 -0.38012131 7.04230684 -0.5625 5.5625 C-0.66691406 4.73878906 -0.77132812 3.91507813 -0.87890625 3.06640625 C-0.91886719 2.38449219 -0.95882812 1.70257812 -1 1 C-0.67 0.67 -0.34 0.34 0 0 Z " fill="#333A45" transform="translate(149,22)"/>
<path d="M0 0 C0.66 0.99 1.32 1.98 2 3 C1.34 3 0.68 3 0 3 C0.33 4.32 0.66 5.64 1 7 C-1.97 6.67 -4.94 6.34 -8 6 C-8 5.67 -8 5.34 -8 5 C-7.05125 4.731875 -6.1025 4.46375 -5.125 4.1875 C-1.74732727 3.25013412 -1.74732727 3.25013412 0 0 Z " fill="#151C26" transform="translate(104,31)"/>
<path d="M0 0 C0.66 1.32 1.32 2.64 2 4 C0.68 5.32 -0.64 6.64 -2 8 C-2 7.01 -2 6.02 -2 5 C-2.66 5.99 -3.32 6.98 -4 8 C-3.50168276 4.31245243 -2.89932357 2.39509338 0 0 Z " fill="#161B26" transform="translate(117,18)"/>
<path d="M0 0 C1.32 0.33 2.64 0.66 4 1 C4.33 3.64 4.66 6.28 5 9 C4.87625 8.071875 4.87625 8.071875 4.75 7.125 C4.18741541 4.81562433 4.18741541 4.81562433 1.9375 3.75 C1.298125 3.5025 0.65875 3.255 0 3 C0 2.01 0 1.02 0 0 Z " fill="#3E454F" transform="translate(58,18)"/>
<path d="M0 0 C0.99 0 1.98 0 3 0 C3 0.66 3 1.32 3 2 C3.66 2.33 4.32 2.66 5 3 C5 3.66 5 4.32 5 5 C4.01 5.33 3.02 5.66 2 6 C1.34 5.34 0.68 4.68 0 4 C0 2.68 0 1.36 0 0 Z " fill="#353B43" transform="translate(61,32)"/>
<path d="M0 0 C1.98 0.99 1.98 0.99 4 2 C3.34 3.32 2.68 4.64 2 6 C1.34 5.67 0.68 5.34 0 5 C0 3.35 0 1.7 0 0 Z " fill="#2F3742" transform="translate(91,19)"/>
</svg>
