<svg xmlns="http://www.w3.org/2000/svg" width="30" height="30" viewBox="0 0 30 30">
  <g id="Group_8297" data-name="Group 8297" transform="translate(-301 -204)">
    <circle id="Ellipse_6" data-name="Ellipse 6" cx="15" cy="15" r="15" transform="translate(301 204)" fill="#ffb432" opacity="0.2"/>
    <g id="Icon_ionic-ios-ribbon" data-name="Icon ionic-ios-ribbon" transform="translate(303.784 207.75)">
      <path id="Path_7008" data-name="Path 7008" d="M14.02,12.752a5.249,5.249,0,0,0,5.291-5.3,5.328,5.328,0,0,0-5.2-5.207,5.249,5.249,0,0,0-5.291,5.3A5.328,5.328,0,0,0,14.02,12.752Zm-.149-8.2a2.955,2.955,0,1,1-2.752,2.756A2.956,2.956,0,0,1,13.871,4.552Z" transform="translate(-1.85)" fill="#ffb432"/>
      <path id="Path_7009" data-name="Path 7009" d="M12.215,20.228A5.961,5.961,0,0,1,7.855,18.34a.167.167,0,0,0-.265.028L4.545,23.7a.331.331,0,0,0,.289.494H8.052a.332.332,0,0,1,.285.161L9.9,26.962a.333.333,0,0,0,.587-.032l1.728-3.8,1.258-2.768a.164.164,0,0,0-.181-.229A6.4,6.4,0,0,1,12.215,20.228Z" transform="translate(0 -6.873)" fill="#ffb432"/>
      <path id="Path_7010" data-name="Path 7010" d="M22.622,18.334a5.97,5.97,0,0,1-2.109,1.45.152.152,0,0,0-.088.084l-1.8,3.925a.162.162,0,0,0,0,.137l1.362,2.993a.333.333,0,0,0,.587.032l1.567-2.608a.332.332,0,0,1,.285-.161h3.218a.332.332,0,0,0,.289-.494l-3.045-5.336A.175.175,0,0,0,22.622,18.334Z" transform="translate(-6.048 -6.871)" fill="#ffb432"/>
    </g>
  </g>
</svg>
