<svg xmlns="http://www.w3.org/2000/svg" width="30" height="30" viewBox="0 0 30 30">
  <g id="Group_8298" data-name="Group 8298" transform="translate(-301 -141)">
    <circle id="Ellipse_6" data-name="Ellipse 6" cx="15" cy="15" r="15" transform="translate(301 141)" fill="#ece8f6"/>
    <path id="Icon_awesome-ticket-alt" data-name="Icon awesome-ticket-alt" d="M4,7.5H14v6H4Zm12.5,3A1.5,1.5,0,0,0,18,12v3a1.5,1.5,0,0,1-1.5,1.5H1.5A1.5,1.5,0,0,1,0,15V12A1.5,1.5,0,0,0,0,9V6A1.5,1.5,0,0,1,1.5,4.5h15A1.5,1.5,0,0,1,18,6V9A1.5,1.5,0,0,0,16.5,10.5ZM15,7.25a.75.75,0,0,0-.75-.75H3.75A.75.75,0,0,0,3,7.25v6.5a.75.75,0,0,0,.75.75h10.5a.75.75,0,0,0,.75-.75Z" transform="translate(307 145.5)" fill="#ea1c24"/>
  </g>
</svg>
