<svg xmlns="http://www.w3.org/2000/svg" width="30" height="30" viewBox="0 0 30 30">
  <g id="Group_9389" data-name="Group 9389" transform="translate(-836 -203)">
    <circle id="Ellipse_6" data-name="Ellipse 6" cx="15" cy="15" r="15" transform="translate(836 203)" fill="#ffb432"/>
    <rect id="Rectangle_267" data-name="Rectangle 267" width="24" height="24" transform="translate(839 206)" fill="#ece8f6" opacity="0"/>
    <path id="Icon_awesome-user-cog" data-name="Icon awesome-user-cog" d="M21.145,12.837a3.605,3.605,0,0,0,0-1.309l.793-.458a.223.223,0,0,0,.1-.261,4.612,4.612,0,0,0-1.02-1.764A.224.224,0,0,0,20.742,9l-.793.458A3.608,3.608,0,0,0,18.815,8.8V7.889a.224.224,0,0,0-.175-.218,4.637,4.637,0,0,0-2.035,0,.224.224,0,0,0-.175.218V8.8A3.608,3.608,0,0,0,15.3,9.46L14.5,9a.225.225,0,0,0-.277.043,4.612,4.612,0,0,0-1.02,1.764.226.226,0,0,0,.1.261l.793.458a3.605,3.605,0,0,0,0,1.309l-.793.458a.223.223,0,0,0-.1.261,4.635,4.635,0,0,0,1.02,1.764.224.224,0,0,0,.277.043l.793-.458a3.608,3.608,0,0,0,1.134.655v.916a.224.224,0,0,0,.175.218,4.637,4.637,0,0,0,2.035,0,.224.224,0,0,0,.175-.218V15.56a3.608,3.608,0,0,0,1.134-.655l.793.458a.225.225,0,0,0,.277-.043,4.612,4.612,0,0,0,1.02-1.764.226.226,0,0,0-.1-.261Zm-3.519.836a1.491,1.491,0,1,1,1.491-1.491A1.492,1.492,0,0,1,17.626,13.673Z" transform="translate(839.559 211.441)" fill="#fff"/>
    <path id="Rectangle_3317" data-name="Rectangle 3317" d="M2,0H2A2,2,0,0,1,4,2V4A0,0,0,0,1,4,4H0A0,0,0,0,1,0,4V2A2,2,0,0,1,2,0Z" transform="translate(855 208)" fill="#fff"/>
    <path id="Path_6967" data-name="Path 6967" d="M3,0H3A2,2,0,0,1,5,2V4H1V2A2,2,0,0,1,3,0Z" transform="translate(848 208)" fill="#fff"/>
    <path id="Rectangle_3321" data-name="Rectangle 3321" d="M2,0H2A2,2,0,0,1,4,2V4A0,0,0,0,1,4,4H0A0,0,0,0,1,0,4V2A2,2,0,0,1,2,0Z" transform="translate(843 208)" fill="#fff"/>
    <path id="Rectangle_3323" data-name="Rectangle 3323" d="M0,0H4A0,0,0,0,1,4,0V2A2,2,0,0,1,2,4H2A2,2,0,0,1,0,2V0A0,0,0,0,1,0,0Z" transform="translate(843 224)" fill="#fff"/>
    <path id="Path_6867" data-name="Path 6867" d="M1,0H4.45l-.7.619c.525,1.652,1.2,1.91.956,2.426A1.876,1.876,0,0,1,3,4H3A2,2,0,0,1,1,2Z" transform="translate(848 224)" fill="#fff"/>
    <rect id="Rectangle_3318" data-name="Rectangle 3318" width="4" height="5" transform="translate(855 213)" fill="#fff"/>
    <path id="Path_6866" data-name="Path 6866" d="M1.037,0H5V6.619l-1.175,2.2L4.025,10H1.037Z" transform="translate(848 213)" fill="#fff"/>
    <rect id="Rectangle_3789" data-name="Rectangle 3789" width="4" height="10" transform="translate(843 213)" fill="#fff"/>
  </g>
</svg>
