<svg xmlns="http://www.w3.org/2000/svg" width="30" height="30" viewBox="0 0 30 30">
  <g id="Group_8713" data-name="Group 8713" transform="translate(-1070 -203)">
    <g id="Group_8711" data-name="Group 8711" transform="translate(271 -1)">
      <circle id="Ellipse_8" data-name="Ellipse 8" cx="15" cy="15" r="15" transform="translate(799 204)" fill="#e8505d"/>
    </g>
    <path id="Path_6966" data-name="Path 6966" d="M.956,7.556V-2.108H3.591V7.556ZM2.134-3.724a1.856,1.856,0,0,1-1.126-.348A1.1,1.1,0,0,1,.532-5,1.126,1.126,0,0,1,.8-5.727a1.9,1.9,0,0,1,.677-.521,2.006,2.006,0,0,1,.868-.2,1.72,1.72,0,0,1,1.183.365,1.173,1.173,0,0,1,.408.912,1.252,1.252,0,0,1-.537,1.03A2.01,2.01,0,0,1,2.134-3.724Z" transform="translate(1086.932 218.556) rotate(180)" fill="#fff"/>
  </g>
</svg>
