<svg xmlns="http://www.w3.org/2000/svg" width="24" height="24" viewBox="0 0 24 24">
  <g id="profile_blue_icn" transform="translate(-1350 -30)">
    <rect id="Rectangle_269" data-name="Rectangle 269" width="24" height="24" rx="12" transform="translate(1350 30)" fill="#ece8f6"/>
    <path id="Icon_awesome-user" data-name="Icon awesome-user" d="M5.25,6a3,3,0,1,0-3-3A3,3,0,0,0,5.25,6Zm2.1.75H6.959a4.08,4.08,0,0,1-3.417,0H3.15A3.151,3.151,0,0,0,0,9.9v.975A1.125,1.125,0,0,0,1.125,12h8.25A1.125,1.125,0,0,0,10.5,10.875V9.9A3.151,3.151,0,0,0,7.35,6.75Z" transform="translate(1357 36)" fill="#4a25a9"/>
  </g>
</svg>
