<svg xmlns="http://www.w3.org/2000/svg" width="32" height="32" viewBox="0 0 32 32">
  <g id="user_icn" transform="translate(-1113 -435)">
    <rect id="Rectangle_11" data-name="Rectangle 11" width="32" height="32" transform="translate(1113 435)" fill="none"/>
    <path id="Icon_awesome-user" data-name="Icon awesome-user" d="M10.5,12a6,6,0,1,0-6-6A6,6,0,0,0,10.5,12Zm4.2,1.5h-.783a8.16,8.16,0,0,1-6.834,0H6.3A6.3,6.3,0,0,0,0,19.8v1.95A2.251,2.251,0,0,0,2.25,24h16.5A2.251,2.251,0,0,0,21,21.75V19.8A6.3,6.3,0,0,0,14.7,13.5Z" transform="translate(1118.5 439)" fill="#eee"/>
    <g id="Icon_awesome-user-2" data-name="Icon awesome-user" transform="translate(1118.5 439)" fill="none">
      <path d="M10.5,12a6,6,0,1,0-6-6A6,6,0,0,0,10.5,12Zm4.2,1.5h-.783a8.16,8.16,0,0,1-6.834,0H6.3A6.3,6.3,0,0,0,0,19.8v1.95A2.251,2.251,0,0,0,2.25,24h16.5A2.251,2.251,0,0,0,21,21.75V19.8A6.3,6.3,0,0,0,14.7,13.5Z" stroke="none"/>
      <path d="M 10.5 1.999998092651367 C 8.294389724731445 1.999998092651367 6.5 3.794389724731445 6.5 5.999998092651367 C 6.5 8.205609321594238 8.294389724731445 9.999999046325684 10.5 9.999999046325684 C 12.70561027526855 9.999999046325684 14.5 8.205609321594238 14.5 5.999998092651367 C 14.5 3.794389724731445 12.70561027526855 1.999998092651367 10.5 1.999998092651367 M 6.300000190734863 15.49999904632568 C 3.928970336914062 15.49999904632568 2 17.42896842956543 2 19.79999923706055 L 2 21.75 C 2 21.88784980773926 2.112150192260742 22 2.25 22 L 18.75 22 C 18.88784980773926 22 19 21.88784980773926 19 21.75 L 19 19.79999923706055 C 19 17.42896842956543 17.07102966308594 15.49999904632568 14.69999980926514 15.49999904632568 L 14.33056831359863 15.49999904632568 C 13.1081428527832 15.99789047241211 11.82171249389648 16.25 10.5 16.25 C 9.182732582092285 16.25 7.896694183349609 15.99787425994873 6.670790672302246 15.49999904632568 L 6.300000190734863 15.49999904632568 M 10.5 -1.9073486328125e-06 C 13.81406021118164 -1.9073486328125e-06 16.5 2.685939788818359 16.5 5.999998092651367 C 16.5 9.314059257507324 13.81406021118164 11.99999904632568 10.5 11.99999904632568 C 7.185939788818359 11.99999904632568 4.5 9.314059257507324 4.5 5.999998092651367 C 4.5 2.685939788818359 7.185939788818359 -1.9073486328125e-06 10.5 -1.9073486328125e-06 Z M 6.300000190734863 13.49999904632568 L 7.082810401916504 13.49999904632568 C 8.128120422363281 13.97812938690186 9.28125 14.24999904632568 10.5 14.24999904632568 C 11.71875 14.24999904632568 12.87656021118164 13.97812938690186 13.91719055175781 13.49999904632568 L 14.69999980926514 13.49999904632568 C 18.17812919616699 13.49999904632568 21 16.32187843322754 21 19.79999923706055 L 21 21.75 C 21 22.99218940734863 19.99218940734863 24 18.75 24 L 2.25 24 C 1.007810592651367 24 0 22.99218940734863 0 21.75 L 0 19.79999923706055 C 0 16.32187843322754 2.821870803833008 13.49999904632568 6.300000190734863 13.49999904632568 Z" stroke="none" fill="#c6c6c6"/>
    </g>
  </g>
</svg>
